<?xml version="1.0" encoding="utf-8" standalone="no"?>
<!DOCTYPE svg PUBLIC "-//W3C//DTD SVG 1.1//EN"
  "http://www.w3.org/Graphics/SVG/1.1/DTD/svg11.dtd">
<!-- Created with matplotlib (http://matplotlib.org/) -->
<svg height="345.6pt" version="1.1" viewBox="0 0 460.8 345.6" width="460.8pt" xmlns="http://www.w3.org/2000/svg" xmlns:xlink="http://www.w3.org/1999/xlink">
 <defs>
  <style type="text/css">
*{stroke-linecap:butt;stroke-linejoin:round;}
  </style>
 </defs>
 <g id="figure_1">
  <g id="patch_1">
   <path d="M 0 345.6 
L 460.8 345.6 
L 460.8 0 
L 0 0 
z
" style="fill:#ffffff;"/>
  </g>
  <g id="axes_1">
   <g id="patch_2">
    <path d="M 57.6 307.584 
L 414.72 307.584 
L 414.72 41.472 
L 57.6 41.472 
z
" style="fill:#ffffff;"/>
   </g>
   <g id="matplotlib.axis_1">
    <g id="xtick_1">
     <g id="line2d_1">
      <defs>
       <path d="M 0 0 
L 0 3.5 
" id="m0c6151a17c" style="stroke:#000000;stroke-width:0.8;"/>
      </defs>
      <g>
       <use style="stroke:#000000;stroke-width:0.8;" x="73.832727" xlink:href="#m0c6151a17c" y="307.584"/>
      </g>
     </g>
     <g id="text_1">
      <!-- 0 -->
      <defs>
       <path d="M 31.78125 66.40625 
Q 24.171875 66.40625 20.328125 58.90625 
Q 16.5 51.421875 16.5 36.375 
Q 16.5 21.390625 20.328125 13.890625 
Q 24.171875 6.390625 31.78125 6.390625 
Q 39.453125 6.390625 43.28125 13.890625 
Q 47.125 21.390625 47.125 36.375 
Q 47.125 51.421875 43.28125 58.90625 
Q 39.453125 66.40625 31.78125 66.40625 
z
M 31.78125 74.21875 
Q 44.046875 74.21875 50.515625 64.515625 
Q 56.984375 54.828125 56.984375 36.375 
Q 56.984375 17.96875 50.515625 8.265625 
Q 44.046875 -1.421875 31.78125 -1.421875 
Q 19.53125 -1.421875 13.0625 8.265625 
Q 6.59375 17.96875 6.59375 36.375 
Q 6.59375 54.828125 13.0625 64.515625 
Q 19.53125 74.21875 31.78125 74.21875 
z
" id="DejaVuSans-30"/>
      </defs>
      <g transform="translate(70.651477 322.182437)scale(0.1 -0.1)">
       <use xlink:href="#DejaVuSans-30"/>
      </g>
     </g>
    </g>
    <g id="xtick_2">
     <g id="line2d_2">
      <g>
       <use style="stroke:#000000;stroke-width:0.8;" x="138.828632" xlink:href="#m0c6151a17c" y="307.584"/>
      </g>
     </g>
     <g id="text_2">
      <!-- 200 -->
      <defs>
       <path d="M 19.1875 8.296875 
L 53.609375 8.296875 
L 53.609375 0 
L 7.328125 0 
L 7.328125 8.296875 
Q 12.9375 14.109375 22.625 23.890625 
Q 32.328125 33.6875 34.8125 36.53125 
Q 39.546875 41.84375 41.421875 45.53125 
Q 43.3125 49.21875 43.3125 52.78125 
Q 43.3125 58.59375 39.234375 62.25 
Q 35.15625 65.921875 28.609375 65.921875 
Q 23.96875 65.921875 18.8125 64.3125 
Q 13.671875 62.703125 7.8125 59.421875 
L 7.8125 69.390625 
Q 13.765625 71.78125 18.9375 73 
Q 24.125 74.21875 28.421875 74.21875 
Q 39.75 74.21875 46.484375 68.546875 
Q 53.21875 62.890625 53.21875 53.421875 
Q 53.21875 48.921875 51.53125 44.890625 
Q 49.859375 40.875 45.40625 35.40625 
Q 44.1875 33.984375 37.640625 27.21875 
Q 31.109375 20.453125 19.1875 8.296875 
z
" id="DejaVuSans-32"/>
      </defs>
      <g transform="translate(129.284882 322.182437)scale(0.1 -0.1)">
       <use xlink:href="#DejaVuSans-32"/>
       <use x="63.623047" xlink:href="#DejaVuSans-30"/>
       <use x="127.246094" xlink:href="#DejaVuSans-30"/>
      </g>
     </g>
    </g>
    <g id="xtick_3">
     <g id="line2d_3">
      <g>
       <use style="stroke:#000000;stroke-width:0.8;" x="203.824537" xlink:href="#m0c6151a17c" y="307.584"/>
      </g>
     </g>
     <g id="text_3">
      <!-- 400 -->
      <defs>
       <path d="M 37.796875 64.3125 
L 12.890625 25.390625 
L 37.796875 25.390625 
z
M 35.203125 72.90625 
L 47.609375 72.90625 
L 47.609375 25.390625 
L 58.015625 25.390625 
L 58.015625 17.1875 
L 47.609375 17.1875 
L 47.609375 0 
L 37.796875 0 
L 37.796875 17.1875 
L 4.890625 17.1875 
L 4.890625 26.703125 
z
" id="DejaVuSans-34"/>
      </defs>
      <g transform="translate(194.280787 322.182437)scale(0.1 -0.1)">
       <use xlink:href="#DejaVuSans-34"/>
       <use x="63.623047" xlink:href="#DejaVuSans-30"/>
       <use x="127.246094" xlink:href="#DejaVuSans-30"/>
      </g>
     </g>
    </g>
    <g id="xtick_4">
     <g id="line2d_4">
      <g>
       <use style="stroke:#000000;stroke-width:0.8;" x="268.820442" xlink:href="#m0c6151a17c" y="307.584"/>
      </g>
     </g>
     <g id="text_4">
      <!-- 600 -->
      <defs>
       <path d="M 33.015625 40.375 
Q 26.375 40.375 22.484375 35.828125 
Q 18.609375 31.296875 18.609375 23.390625 
Q 18.609375 15.53125 22.484375 10.953125 
Q 26.375 6.390625 33.015625 6.390625 
Q 39.65625 6.390625 43.53125 10.953125 
Q 47.40625 15.53125 47.40625 23.390625 
Q 47.40625 31.296875 43.53125 35.828125 
Q 39.65625 40.375 33.015625 40.375 
z
M 52.59375 71.296875 
L 52.59375 62.3125 
Q 48.875 64.0625 45.09375 64.984375 
Q 41.3125 65.921875 37.59375 65.921875 
Q 27.828125 65.921875 22.671875 59.328125 
Q 17.53125 52.734375 16.796875 39.40625 
Q 19.671875 43.65625 24.015625 45.921875 
Q 28.375 48.1875 33.59375 48.1875 
Q 44.578125 48.1875 50.953125 41.515625 
Q 57.328125 34.859375 57.328125 23.390625 
Q 57.328125 12.15625 50.6875 5.359375 
Q 44.046875 -1.421875 33.015625 -1.421875 
Q 20.359375 -1.421875 13.671875 8.265625 
Q 6.984375 17.96875 6.984375 36.375 
Q 6.984375 53.65625 15.1875 63.9375 
Q 23.390625 74.21875 37.203125 74.21875 
Q 40.921875 74.21875 44.703125 73.484375 
Q 48.484375 72.75 52.59375 71.296875 
z
" id="DejaVuSans-36"/>
      </defs>
      <g transform="translate(259.276692 322.182437)scale(0.1 -0.1)">
       <use xlink:href="#DejaVuSans-36"/>
       <use x="63.623047" xlink:href="#DejaVuSans-30"/>
       <use x="127.246094" xlink:href="#DejaVuSans-30"/>
      </g>
     </g>
    </g>
    <g id="xtick_5">
     <g id="line2d_5">
      <g>
       <use style="stroke:#000000;stroke-width:0.8;" x="333.816347" xlink:href="#m0c6151a17c" y="307.584"/>
      </g>
     </g>
     <g id="text_5">
      <!-- 800 -->
      <defs>
       <path d="M 31.78125 34.625 
Q 24.75 34.625 20.71875 30.859375 
Q 16.703125 27.09375 16.703125 20.515625 
Q 16.703125 13.921875 20.71875 10.15625 
Q 24.75 6.390625 31.78125 6.390625 
Q 38.8125 6.390625 42.859375 10.171875 
Q 46.921875 13.96875 46.921875 20.515625 
Q 46.921875 27.09375 42.890625 30.859375 
Q 38.875 34.625 31.78125 34.625 
z
M 21.921875 38.8125 
Q 15.578125 40.375 12.03125 44.71875 
Q 8.5 49.078125 8.5 55.328125 
Q 8.5 64.0625 14.71875 69.140625 
Q 20.953125 74.21875 31.78125 74.21875 
Q 42.671875 74.21875 48.875 69.140625 
Q 55.078125 64.0625 55.078125 55.328125 
Q 55.078125 49.078125 51.53125 44.71875 
Q 48 40.375 41.703125 38.8125 
Q 48.828125 37.15625 52.796875 32.3125 
Q 56.78125 27.484375 56.78125 20.515625 
Q 56.78125 9.90625 50.3125 4.234375 
Q 43.84375 -1.421875 31.78125 -1.421875 
Q 19.734375 -1.421875 13.25 4.234375 
Q 6.78125 9.90625 6.78125 20.515625 
Q 6.78125 27.484375 10.78125 32.3125 
Q 14.796875 37.15625 21.921875 38.8125 
z
M 18.3125 54.390625 
Q 18.3125 48.734375 21.84375 45.5625 
Q 25.390625 42.390625 31.78125 42.390625 
Q 38.140625 42.390625 41.71875 45.5625 
Q 45.3125 48.734375 45.3125 54.390625 
Q 45.3125 60.0625 41.71875 63.234375 
Q 38.140625 66.40625 31.78125 66.40625 
Q 25.390625 66.40625 21.84375 63.234375 
Q 18.3125 60.0625 18.3125 54.390625 
z
" id="DejaVuSans-38"/>
      </defs>
      <g transform="translate(324.272597 322.182437)scale(0.1 -0.1)">
       <use xlink:href="#DejaVuSans-38"/>
       <use x="63.623047" xlink:href="#DejaVuSans-30"/>
       <use x="127.246094" xlink:href="#DejaVuSans-30"/>
      </g>
     </g>
    </g>
    <g id="xtick_6">
     <g id="line2d_6">
      <g>
       <use style="stroke:#000000;stroke-width:0.8;" x="398.812252" xlink:href="#m0c6151a17c" y="307.584"/>
      </g>
     </g>
     <g id="text_6">
      <!-- 1000 -->
      <defs>
       <path d="M 12.40625 8.296875 
L 28.515625 8.296875 
L 28.515625 63.921875 
L 10.984375 60.40625 
L 10.984375 69.390625 
L 28.421875 72.90625 
L 38.28125 72.90625 
L 38.28125 8.296875 
L 54.390625 8.296875 
L 54.390625 0 
L 12.40625 0 
z
" id="DejaVuSans-31"/>
      </defs>
      <g transform="translate(386.087252 322.182437)scale(0.1 -0.1)">
       <use xlink:href="#DejaVuSans-31"/>
       <use x="63.623047" xlink:href="#DejaVuSans-30"/>
       <use x="127.246094" xlink:href="#DejaVuSans-30"/>
       <use x="190.869141" xlink:href="#DejaVuSans-30"/>
      </g>
     </g>
    </g>
   </g>
   <g id="matplotlib.axis_2">
    <g id="ytick_1">
     <g id="line2d_7">
      <defs>
       <path d="M 0 0 
L -3.5 0 
" id="md11ecde062" style="stroke:#000000;stroke-width:0.8;"/>
      </defs>
      <g>
       <use style="stroke:#000000;stroke-width:0.8;" x="57.6" xlink:href="#md11ecde062" y="281.519446"/>
      </g>
     </g>
     <g id="text_7">
      <!-- 200 -->
      <g transform="translate(31.5125 285.318665)scale(0.1 -0.1)">
       <use xlink:href="#DejaVuSans-32"/>
       <use x="63.623047" xlink:href="#DejaVuSans-30"/>
       <use x="127.246094" xlink:href="#DejaVuSans-30"/>
      </g>
     </g>
    </g>
    <g id="ytick_2">
     <g id="line2d_8">
      <g>
       <use style="stroke:#000000;stroke-width:0.8;" x="57.6" xlink:href="#md11ecde062" y="242.524753"/>
      </g>
     </g>
     <g id="text_8">
      <!-- 400 -->
      <g transform="translate(31.5125 246.323972)scale(0.1 -0.1)">
       <use xlink:href="#DejaVuSans-34"/>
       <use x="63.623047" xlink:href="#DejaVuSans-30"/>
       <use x="127.246094" xlink:href="#DejaVuSans-30"/>
      </g>
     </g>
    </g>
    <g id="ytick_3">
     <g id="line2d_9">
      <g>
       <use style="stroke:#000000;stroke-width:0.8;" x="57.6" xlink:href="#md11ecde062" y="203.53006"/>
      </g>
     </g>
     <g id="text_9">
      <!-- 600 -->
      <g transform="translate(31.5125 207.329278)scale(0.1 -0.1)">
       <use xlink:href="#DejaVuSans-36"/>
       <use x="63.623047" xlink:href="#DejaVuSans-30"/>
       <use x="127.246094" xlink:href="#DejaVuSans-30"/>
      </g>
     </g>
    </g>
    <g id="ytick_4">
     <g id="line2d_10">
      <g>
       <use style="stroke:#000000;stroke-width:0.8;" x="57.6" xlink:href="#md11ecde062" y="164.535366"/>
      </g>
     </g>
     <g id="text_10">
      <!-- 800 -->
      <g transform="translate(31.5125 168.334585)scale(0.1 -0.1)">
       <use xlink:href="#DejaVuSans-38"/>
       <use x="63.623047" xlink:href="#DejaVuSans-30"/>
       <use x="127.246094" xlink:href="#DejaVuSans-30"/>
      </g>
     </g>
    </g>
    <g id="ytick_5">
     <g id="line2d_11">
      <g>
       <use style="stroke:#000000;stroke-width:0.8;" x="57.6" xlink:href="#md11ecde062" y="125.540673"/>
      </g>
     </g>
     <g id="text_11">
      <!-- 1000 -->
      <g transform="translate(25.15 129.339892)scale(0.1 -0.1)">
       <use xlink:href="#DejaVuSans-31"/>
       <use x="63.623047" xlink:href="#DejaVuSans-30"/>
       <use x="127.246094" xlink:href="#DejaVuSans-30"/>
       <use x="190.869141" xlink:href="#DejaVuSans-30"/>
      </g>
     </g>
    </g>
    <g id="ytick_6">
     <g id="line2d_12">
      <g>
       <use style="stroke:#000000;stroke-width:0.8;" x="57.6" xlink:href="#md11ecde062" y="86.54598"/>
      </g>
     </g>
     <g id="text_12">
      <!-- 1200 -->
      <g transform="translate(25.15 90.345198)scale(0.1 -0.1)">
       <use xlink:href="#DejaVuSans-31"/>
       <use x="63.623047" xlink:href="#DejaVuSans-32"/>
       <use x="127.246094" xlink:href="#DejaVuSans-30"/>
       <use x="190.869141" xlink:href="#DejaVuSans-30"/>
      </g>
     </g>
    </g>
    <g id="ytick_7">
     <g id="line2d_13">
      <g>
       <use style="stroke:#000000;stroke-width:0.8;" x="57.6" xlink:href="#md11ecde062" y="47.551286"/>
      </g>
     </g>
     <g id="text_13">
      <!-- 1400 -->
      <g transform="translate(25.15 51.350505)scale(0.1 -0.1)">
       <use xlink:href="#DejaVuSans-31"/>
       <use x="63.623047" xlink:href="#DejaVuSans-34"/>
       <use x="127.246094" xlink:href="#DejaVuSans-30"/>
       <use x="190.869141" xlink:href="#DejaVuSans-30"/>
      </g>
     </g>
    </g>
   </g>
   <g id="line2d_14">
    <path clip-path="url(#pfac8734366)" d="M 73.832727 294.829648 
L 74.157707 275.209591 
L 74.807666 266.597451 
L 75.132645 263.131364 
L 75.457625 264.026372 
L 75.782604 260.730717 
L 76.107584 260.444392 
L 76.432563 259.255268 
L 76.757543 254.453 
L 77.082523 255.7288 
L 77.407502 253.305753 
L 77.732482 256.230355 
L 78.057461 250.54087 
L 78.382441 248.699237 
L 78.70742 245.644134 
L 79.357379 242.036832 
L 79.682359 241.687205 
L 80.007338 241.631693 
L 80.332318 242.346531 
L 80.657297 240.423091 
L 80.982277 241.124294 
L 81.307256 244.007019 
L 81.632236 239.333304 
L 81.957215 241.293752 
L 82.282195 233.790877 
L 82.607174 235.109528 
L 82.932154 234.484289 
L 83.582113 221.441908 
L 83.907093 223.542596 
L 84.232072 216.353315 
L 84.557052 218.886411 
L 85.207011 227.073934 
L 85.53199 226.421425 
L 85.85697 226.429216 
L 86.181949 224.521359 
L 86.506929 221.102993 
L 86.831908 211.59195 
L 87.156888 205.582053 
L 87.481867 208.827066 
L 87.806847 208.302138 
L 88.131826 214.912926 
L 88.456806 214.756129 
L 89.106765 211.071891 
L 89.756724 218.889333 
L 90.081704 214.044213 
L 90.406683 213.225169 
L 90.731663 214.159133 
L 91.056642 218.60593 
L 91.381622 215.53914 
L 91.706601 214.388972 
L 92.031581 206.876358 
L 92.35656 210.78654 
L 92.68154 212.724588 
L 93.006519 210.978397 
L 93.331499 206.87441 
L 93.656478 213.894234 
L 93.981458 226.064006 
L 94.306437 220.3268 
L 94.631417 226.43019 
L 94.956396 219.513599 
L 95.281376 217.329156 
L 95.606355 224.850535 
L 95.931335 224.774571 
L 96.256314 208.036265 
L 96.581294 211.427362 
L 96.906274 207.440242 
L 97.556233 203.406375 
L 97.881212 197.104311 
L 98.206192 197.962311 
L 98.531171 197.614631 
L 98.856151 200.41847 
L 99.18113 202.089671 
L 99.50611 198.256427 
L 99.831089 199.448472 
L 100.156069 193.175625 
L 100.481048 194.105693 
L 100.806028 183.492202 
L 101.131007 178.074433 
L 101.455987 170.784841 
L 102.105946 165.247282 
L 102.430925 175.494589 
L 102.755905 161.763666 
L 103.080885 163.75333 
L 103.405864 174.617111 
L 103.730844 180.819839 
L 104.055823 168.213762 
L 104.380803 170.994228 
L 104.705782 168.035539 
L 105.030762 178.694803 
L 105.355741 169.40386 
L 105.680721 169.242193 
L 106.0057 173.22347 
L 106.33068 179.726156 
L 106.655659 175.625091 
L 106.980639 182.161864 
L 107.305618 173.198149 
L 107.630598 178.30135 
L 107.955577 172.389817 
L 108.280557 164.416551 
L 108.605536 167.234999 
L 109.255495 176.841484 
L 109.580475 175.418626 
L 109.905455 163.725087 
L 110.230434 168.094947 
L 110.555414 187.687735 
L 110.880393 186.392457 
L 111.530352 174.02888 
L 111.855332 175.216056 
L 112.180311 177.969252 
L 112.505291 183.418186 
L 112.83027 183.56427 
L 113.15525 184.958886 
L 113.480229 163.173863 
L 113.805209 170.802371 
L 114.130188 171.663292 
L 114.455168 170.266729 
L 114.780147 192.870796 
L 115.105127 178.791219 
L 115.430106 188.938214 
L 115.755086 191.699202 
L 116.080066 187.963347 
L 116.405045 187.882514 
L 116.730025 196.390447 
L 117.055004 193.926496 
L 117.379984 182.729644 
L 117.704963 189.032682 
L 118.029943 183.027655 
L 118.354922 184.735864 
L 118.679902 190.568512 
L 119.004881 190.405872 
L 119.329861 190.400028 
L 119.65484 195.821693 
L 119.97982 197.63703 
L 120.304799 201.435215 
L 120.629779 182.748148 
L 120.954758 170.81211 
L 121.279738 170.098246 
L 121.604717 171.857097 
L 121.929697 165.685535 
L 122.254676 164.605487 
L 122.579656 176.144176 
L 122.904636 176.810319 
L 123.229615 187.980877 
L 123.554595 179.91217 
L 124.529533 193.569078 
L 124.854513 192.059543 
L 125.179492 192.678939 
L 125.504472 188.116248 
L 125.829451 176.639888 
L 126.154431 193.533044 
L 126.47941 171.270813 
L 126.80439 182.499805 
L 127.129369 178.084172 
L 127.454349 191.389504 
L 127.779328 180.520853 
L 128.104308 182.82119 
L 128.429287 172.034346 
L 128.754267 187.314734 
L 129.079247 184.797219 
L 129.404226 178.22636 
L 129.729206 174.388246 
L 130.054185 184.701778 
L 130.379165 173.380267 
L 130.704144 181.908651 
L 131.029124 185.341626 
L 131.354103 197.374079 
L 131.679083 202.197773 
L 132.004062 185.142952 
L 132.329042 183.157183 
L 132.654021 175.679629 
L 132.979001 162.615822 
L 133.30398 155.757665 
L 133.62896 155.974843 
L 133.953939 158.319005 
L 134.278919 168.498139 
L 134.603898 167.42296 
L 134.928878 151.932211 
L 135.253857 158.980278 
L 135.578837 154.61334 
L 135.903817 175.944528 
L 136.228796 164.106853 
L 136.878755 155.145086 
L 137.203735 152.593485 
L 137.528714 164.331823 
L 137.853694 159.690246 
L 138.178673 158.384255 
L 138.503653 151.098559 
L 139.153612 160.076882 
L 139.478591 170.515072 
L 139.803571 165.967964 
L 140.12855 163.394937 
L 140.45353 167.354788 
L 140.778509 155.813177 
L 141.103489 158.28784 
L 141.428468 156.230003 
L 141.753448 167.528141 
L 142.078428 164.904472 
L 142.403407 156.026459 
L 142.728387 165.823827 
L 143.053366 169.704793 
L 143.378346 171.497731 
L 143.703325 160.054483 
L 144.028305 164.682424 
L 144.353284 179.232392 
L 144.678264 154.862657 
L 145.003243 153.567378 
L 145.328223 150.478188 
L 145.978182 158.597538 
L 146.303161 160.272635 
L 146.628141 163.130038 
L 146.95312 151.430656 
L 147.2781 151.130697 
L 147.603079 153.138865 
L 147.928059 142.493236 
L 148.253038 142.345204 
L 148.578018 143.982319 
L 148.902998 150.970005 
L 149.227977 150.089605 
L 149.552957 167.102549 
L 149.877936 164.342535 
L 150.202916 160.53169 
L 150.527895 160.108047 
L 150.852875 167.128845 
L 151.502834 139.910471 
L 151.827813 132.541019 
L 152.152793 143.511929 
L 152.477772 132.962715 
L 152.802752 137.826339 
L 153.127731 139.79263 
L 153.452711 135.184166 
L 153.77769 134.415764 
L 154.427649 153.796243 
L 154.752629 141.12589 
L 155.077609 153.29761 
L 155.402588 157.94016 
L 155.727568 155.15872 
L 156.052547 139.332952 
L 156.377527 147.667532 
L 156.702506 159.027999 
L 157.027486 162.377218 
L 157.352465 145.997305 
L 157.677445 143.254821 
L 158.002424 142.990896 
L 158.327404 137.227394 
L 158.652383 139.490723 
L 158.977363 153.366756 
L 159.302342 160.967995 
L 159.627322 165.201509 
L 159.952301 146.258308 
L 160.277281 138.886909 
L 160.60226 146.538789 
L 160.92724 141.348911 
L 161.252219 152.684057 
L 161.577199 131.957657 
L 161.902179 140.726593 
L 162.227158 144.132299 
L 162.552138 135.367258 
L 162.877117 147.33446 
L 163.202097 150.657385 
L 163.527076 144.289096 
L 164.502015 157.079238 
L 164.826994 151.024543 
L 165.151974 155.274614 
L 165.476953 145.745066 
L 165.801933 155.179172 
L 166.126912 153.909215 
L 166.776871 146.034313 
L 167.101851 151.000195 
L 167.42683 150.392486 
L 167.75181 132.924733 
L 168.07679 139.326135 
L 168.401769 134.270654 
L 168.726749 139.903653 
L 169.051728 122.768972 
L 169.376708 121.201004 
L 169.701687 120.472532 
L 170.026667 120.195946 
L 170.351646 121.78047 
L 170.676626 152.052 
L 171.001605 154.904534 
L 171.326585 146.008991 
L 171.651564 146.080086 
L 171.976544 157.4873 
L 172.301523 146.756942 
L 172.626503 150.455789 
L 172.951482 150.655437 
L 173.276462 145.173391 
L 173.601441 145.13054 
L 173.926421 139.487801 
L 174.57638 159.011443 
L 174.90136 159.827565 
L 175.226339 151.118036 
L 175.551319 149.136163 
L 175.876298 148.288876 
L 176.201278 140.230882 
L 176.526257 141.350859 
L 177.176216 128.884049 
L 177.501196 133.972642 
L 177.826175 124.258055 
L 178.151155 118.577335 
L 178.476134 106.679279 
L 178.801114 121.165944 
L 179.126093 121.419156 
L 179.776052 127.237195 
L 180.101032 143.285011 
L 180.426011 144.769225 
L 180.750991 158.725118 
L 181.075971 160.705043 
L 181.40095 154.961994 
L 181.72593 161.933123 
L 182.050909 157.858353 
L 182.375889 155.482053 
L 182.700868 158.707588 
L 183.025848 146.311872 
L 183.675807 148.732971 
L 184.000786 158.654998 
L 184.325766 161.157904 
L 184.650745 164.85383 
L 184.975725 162.435652 
L 185.300704 148.360944 
L 185.625684 146.275838 
L 185.950663 171.912609 
L 186.275643 172.628421 
L 186.600622 165.211248 
L 186.925602 173.194253 
L 187.250581 165.190797 
L 187.575561 168.734795 
L 187.900541 168.113451 
L 188.22552 180.216999 
L 188.5505 158.986122 
L 188.875479 175.754619 
L 189.200459 162.323654 
L 189.525438 161.132583 
L 189.850418 152.646075 
L 190.500377 163.962717 
L 190.825356 157.218505 
L 191.150336 144.855902 
L 191.475315 144.993221 
L 191.800295 149.612397 
L 192.125274 150.746009 
L 192.450254 153.829356 
L 192.775233 153.969596 
L 193.100213 159.527606 
L 193.425192 138.705765 
L 194.075152 120.042071 
L 194.400131 115.856277 
L 194.725111 120.114139 
L 195.05009 135.678904 
L 195.37507 135.952568 
L 195.700049 127.37841 
L 196.025029 147.107543 
L 196.350008 140.301002 
L 196.674988 136.468731 
L 196.999967 138.14675 
L 197.324947 133.461348 
L 197.649926 137.186491 
L 197.974906 129.157713 
L 198.299885 131.894354 
L 198.624865 104.221172 
L 198.949844 101.004402 
L 199.274824 111.829227 
L 199.599803 107.911254 
L 199.924783 123.260788 
L 200.249762 124.703125 
L 200.899722 116.143575 
L 201.549681 131.836894 
L 201.87466 121.603222 
L 202.19964 106.313095 
L 202.524619 114.601902 
L 202.849599 135.20267 
L 203.174578 139.212189 
L 203.499558 135.612679 
L 203.824537 123.850968 
L 204.149517 142.682171 
L 204.474496 150.84632 
L 204.799476 145.825899 
L 205.124455 149.108894 
L 205.449435 142.173799 
L 205.774414 124.92712 
L 206.099394 129.909559 
L 206.424373 128.303609 
L 206.749353 135.062429 
L 207.074333 138.098055 
L 207.399312 130.354628 
L 207.724292 134.716697 
L 208.049271 136.552486 
L 208.374251 139.701084 
L 208.69923 163.085239 
L 209.02421 149.262769 
L 209.349189 148.093123 
L 209.674169 131.608029 
L 209.999148 151.944872 
L 210.324128 148.386265 
L 210.649107 151.838718 
L 210.974087 143.076598 
L 211.299066 164.50128 
L 211.624046 143.900512 
L 211.949025 158.008333 
L 212.274005 156.469581 
L 212.598984 141.378128 
L 212.923964 133.66684 
L 213.248943 141.627445 
L 213.573923 155.386611 
L 213.898903 145.914524 
L 214.223882 142.232233 
L 214.548862 152.708404 
L 215.198821 126.530149 
L 215.5238 130.442279 
L 215.84878 130.527981 
L 216.173759 129.11194 
L 216.498739 111.147502 
L 216.823718 113.673781 
L 217.148698 108.625118 
L 217.473677 110.624521 
L 217.798657 102.361035 
L 218.123636 121.096797 
L 218.448616 112.036667 
L 219.098575 123.85389 
L 219.423554 119.995324 
L 219.748534 131.050962 
L 221.373432 102.639569 
L 221.698411 115.901076 
L 222.023391 139.992278 
L 222.34837 142.849681 
L 222.67335 135.434456 
L 222.998329 137.441651 
L 223.323309 120.328395 
L 223.648288 124.356419 
L 223.973268 116.665582 
L 224.298247 126.983983 
L 224.623227 128.152655 
L 224.948206 134.949458 
L 225.598165 139.839377 
L 225.923145 131.473632 
L 226.248124 129.641738 
L 226.573104 134.367069 
L 227.223063 138.292834 
L 228.198002 103.682609 
L 228.522981 100.157114 
L 228.847961 114.299021 
L 229.17294 101.393959 
L 229.49792 100.031482 
L 229.822899 93.183063 
L 230.147879 108.71569 
L 230.472858 98.139207 
L 230.797838 95.434705 
L 231.122817 101.150486 
L 231.447797 116.505864 
L 231.772776 121.314949 
L 232.097756 85.851594 
L 232.422735 101.093026 
L 232.747715 97.966828 
L 233.072695 72.488802 
L 233.397674 76.917095 
L 233.722654 85.257519 
L 234.047633 78.81424 
L 234.697592 96.470928 
L 235.022572 96.239141 
L 235.347551 104.182216 
L 235.99751 109.836641 
L 236.32249 105.560275 
L 236.647469 113.005691 
L 236.972449 109.752886 
L 237.297428 111.965572 
L 237.622408 139.878332 
L 237.947387 139.875411 
L 238.272367 152.168867 
L 238.597346 134.999126 
L 238.922326 125.224158 
L 239.247305 137.092023 
L 239.572285 137.907172 
L 239.897265 108.542337 
L 240.222244 122.917004 
L 240.547224 123.472123 
L 240.872203 121.799948 
L 241.197183 120.973113 
L 241.522162 116.643183 
L 241.847142 132.110558 
L 242.172121 142.258528 
L 242.497101 121.878834 
L 242.82208 118.924041 
L 243.14706 135.248443 
L 243.472039 127.78355 
L 243.797019 126.823291 
L 244.121998 129.308667 
L 244.771957 112.804095 
L 245.096937 122.55569 
L 245.421916 104.360438 
L 245.746896 118.932806 
L 246.071876 113.750719 
L 246.396855 121.309106 
L 247.046814 102.152622 
L 247.371794 111.604258 
L 247.696773 127.823479 
L 248.346732 102.746697 
L 248.671712 96.48651 
L 248.996691 112.623924 
L 249.321671 118.689333 
L 249.64665 102.801235 
L 249.97163 111.240022 
L 250.296609 110.557322 
L 250.621589 97.883073 
L 250.946568 106.275113 
L 251.271548 118.339705 
L 251.921507 104.285449 
L 252.246486 107.168173 
L 252.571466 112.47784 
L 252.896446 105.445356 
L 253.221425 111.545824 
L 253.546405 108.53065 
L 253.871384 124.930042 
L 254.196364 124.237604 
L 254.521343 130.615632 
L 254.846323 132.840978 
L 255.171302 120.715031 
L 255.496282 136.357707 
L 255.821261 130.886374 
L 256.47122 106.260505 
L 256.7962 115.31187 
L 257.121179 107.600582 
L 257.446159 95.933339 
L 257.771138 93.152873 
L 258.096118 102.956084 
L 258.421097 96.826399 
L 258.746077 108.169336 
L 259.071057 93.499579 
L 259.396036 87.366972 
L 260.045995 114.189945 
L 260.370975 126.839847 
L 260.695954 89.611796 
L 261.020934 99.519214 
L 261.345913 121.400652 
L 261.995872 116.126045 
L 262.320852 119.266851 
L 262.645831 117.559616 
L 263.29579 136.761873 
L 263.945749 120.865011 
L 264.270729 123.139052 
L 264.595708 132.834161 
L 264.920688 98.33009 
L 265.245667 104.418872 
L 265.570647 106.850684 
L 265.895627 130.076095 
L 266.220606 124.831679 
L 266.545586 106.738686 
L 266.870565 108.756593 
L 267.195545 100.734633 
L 267.520524 109.509413 
L 267.845504 114.137355 
L 268.170483 108.07292 
L 268.820442 80.998683 
L 269.145422 100.599262 
L 269.470401 108.772176 
L 269.795381 82.499452 
L 270.12036 106.08423 
L 270.44534 100.034404 
L 270.770319 122.262548 
L 271.420278 83.111058 
L 271.745258 83.646699 
L 272.070238 80.872076 
L 272.395217 94.818231 
L 272.720197 97.319189 
L 273.045176 76.408723 
L 273.695135 120.360534 
L 274.020115 105.05872 
L 274.345094 100.6538 
L 274.670074 134.446929 
L 274.995053 133.088347 
L 275.320033 134.417712 
L 275.645012 115.979961 
L 275.969992 107.04741 
L 276.294971 108.349506 
L 276.619951 116.079298 
L 276.94493 119.829762 
L 277.26991 135.423744 
L 277.594889 125.610793 
L 277.919869 124.071068 
L 278.244848 132.284885 
L 278.569828 125.849397 
L 278.894808 107.429177 
L 279.544767 142.116339 
L 280.519705 125.756877 
L 280.844685 110.856308 
L 281.169664 120.215424 
L 281.494644 115.689741 
L 281.819623 108.67576 
L 282.144603 118.155639 
L 282.469582 97.885995 
L 282.794562 109.703218 
L 283.119541 99.161795 
L 283.444521 92.59191 
L 283.7695 80.626655 
L 284.09448 80.179638 
L 284.419459 68.843519 
L 284.744439 86.046372 
L 285.069419 97.198426 
L 285.719378 105.234021 
L 286.044357 94.191043 
L 286.369337 99.840599 
L 287.019296 134.804347 
L 287.344275 101.539069 
L 287.669255 105.407374 
L 287.994234 101.971478 
L 288.319214 101.458236 
L 288.644193 112.215863 
L 288.969173 112.877137 
L 289.294152 126.633381 
L 289.619132 115.428737 
L 289.944111 109.607776 
L 290.269091 99.410138 
L 290.59407 121.690872 
L 290.91905 118.833469 
L 291.244029 89.185231 
L 291.569009 101.438758 
L 291.893989 107.021115 
L 292.218968 108.622196 
L 292.543948 123.121522 
L 292.868927 119.731399 
L 293.193907 119.535646 
L 293.518886 123.430246 
L 293.843866 130.309829 
L 294.168845 99.860077 
L 294.493825 128.527604 
L 294.818804 118.494554 
L 295.143784 127.094033 
L 295.468763 107.74277 
L 295.793743 121.086084 
L 296.118722 125.211497 
L 296.443702 132.24106 
L 296.768681 142.743527 
L 297.093661 117.479757 
L 297.41864 119.120767 
L 297.74362 113.863691 
L 298.0686 123.655215 
L 298.393579 93.905692 
L 298.718559 98.79269 
L 299.043538 115.649811 
L 299.368518 114.562946 
L 299.693497 116.202009 
L 300.018477 103.886152 
L 300.343456 110.758918 
L 300.668436 92.295847 
L 300.993415 103.331033 
L 301.318395 101.774751 
L 301.643374 98.196667 
L 301.968354 90.096795 
L 302.293333 86.537215 
L 302.943292 102.481798 
L 303.268272 95.227266 
L 303.918231 90.119195 
L 304.24321 101.682232 
L 304.56819 97.506176 
L 304.89317 104.378942 
L 305.218149 95.191232 
L 305.543129 66.255884 
L 306.193088 67.557005 
L 306.843047 90.50583 
L 307.493006 60.497252 
L 307.817985 64.44639 
L 308.142965 53.568 
L 308.467944 57.75282 
L 308.792924 79.589459 
L 309.117903 74.27687 
L 309.442883 77.828659 
L 309.767862 79.202823 
L 310.092842 75.292641 
L 310.417821 88.820021 
L 310.742801 81.596653 
L 311.067781 82.407906 
L 311.71774 102.236377 
L 312.042719 83.760644 
L 312.367699 93.873554 
L 312.692678 110.864099 
L 313.017658 94.244607 
L 313.342637 97.209139 
L 313.667617 94.584496 
L 313.992596 113.431282 
L 314.317576 99.5981 
L 314.642555 113.775066 
L 314.967535 101.471871 
L 315.617494 108.007669 
L 315.942473 95.149354 
L 316.267453 104.563982 
L 316.592432 96.212846 
L 316.917412 95.406462 
L 317.567371 104.465619 
L 317.892351 98.126547 
L 318.21733 97.688295 
L 318.54231 87.557855 
L 319.192269 86.607335 
L 319.517248 83.414912 
L 319.842228 70.206969 
L 320.167207 74.693697 
L 320.492187 70.535172 
L 320.817166 96.292705 
L 321.142146 91.836169 
L 321.467125 89.129719 
L 321.792105 88.361317 
L 322.117084 102.904468 
L 322.442064 105.454121 
L 322.767043 98.311586 
L 323.092023 84.159941 
L 323.417002 90.762938 
L 323.741982 77.393329 
L 324.391941 94.112158 
L 324.716921 89.018695 
L 325.0419 90.188341 
L 325.36688 93.236628 
L 325.691859 83.411017 
L 326.016839 88.611608 
L 326.341818 86.104806 
L 326.666798 82.693257 
L 326.991777 89.513433 
L 327.641736 96.619933 
L 327.966716 93.570673 
L 328.291695 105.68396 
L 328.616675 102.255855 
L 328.941654 107.631747 
L 329.266634 115.550474 
L 329.591613 132.886751 
L 329.916593 115.689741 
L 330.241572 113.355318 
L 330.566552 115.802713 
L 330.891532 127.177788 
L 331.216511 134.281367 
L 331.541491 130.78022 
L 331.86647 129.333988 
L 332.19145 123.820777 
L 332.516429 138.029882 
L 332.841409 137.195256 
L 333.166388 116.606175 
L 333.491368 125.561125 
L 333.816347 114.195788 
L 334.141327 108.796523 
L 334.466306 135.653582 
L 334.791286 135.663321 
L 335.116265 135.206565 
L 335.441245 125.375111 
L 335.766224 131.886563 
L 336.091204 134.060293 
L 336.416183 139.794577 
L 336.741163 139.621224 
L 337.066143 129.123627 
L 337.391122 128.787634 
L 337.716102 125.177411 
L 338.041081 128.545134 
L 338.366061 136.180459 
L 338.69104 147.628576 
L 339.01602 127.095981 
L 339.340999 134.308636 
L 339.665979 110.632312 
L 339.990958 95.968399 
L 340.315938 118.791591 
L 340.640917 119.392484 
L 340.965897 117.292769 
L 341.290876 116.246808 
L 341.615856 110.990705 
L 341.940835 115.304079 
L 342.265815 115.682924 
L 342.590794 125.691626 
L 342.915774 119.005848 
L 343.240753 105.535928 
L 343.565733 111.776637 
L 343.890713 95.093842 
L 344.215692 110.764762 
L 344.540672 101.191389 
L 344.865651 116.578906 
L 345.84059 92.023156 
L 346.165569 100.083098 
L 346.490549 101.425124 
L 346.815528 101.035566 
L 347.140508 109.708087 
L 347.465487 105.167796 
L 347.790467 87.472152 
L 348.115446 80.598412 
L 348.440426 85.866202 
L 348.765405 78.887282 
L 349.090385 84.702399 
L 349.415364 100.27106 
L 349.740344 107.926836 
L 350.065324 94.399456 
L 350.390303 103.495621 
L 350.715283 120.708214 
L 351.040262 90.234114 
L 351.365242 91.581983 
L 351.690221 95.25843 
L 352.015201 93.991395 
L 352.66516 75.791274 
L 352.990139 89.731585 
L 353.315119 96.537152 
L 353.640098 82.336812 
L 353.965078 74.748235 
L 354.290057 83.678837 
L 354.615037 85.428924 
L 354.940016 88.941758 
L 355.264996 99.607838 
L 355.589975 118.3884 
L 355.914955 115.555344 
L 356.239934 109.922344 
L 356.564914 110.96441 
L 356.889894 122.415449 
L 357.539853 134.943614 
L 358.514791 111.755211 
L 358.839771 114.980746 
L 359.16475 110.809561 
L 359.48973 97.600644 
L 359.814709 101.933496 
L 360.139689 97.483777 
L 360.464668 80.806826 
L 360.789648 97.996045 
L 361.114627 99.036163 
L 361.439607 93.216176 
L 362.089566 115.258306 
L 362.414545 109.798659 
L 362.739525 109.0809 
L 363.064505 108.850087 
L 363.389484 108.34561 
L 364.039443 121.598352 
L 364.364423 122.846884 
L 364.689402 125.645854 
L 365.014382 146.611831 
L 365.339361 142.043297 
L 365.664341 140.679847 
L 365.98932 134.916345 
L 366.3143 136.594364 
L 366.639279 148.009369 
L 366.964259 143.6249 
L 367.614218 129.876447 
L 367.939197 133.463296 
L 368.264177 144.458553 
L 368.589156 148.213886 
L 368.914136 156.680916 
L 369.239115 154.156584 
L 369.564095 147.986969 
L 369.889075 146.087877 
L 370.214054 148.396004 
L 370.539034 147.650002 
L 370.864013 152.681135 
L 371.188993 138.535333 
L 371.513972 143.882982 
L 371.838952 141.918639 
L 372.163931 126.202921 
L 372.81389 148.504106 
L 373.13887 127.260569 
L 373.463849 125.021588 
L 374.113808 129.598887 
L 374.763767 141.767686 
L 375.088747 132.697816 
L 375.413726 138.376589 
L 375.738706 132.277094 
L 376.063686 133.798315 
L 376.388665 120.567973 
L 376.713645 118.397165 
L 377.038624 106.174802 
L 377.363604 103.868622 
L 377.688583 115.11417 
L 378.013563 115.834851 
L 378.338542 116.177661 
L 378.663522 110.637182 
L 378.988501 101.258588 
L 379.313481 111.220544 
L 379.96344 104.78603 
L 380.288419 117.231414 
L 380.613399 102.754488 
L 381.263358 111.632501 
L 381.913317 103.216114 
L 382.238296 93.087622 
L 382.563276 95.887566 
L 382.888256 97.348406 
L 383.213235 96.619933 
L 383.538215 91.015177 
L 383.863194 92.295847 
L 384.188174 92.058217 
L 384.513153 91.557635 
L 384.838133 86.840095 
L 385.163112 112.392138 
L 385.488092 112.791434 
L 386.138051 111.301377 
L 386.46303 97.438004 
L 386.78801 108.8832 
L 387.112989 114.090608 
L 387.437969 103.343694 
L 387.762948 132.27612 
L 388.087928 122.672557 
L 388.412907 125.405302 
L 388.737887 119.648618 
L 389.062867 106.333547 
L 389.387846 104.973017 
L 389.712826 92.678587 
L 390.037805 104.467567 
L 390.362785 105.228178 
L 390.687764 107.8051 
L 391.012744 108.268673 
L 391.337723 117.507026 
L 391.662703 112.509005 
L 391.987682 120.367351 
L 392.312662 111.647109 
L 392.637641 121.077319 
L 392.962621 114.512304 
L 393.2876 129.989418 
L 393.61258 128.173107 
L 393.937559 117.174928 
L 394.262539 121.873964 
L 394.587518 104.736361 
L 394.912498 99.304958 
L 395.237477 118.625056 
L 395.562457 115.145334 
L 395.887437 117.158372 
L 396.212416 124.786879 
L 396.537396 135.033212 
L 396.862375 141.377154 
L 397.187355 137.839973 
L 397.512334 127.349193 
L 397.837314 121.517519 
L 398.162293 138.413597 
L 398.487273 165.65437 
L 398.487273 165.65437 
" style="fill:none;stroke:#0000ff;stroke-linecap:square;stroke-width:1.5;"/>
   </g>
   <g id="line2d_15">
    <path clip-path="url(#pfac8734366)" d="M 73.832727 294.829648 
L 74.157707 274.764521 
L 75.132645 263.490731 
L 75.457625 265.099603 
L 75.782604 262.30745 
L 76.107584 255.643098 
L 76.757543 234.717049 
L 77.082523 233.439301 
L 77.407502 235.211787 
L 77.732482 228.49874 
L 78.057461 230.128063 
L 78.382441 226.28508 
L 78.70742 227.045691 
L 79.0324 220.923797 
L 79.357379 222.338864 
L 79.682359 225.431949 
L 80.007338 279.600876 
L 80.332318 267.763202 
L 80.657297 261.761096 
L 80.982277 260.441471 
L 81.307256 256.056029 
L 81.632236 258.469336 
L 81.957215 258.796565 
L 82.282195 260.612876 
L 82.607174 256.792292 
L 82.932154 256.311189 
L 83.257133 256.71438 
L 83.907093 253.504428 
L 84.232072 249.870831 
L 84.557052 248.213265 
L 84.882031 251.635526 
L 85.207011 248.301889 
L 85.53199 247.555887 
L 85.85697 248.304811 
L 86.181949 249.575742 
L 86.506929 248.232742 
L 86.831908 248.412913 
L 87.156888 244.388785 
L 87.481867 243.213296 
L 87.806847 244.394628 
L 88.456806 239.371286 
L 88.781785 239.823173 
L 89.106765 279.789812 
L 89.431744 249.44037 
L 90.081704 224.074342 
L 90.406683 218.681894 
L 90.731663 222.969947 
L 91.056642 221.586044 
L 91.706601 215.428116 
L 92.031581 217.484005 
L 92.35656 225.470905 
L 92.68154 215.922854 
L 93.006519 218.417969 
L 93.331499 218.343953 
L 93.656478 213.794897 
L 93.981458 223.935075 
L 94.306437 222.970921 
L 94.631417 221.299719 
L 94.956396 220.678375 
L 95.281376 212.442159 
L 95.606355 211.564681 
L 95.931335 216.381558 
L 96.256314 216.372792 
L 96.581294 215.096992 
L 96.906274 214.359755 
L 97.231253 212.46748 
L 97.556233 218.07808 
L 97.881212 221.296798 
L 98.206192 222.001897 
L 98.531171 221.112732 
L 98.856151 220.747522 
L 99.50611 216.006609 
L 99.831089 259.484133 
L 100.156069 236.554786 
L 100.481048 232.157657 
L 100.806028 233.297113 
L 101.131007 228.272796 
L 101.455987 235.064729 
L 101.780966 231.278232 
L 102.105946 231.947296 
L 102.430925 226.153604 
L 102.755905 222.569676 
L 103.080885 225.50207 
L 103.405864 223.806521 
L 103.730844 223.932153 
L 104.055823 227.153793 
L 104.380803 217.424597 
L 104.705782 217.042831 
L 105.030762 219.348037 
L 105.355741 226.772027 
L 105.680721 229.514511 
L 106.0057 221.942489 
L 106.33068 225.903314 
L 106.655659 227.069064 
L 106.980639 233.110125 
L 107.630598 227.138211 
L 107.955577 227.841362 
L 108.280557 231.155521 
L 108.605536 269.275658 
L 108.930516 226.541214 
L 109.580475 220.263497 
L 109.905455 207.429529 
L 110.230434 208.061586 
L 110.555414 211.920152 
L 110.880393 206.460505 
L 111.205373 205.242164 
L 111.530352 203.176536 
L 111.855332 206.245275 
L 112.180311 201.519944 
L 112.505291 204.853581 
L 112.83027 211.374771 
L 113.15525 208.859205 
L 113.480229 201.252123 
L 113.805209 203.359628 
L 114.130188 208.636183 
L 114.455168 264.831782 
L 114.780147 248.612561 
L 115.105127 222.004818 
L 115.430106 220.712462 
L 115.755086 221.386396 
L 116.080066 218.048863 
L 116.405045 217.817076 
L 116.730025 218.832847 
L 117.055004 217.236636 
L 117.379984 213.828983 
L 117.704963 257.480835 
L 118.029943 227.556985 
L 118.679902 209.767847 
L 119.004881 212.833664 
L 119.329861 207.870703 
L 119.65484 208.021656 
L 119.97982 204.020902 
L 120.304799 205.304494 
L 120.629779 203.562198 
L 120.954758 198.346999 
L 121.279738 268.236514 
L 121.929697 239.398555 
L 122.579656 230.193314 
L 122.904636 230.101768 
L 123.229615 224.580766 
L 123.554595 228.086783 
L 123.879574 228.298118 
L 124.204554 231.690189 
L 124.529533 229.735584 
L 124.854513 234.576809 
L 125.179492 232.585197 
L 125.504472 234.994609 
L 125.829451 230.112481 
L 126.47941 233.679853 
L 126.80439 266.824368 
L 127.129369 226.486676 
L 127.779328 211.055334 
L 128.104308 201.29887 
L 128.429287 202.420795 
L 128.754267 201.930927 
L 129.079247 196.885185 
L 129.404226 200.896652 
L 129.729206 199.931523 
L 130.054185 198.475553 
L 130.379165 198.758956 
L 130.704144 193.918705 
L 131.029124 195.479857 
L 131.354103 193.512592 
L 131.679083 206.427393 
L 132.004062 210.809913 
L 132.329042 208.329407 
L 132.979001 199.123192 
L 133.30398 197.375053 
L 133.62896 256.174844 
L 134.278919 221.774979 
L 134.603898 227.095359 
L 134.928878 222.392428 
L 135.253857 227.996211 
L 135.578837 218.87862 
L 135.903817 216.816888 
L 136.228796 217.406093 
L 136.553776 227.918299 
L 136.878755 225.26444 
L 137.203735 221.328936 
L 137.528714 277.34047 
L 137.853694 228.135477 
L 138.503653 201.37386 
L 138.828632 204.910067 
L 139.153612 203.462861 
L 139.478591 199.268302 
L 139.803571 202.461699 
L 140.12855 195.766181 
L 140.45353 200.723299 
L 140.778509 197.507503 
L 141.103489 271.833102 
L 141.428468 258.565752 
L 142.078428 227.40311 
L 142.403407 226.58017 
L 142.728387 216.70489 
L 143.053366 217.972899 
L 143.378346 216.803253 
L 143.703325 220.772843 
L 144.028305 218.428682 
L 144.353284 264.686672 
L 144.678264 215.007394 
L 145.328223 209.596442 
L 145.653202 209.508792 
L 145.978182 206.490696 
L 146.303161 206.310525 
L 146.628141 204.187438 
L 146.95312 203.567068 
L 147.2781 202.226016 
L 147.603079 197.957441 
L 147.928059 191.664142 
L 148.253038 191.975788 
L 148.578018 188.714219 
L 148.902998 189.517681 
L 149.227977 183.273076 
L 149.552957 184.483626 
L 149.877936 199.363744 
L 150.527895 183.708407 
L 150.852875 179.245053 
L 151.177854 184.488495 
L 151.502834 252.66201 
L 151.827813 233.860997 
L 152.152793 229.349923 
L 152.477772 221.797379 
L 153.127731 227.672878 
L 153.452711 221.987288 
L 153.77769 226.001677 
L 154.10267 228.414985 
L 154.427649 227.630027 
L 154.752629 222.937808 
L 155.077609 223.094605 
L 155.727568 232.129414 
L 156.052547 231.371725 
L 156.377527 236.933631 
L 156.702506 236.123351 
L 157.027486 239.916666 
L 157.352465 235.515642 
L 157.677445 278.045568 
L 158.002424 248.516145 
L 158.327404 230.720191 
L 158.652383 231.339587 
L 158.977363 229.763827 
L 159.302342 224.417152 
L 159.627322 216.404931 
L 159.952301 227.259947 
L 160.277281 215.743657 
L 160.60226 222.361263 
L 160.92724 221.1848 
L 161.252219 222.22297 
L 161.577199 218.064445 
L 161.902179 218.844534 
L 162.227158 214.390919 
L 162.552138 216.591919 
L 162.877117 204.495188 
L 163.202097 207.747018 
L 163.527076 194.353062 
L 163.852056 195.614254 
L 164.177035 195.228592 
L 164.502015 186.044777 
L 164.826994 261.450424 
L 165.801933 211.610454 
L 166.126912 211.988324 
L 166.451892 210.960867 
L 166.776871 211.311468 
L 167.101851 211.276408 
L 167.42683 215.22165 
L 167.75181 208.646896 
L 168.07679 218.955558 
L 168.401769 220.869259 
L 168.726749 263.47807 
L 169.051728 227.877396 
L 169.701687 207.127622 
L 170.026667 205.573288 
L 170.351646 207.196769 
L 170.676626 206.297865 
L 171.001605 202.968123 
L 171.326585 192.512403 
L 171.651564 192.79678 
L 171.976544 176.103273 
L 172.301523 183.882733 
L 172.626503 181.016565 
L 172.951482 188.625594 
L 173.276462 184.967651 
L 173.601441 267.972589 
L 173.926421 262.796345 
L 174.2514 261.655916 
L 174.57638 262.498334 
L 175.226339 261.440685 
L 175.551319 263.552086 
L 175.876298 260.435627 
L 176.201278 261.077423 
L 176.526257 258.483945 
L 176.851237 259.54841 
L 177.176216 258.23268 
L 177.501196 260.188258 
L 177.826175 260.717083 
L 178.151155 257.04453 
L 178.476134 256.472855 
L 178.801114 256.530315 
L 179.126093 255.863198 
L 179.451073 257.573354 
L 179.776052 254.339054 
L 180.101032 257.648344 
L 180.426011 257.644449 
L 180.750991 257.178928 
L 181.075971 249.365381 
L 181.40095 250.821351 
L 181.72593 243.886256 
L 182.050909 245.801904 
L 182.700868 243.018517 
L 183.025848 295.488 
L 183.350827 258.508292 
L 183.675807 244.846515 
L 184.000786 242.678628 
L 184.325766 234.776457 
L 184.650745 217.49277 
L 184.975725 212.709979 
L 185.300704 215.39403 
L 185.625684 213.332297 
L 185.950663 213.287498 
L 186.275643 206.330003 
L 186.600622 208.379075 
L 186.925602 214.544795 
L 187.250581 211.46437 
L 187.575561 213.467668 
L 187.900541 209.76103 
L 188.22552 204.632507 
L 188.5505 278.28612 
L 188.875479 262.190583 
L 189.850418 246.200227 
L 190.175397 239.375182 
L 190.500377 241.417436 
L 191.150336 238.819089 
L 191.475315 242.895806 
L 191.800295 238.323377 
L 192.125274 230.188445 
L 192.450254 273.377697 
L 192.775233 229.455103 
L 193.100213 221.51008 
L 193.425192 221.163374 
L 193.750172 218.757858 
L 194.075152 213.521233 
L 194.400131 222.431384 
L 194.725111 222.345681 
L 195.05009 213.78321 
L 195.37507 208.75305 
L 195.700049 206.853958 
L 196.025029 207.541527 
L 196.350008 195.036735 
L 196.999967 200.860618 
L 197.324947 196.484915 
L 197.649926 197.210465 
L 197.974906 204.591604 
L 198.299885 199.079367 
L 198.624865 200.6785 
L 198.949844 204.626664 
L 199.599803 195.575298 
L 199.924783 209.962626 
L 200.574742 189.998784 
L 200.899722 281.87297 
L 201.224701 268.260861 
L 201.87466 260.332395 
L 202.19964 251.484573 
L 202.849599 245.706463 
L 203.499558 229.591448 
L 203.824537 230.977299 
L 204.149517 208.494968 
L 204.474496 216.238395 
L 204.799476 215.140817 
L 205.124455 212.307761 
L 205.449435 220.793295 
L 206.099394 203.099599 
L 206.424373 198.580733 
L 206.749353 198.570994 
L 207.399312 199.059889 
L 207.724292 206.130355 
L 208.049271 201.799451 
L 208.374251 203.850471 
L 208.69923 193.741457 
L 209.02421 195.023101 
L 209.349189 192.904882 
L 209.999148 197.379923 
L 210.324128 203.813463 
L 210.649107 200.460348 
L 210.974087 193.980061 
L 211.299066 175.650412 
L 211.949025 187.641962 
L 212.274005 183.059793 
L 212.598984 184.872209 
L 212.923964 178.259473 
L 213.248943 182.551421 
L 213.573923 170.388466 
L 213.898903 252.498396 
L 214.223882 206.351429 
L 214.548862 193.895332 
L 215.198821 181.81321 
L 215.5238 188.974248 
L 215.84878 177.68098 
L 216.173759 195.15555 
L 216.498739 198.120082 
L 216.823718 195.728199 
L 217.148698 191.615447 
L 217.473677 191.073963 
L 217.798657 192.844501 
L 218.123636 188.301288 
L 218.448616 187.153068 
L 218.773595 247.363056 
L 219.098575 182.972143 
L 219.423554 187.055678 
L 219.748534 181.314576 
L 220.073514 196.667033 
L 220.398493 197.42667 
L 220.723473 207.247411 
L 221.048452 204.198151 
L 221.373432 205.733007 
L 221.698411 208.230069 
L 222.023391 195.867466 
L 222.34837 189.312189 
L 222.67335 190.319195 
L 222.998329 197.148136 
L 223.323309 275.74718 
L 223.973268 255.317817 
L 224.298247 253.870612 
L 224.623227 248.258064 
L 224.948206 245.897346 
L 225.273186 245.148422 
L 225.598165 243.009752 
L 225.923145 242.969822 
L 226.248124 240.468864 
L 226.573104 235.085181 
L 226.898084 227.805328 
L 227.223063 226.055241 
L 227.548043 220.615072 
L 227.873022 222.702126 
L 228.198002 223.122848 
L 228.522981 217.831685 
L 228.847961 214.764894 
L 229.17294 212.849246 
L 229.49792 215.364813 
L 229.822899 215.203146 
L 230.147879 216.186779 
L 230.472858 216.129319 
L 230.797838 265.722895 
L 231.122817 183.963567 
L 231.447797 176.604828 
L 231.772776 192.551359 
L 232.097756 190.593833 
L 232.422735 177.116122 
L 232.747715 171.882418 
L 233.072695 169.923919 
L 233.397674 171.351647 
L 233.722654 183.750284 
L 234.047633 178.369523 
L 234.372613 165.163528 
L 234.697592 170.49949 
L 235.022572 181.99338 
L 235.347551 169.538257 
L 235.672531 169.490536 
L 235.99751 169.830425 
L 236.32249 162.644065 
L 236.647469 171.523052 
L 236.972449 169.352243 
L 237.297428 176.11009 
L 237.622408 231.545078 
L 237.947387 195.502256 
L 238.272367 186.112949 
L 238.597346 189.363806 
L 238.922326 188.219481 
L 239.247305 184.768976 
L 239.572285 186.945628 
L 239.897265 180.155643 
L 240.222244 176.594115 
L 240.547224 191.632977 
L 240.872203 267.564527 
L 241.197183 201.305687 
L 241.522162 197.926277 
L 241.847142 199.385169 
L 242.172121 190.149738 
L 242.497101 193.260353 
L 242.82208 197.586388 
L 243.14706 199.377378 
L 243.472039 182.910788 
L 243.797019 191.918328 
L 244.121998 191.26095 
L 244.446978 171.010784 
L 244.771957 184.086277 
L 245.096937 173.454282 
L 245.421916 182.267044 
L 246.071876 168.804915 
L 246.396855 184.113546 
L 246.721835 165.245335 
L 247.046814 267.193474 
L 247.371794 230.793233 
L 247.696773 222.815098 
L 248.021753 223.21342 
L 248.346732 222.000923 
L 248.671712 208.708251 
L 248.996691 207.951536 
L 249.321671 211.350424 
L 249.64665 209.999634 
L 249.97163 212.709979 
L 250.296609 204.672437 
L 250.621589 211.80718 
L 250.946568 212.3399 
L 251.271548 211.149802 
L 251.596527 194.298524 
L 251.921507 187.525095 
L 252.246486 191.548249 
L 252.571466 186.655408 
L 252.896446 185.531535 
L 253.221425 192.568889 
L 253.546405 193.484349 
L 253.871384 187.087817 
L 254.196364 258.354417 
L 254.521343 216.72729 
L 255.171302 193.904097 
L 255.496282 196.004785 
L 255.821261 187.601059 
L 256.47122 193.840794 
L 256.7962 178.825305 
L 257.121179 174.507061 
L 257.446159 188.251619 
L 257.771138 167.986845 
L 258.096118 162.71029 
L 258.746077 189.205061 
L 259.721016 149.617267 
L 260.045995 156.8046 
L 260.370975 175.938685 
L 260.695954 164.513941 
L 261.020934 158.786473 
L 261.345913 158.676423 
L 261.670893 141.69367 
L 261.995872 143.872269 
L 262.320852 141.991681 
L 262.645831 138.457422 
L 262.970811 147.725966 
L 263.29579 143.257742 
L 263.62077 147.947039 
L 263.945749 148.585913 
L 264.270729 164.131201 
L 264.595708 156.853295 
L 264.920688 264.470468 
L 265.570647 193.269118 
L 265.895627 186.223973 
L 266.220606 192.02643 
L 266.545586 187.503669 
L 266.870565 185.57536 
L 267.195545 195.205219 
L 267.520524 188.805765 
L 268.170483 198.979056 
L 268.820442 197.210465 
L 269.145422 223.7812 
L 269.470401 148.735893 
L 269.795381 147.26921 
L 270.12036 162.698603 
L 270.44534 161.946758 
L 270.770319 160.517082 
L 271.095299 180.296858 
L 271.420278 173.875978 
L 271.745258 182.54363 
L 272.070238 152.230223 
L 272.395217 132.288781 
L 272.720197 140.596092 
L 273.045176 230.615984 
L 273.370156 193.978113 
L 273.695135 188.802843 
L 274.020115 193.512592 
L 274.345094 195.847988 
L 274.670074 195.528551 
L 274.995053 197.36434 
L 275.320033 202.345805 
L 275.645012 197.295194 
L 275.969992 196.004785 
L 276.294971 193.377221 
L 276.619951 189.077481 
L 276.94493 191.870607 
L 277.26991 199.895489 
L 277.594889 196.263841 
L 277.919869 186.126584 
L 278.244848 205.948237 
L 278.569828 165.670926 
L 278.894808 160.396319 
L 279.219787 172.159004 
L 279.544767 165.006731 
L 279.869746 162.694708 
L 280.194726 178.920746 
L 280.519705 170.470273 
L 280.844685 170.049551 
L 281.169664 175.255011 
L 281.494644 166.599047 
L 281.819623 179.997873 
L 282.144603 168.967555 
L 282.469582 172.789113 
L 282.794562 242.249141 
L 283.119541 201.91924 
L 283.444521 187.307917 
L 283.7695 181.659335 
L 284.09448 164.255859 
L 284.419459 165.941668 
L 284.744439 169.838216 
L 285.069419 178.490285 
L 285.394398 178.789271 
L 285.719378 170.273547 
L 286.044357 174.882984 
L 286.369337 219.711299 
L 287.019296 146.468669 
L 287.344275 154.376684 
L 287.994234 181.902808 
L 288.319214 171.821063 
L 288.644193 170.240434 
L 288.969173 181.560971 
L 289.294152 170.149862 
L 289.619132 162.971293 
L 289.944111 169.302575 
L 290.269091 140.427608 
L 290.91905 165.393366 
L 291.244029 166.018606 
L 291.569009 169.818738 
L 291.893989 170.471247 
L 292.218968 167.738502 
L 292.543948 154.020239 
L 292.868927 169.153569 
L 293.193907 173.093942 
L 293.518886 267.126275 
L 293.843866 247.445837 
L 294.168845 212.501566 
L 294.493825 209.011132 
L 294.818804 210.452494 
L 295.468763 221.019238 
L 295.793743 215.717362 
L 296.118722 215.148608 
L 296.443702 215.109653 
L 296.768681 208.451143 
L 297.093661 211.218948 
L 297.41864 218.486141 
L 297.74362 215.597573 
L 298.0686 223.437416 
L 298.393579 222.153824 
L 298.718559 226.876233 
L 299.368518 218.014777 
L 299.693497 217.419728 
L 300.018477 243.427552 
L 300.343456 172.659585 
L 300.668436 173.781511 
L 300.993415 155.884271 
L 301.318395 164.805135 
L 301.643374 165.408949 
L 301.968354 172.460911 
L 302.293333 166.303957 
L 302.618313 168.659805 
L 302.943292 175.491668 
L 303.268272 175.963032 
L 303.593251 239.674167 
L 303.918231 201.666028 
L 304.24321 184.231387 
L 304.56819 188.97717 
L 304.89317 178.916851 
L 305.218149 188.430816 
L 305.543129 177.521261 
L 305.868108 182.81632 
L 306.193088 181.203553 
L 306.518067 186.355449 
L 306.843047 179.410615 
L 307.168026 186.222999 
L 307.493006 179.320043 
L 307.817985 178.516581 
L 308.142965 222.377819 
L 308.467944 182.567977 
L 308.792924 187.222214 
L 309.117903 185.552961 
L 309.767862 165.007705 
L 310.092842 167.57294 
L 310.417821 160.662192 
L 310.742801 158.370621 
L 311.067781 140.463642 
L 311.39276 148.738815 
L 311.71774 148.185643 
L 312.042719 155.842394 
L 312.692678 127.433922 
L 313.017658 137.847764 
L 313.342637 132.439734 
L 313.667617 120.626407 
L 313.992596 124.235656 
L 314.317576 119.931047 
L 314.642555 108.722507 
L 314.967535 103.590089 
L 315.942473 163.671523 
L 316.267453 136.634293 
L 316.592432 128.602594 
L 316.917412 260.474583 
L 317.242391 208.741363 
L 317.892351 170.480986 
L 318.21733 176.472378 
L 318.54231 174.418437 
L 318.867289 167.403483 
L 319.517248 180.216999 
L 319.842228 173.526351 
L 320.167207 178.125075 
L 320.492187 179.033718 
L 320.817166 181.448 
L 321.142146 181.543441 
L 321.467125 180.639668 
L 322.117084 186.644695 
L 322.442064 182.774443 
L 322.767043 223.184203 
L 323.417002 139.56766 
L 323.741982 120.050836 
L 324.066962 138.378536 
L 324.391941 146.89913 
L 324.716921 142.343257 
L 325.0419 143.17204 
L 325.36688 143.518746 
L 325.691859 121.894416 
L 326.016839 142.423116 
L 326.341818 154.39324 
L 326.666798 157.419127 
L 326.991777 147.145525 
L 327.316757 129.162583 
L 327.641736 255.504805 
L 327.966716 207.862912 
L 328.291695 185.121526 
L 328.616675 177.462828 
L 328.941654 177.296292 
L 329.266634 167.069437 
L 329.591613 182.496883 
L 329.916593 185.744818 
L 330.241572 175.334871 
L 330.566552 174.104843 
L 330.891532 200.393149 
L 331.216511 138.4769 
L 331.86647 126.983983 
L 332.19145 114.530808 
L 332.841409 132.668599 
L 333.166388 120.326448 
L 333.491368 115.108326 
L 333.816347 113.277407 
L 334.141327 99.7958 
L 334.466306 120.129721 
L 334.791286 260.299282 
L 335.116265 216.352341 
L 335.766224 195.261704 
L 336.091204 199.113453 
L 336.416183 200.577215 
L 336.741163 189.965672 
L 337.066143 189.411526 
L 337.391122 191.965075 
L 337.716102 188.384069 
L 338.041081 172.312879 
L 338.366061 119.256139 
L 338.69104 118.518901 
L 339.01602 128.978517 
L 339.340999 107.432098 
L 339.665979 124.771297 
L 339.990958 132.028751 
L 340.640917 155.85895 
L 340.965897 147.862311 
L 341.615856 121.595431 
L 341.940835 265.741399 
L 342.265815 248.801496 
L 342.590794 223.21342 
L 342.915774 215.785535 
L 343.565733 212.736274 
L 343.890713 203.273926 
L 344.215692 215.395977 
L 344.540672 207.730462 
L 344.865651 206.325134 
L 345.190631 211.433205 
L 345.51561 204.413381 
L 345.84059 237.100167 
L 346.165569 185.59776 
L 346.815528 146.23883 
L 347.140508 150.259062 
L 347.465487 152.603224 
L 347.790467 163.832215 
L 348.115446 165.155736 
L 348.440426 172.390791 
L 348.765405 136.890427 
L 349.090385 126.786283 
L 349.415364 123.742866 
L 349.740344 243.235695 
L 350.065324 209.306222 
L 350.390303 204.373451 
L 350.715283 192.491951 
L 351.040262 194.09498 
L 351.365242 190.837306 
L 351.690221 199.403673 
L 352.015201 199.105662 
L 352.34018 194.841956 
L 352.66516 195.018231 
L 352.990139 189.703695 
L 353.315119 189.864387 
L 353.640098 194.206004 
L 353.965078 192.772433 
L 354.290057 194.674447 
L 354.940016 188.549631 
L 355.264996 185.462389 
L 355.589975 179.381398 
L 355.914955 182.380016 
L 356.239934 133.892783 
L 356.889894 126.722006 
L 357.214873 125.392641 
L 357.539853 141.577776 
L 357.864832 144.050492 
L 358.189812 162.267169 
L 358.514791 137.444573 
L 358.839771 137.990927 
L 359.16475 138.316207 
L 359.48973 132.655938 
L 359.814709 226.768131 
L 360.464668 164.959984 
L 360.789648 161.90975 
L 361.114627 169.109744 
L 361.439607 161.663355 
L 361.764586 166.36239 
L 362.089566 159.795427 
L 362.739525 173.373449 
L 363.064505 174.308387 
L 363.714464 185.41272 
L 364.039443 175.367009 
L 364.364423 244.520261 
L 364.689402 179.85958 
L 365.014382 141.440457 
L 365.339361 128.366912 
L 365.664341 138.850875 
L 365.98932 131.882667 
L 366.3143 128.449693 
L 366.639279 148.03469 
L 366.964259 153.643342 
L 367.289238 154.123472 
L 367.614218 135.618522 
L 367.939197 146.748177 
L 368.264177 142.141661 
L 368.589156 134.933875 
L 368.914136 235.588684 
L 369.239115 192.280617 
L 369.564095 183.765866 
L 369.889075 178.774662 
L 370.214054 168.230318 
L 370.539034 170.822822 
L 370.864013 160.882292 
L 371.188993 179.403798 
L 371.513972 184.320985 
L 371.838952 191.732315 
L 372.163931 258.899797 
L 372.488911 201.070005 
L 373.13887 158.638442 
L 373.463849 158.884837 
L 373.788829 174.682362 
L 374.113808 176.726564 
L 374.438788 177.505679 
L 374.763767 165.263839 
L 375.088747 164.172104 
L 375.413726 170.229721 
L 375.738706 172.716071 
L 376.063686 173.18354 
L 376.388665 185.780852 
L 376.713645 183.430847 
L 377.038624 172.918641 
L 377.363604 177.442376 
L 377.688583 170.359249 
L 378.013563 170.122593 
L 378.338542 284.245374 
L 378.663522 252.322121 
L 378.988501 234.483315 
L 379.313481 208.350832 
L 379.63846 206.499461 
L 379.96344 200.324002 
L 380.288419 189.163184 
L 380.613399 183.917794 
L 380.938378 174.767091 
L 381.263358 177.910819 
L 381.588337 173.497134 
L 381.913317 172.788139 
L 382.888256 162.794045 
L 383.213235 163.537126 
L 383.538215 237.408891 
L 383.863194 181.114928 
L 384.188174 169.08637 
L 384.513153 181.580449 
L 384.838133 180.345552 
L 385.163112 185.253975 
L 385.488092 181.821975 
L 385.813071 184.759238 
L 386.138051 191.399243 
L 386.46303 187.073208 
L 386.78801 179.318095 
L 387.112989 176.994385 
L 387.437969 189.654026 
L 387.762948 192.116029 
L 388.087928 189.694929 
L 388.412907 190.073774 
L 388.737887 194.119327 
L 389.062867 191.853077 
L 389.387846 192.389693 
L 389.712826 192.030326 
L 390.037805 179.9521 
L 390.362785 173.093942 
L 390.687764 187.045939 
L 391.012744 166.703253 
L 391.662703 184.97252 
L 391.987682 186.670016 
L 392.312662 192.082916 
L 392.637641 194.11251 
L 392.962621 210.060989 
L 393.2876 186.503481 
L 393.61258 181.79081 
L 393.937559 182.359564 
L 394.587518 162.4376 
L 394.912498 164.720406 
L 395.237477 164.546079 
L 395.562457 166.056588 
L 395.887437 163.926683 
L 396.212416 163.467005 
L 396.537396 158.449506 
L 396.862375 156.365374 
L 397.187355 165.344672 
L 397.512334 230.792259 
L 397.837314 198.475553 
L 398.162293 181.910599 
L 398.487273 173.465969 
L 398.487273 173.465969 
" style="fill:none;stroke:#ff0000;stroke-linecap:square;stroke-width:1.5;"/>
   </g>
   <g id="patch_3">
    <path d="M 57.6 307.584 
L 57.6 41.472 
" style="fill:none;stroke:#000000;stroke-linecap:square;stroke-linejoin:miter;stroke-width:0.8;"/>
   </g>
   <g id="patch_4">
    <path d="M 414.72 307.584 
L 414.72 41.472 
" style="fill:none;stroke:#000000;stroke-linecap:square;stroke-linejoin:miter;stroke-width:0.8;"/>
   </g>
   <g id="patch_5">
    <path d="M 57.6 307.584 
L 414.72 307.584 
" style="fill:none;stroke:#000000;stroke-linecap:square;stroke-linejoin:miter;stroke-width:0.8;"/>
   </g>
   <g id="patch_6">
    <path d="M 57.6 41.472 
L 414.72 41.472 
" style="fill:none;stroke:#000000;stroke-linecap:square;stroke-linejoin:miter;stroke-width:0.8;"/>
   </g>
   <g id="legend_1">
    <g id="patch_7">
     <path d="M 64.6 78.82825 
L 143.184375 78.82825 
Q 145.184375 78.82825 145.184375 76.82825 
L 145.184375 48.472 
Q 145.184375 46.472 143.184375 46.472 
L 64.6 46.472 
Q 62.6 46.472 62.6 48.472 
L 62.6 76.82825 
Q 62.6 78.82825 64.6 78.82825 
z
" style="fill:#ffffff;opacity:0.8;stroke:#cccccc;stroke-linejoin:miter;"/>
    </g>
    <g id="line2d_16">
     <path d="M 66.6 54.570437 
L 86.6 54.570437 
" style="fill:none;stroke:#0000ff;stroke-linecap:square;stroke-width:1.5;"/>
    </g>
    <g id="line2d_17"/>
    <g id="text_14">
     <!-- Base GA -->
     <defs>
      <path d="M 19.671875 34.8125 
L 19.671875 8.109375 
L 35.5 8.109375 
Q 43.453125 8.109375 47.28125 11.40625 
Q 51.125 14.703125 51.125 21.484375 
Q 51.125 28.328125 47.28125 31.5625 
Q 43.453125 34.8125 35.5 34.8125 
z
M 19.671875 64.796875 
L 19.671875 42.828125 
L 34.28125 42.828125 
Q 41.5 42.828125 45.03125 45.53125 
Q 48.578125 48.25 48.578125 53.8125 
Q 48.578125 59.328125 45.03125 62.0625 
Q 41.5 64.796875 34.28125 64.796875 
z
M 9.8125 72.90625 
L 35.015625 72.90625 
Q 46.296875 72.90625 52.390625 68.21875 
Q 58.5 63.53125 58.5 54.890625 
Q 58.5 48.1875 55.375 44.234375 
Q 52.25 40.28125 46.1875 39.3125 
Q 53.46875 37.75 57.5 32.78125 
Q 61.53125 27.828125 61.53125 20.40625 
Q 61.53125 10.640625 54.890625 5.3125 
Q 48.25 0 35.984375 0 
L 9.8125 0 
z
" id="DejaVuSans-42"/>
      <path d="M 34.28125 27.484375 
Q 23.390625 27.484375 19.1875 25 
Q 14.984375 22.515625 14.984375 16.5 
Q 14.984375 11.71875 18.140625 8.90625 
Q 21.296875 6.109375 26.703125 6.109375 
Q 34.1875 6.109375 38.703125 11.40625 
Q 43.21875 16.703125 43.21875 25.484375 
L 43.21875 27.484375 
z
M 52.203125 31.203125 
L 52.203125 0 
L 43.21875 0 
L 43.21875 8.296875 
Q 40.140625 3.328125 35.546875 0.953125 
Q 30.953125 -1.421875 24.3125 -1.421875 
Q 15.921875 -1.421875 10.953125 3.296875 
Q 6 8.015625 6 15.921875 
Q 6 25.140625 12.171875 29.828125 
Q 18.359375 34.515625 30.609375 34.515625 
L 43.21875 34.515625 
L 43.21875 35.40625 
Q 43.21875 41.609375 39.140625 45 
Q 35.0625 48.390625 27.6875 48.390625 
Q 23 48.390625 18.546875 47.265625 
Q 14.109375 46.140625 10.015625 43.890625 
L 10.015625 52.203125 
Q 14.9375 54.109375 19.578125 55.046875 
Q 24.21875 56 28.609375 56 
Q 40.484375 56 46.34375 49.84375 
Q 52.203125 43.703125 52.203125 31.203125 
z
" id="DejaVuSans-61"/>
      <path d="M 44.28125 53.078125 
L 44.28125 44.578125 
Q 40.484375 46.53125 36.375 47.5 
Q 32.28125 48.484375 27.875 48.484375 
Q 21.1875 48.484375 17.84375 46.4375 
Q 14.5 44.390625 14.5 40.28125 
Q 14.5 37.15625 16.890625 35.375 
Q 19.28125 33.59375 26.515625 31.984375 
L 29.59375 31.296875 
Q 39.15625 29.25 43.1875 25.515625 
Q 47.21875 21.78125 47.21875 15.09375 
Q 47.21875 7.46875 41.1875 3.015625 
Q 35.15625 -1.421875 24.609375 -1.421875 
Q 20.21875 -1.421875 15.453125 -0.5625 
Q 10.6875 0.296875 5.421875 2 
L 5.421875 11.28125 
Q 10.40625 8.6875 15.234375 7.390625 
Q 20.0625 6.109375 24.8125 6.109375 
Q 31.15625 6.109375 34.5625 8.28125 
Q 37.984375 10.453125 37.984375 14.40625 
Q 37.984375 18.0625 35.515625 20.015625 
Q 33.0625 21.96875 24.703125 23.78125 
L 21.578125 24.515625 
Q 13.234375 26.265625 9.515625 29.90625 
Q 5.8125 33.546875 5.8125 39.890625 
Q 5.8125 47.609375 11.28125 51.796875 
Q 16.75 56 26.8125 56 
Q 31.78125 56 36.171875 55.265625 
Q 40.578125 54.546875 44.28125 53.078125 
z
" id="DejaVuSans-73"/>
      <path d="M 56.203125 29.59375 
L 56.203125 25.203125 
L 14.890625 25.203125 
Q 15.484375 15.921875 20.484375 11.0625 
Q 25.484375 6.203125 34.421875 6.203125 
Q 39.59375 6.203125 44.453125 7.46875 
Q 49.3125 8.734375 54.109375 11.28125 
L 54.109375 2.78125 
Q 49.265625 0.734375 44.1875 -0.34375 
Q 39.109375 -1.421875 33.890625 -1.421875 
Q 20.796875 -1.421875 13.15625 6.1875 
Q 5.515625 13.8125 5.515625 26.8125 
Q 5.515625 40.234375 12.765625 48.109375 
Q 20.015625 56 32.328125 56 
Q 43.359375 56 49.78125 48.890625 
Q 56.203125 41.796875 56.203125 29.59375 
z
M 47.21875 32.234375 
Q 47.125 39.59375 43.09375 43.984375 
Q 39.0625 48.390625 32.421875 48.390625 
Q 24.90625 48.390625 20.390625 44.140625 
Q 15.875 39.890625 15.1875 32.171875 
z
" id="DejaVuSans-65"/>
      <path id="DejaVuSans-20"/>
      <path d="M 59.515625 10.40625 
L 59.515625 29.984375 
L 43.40625 29.984375 
L 43.40625 38.09375 
L 69.28125 38.09375 
L 69.28125 6.78125 
Q 63.578125 2.734375 56.6875 0.65625 
Q 49.8125 -1.421875 42 -1.421875 
Q 24.90625 -1.421875 15.25 8.5625 
Q 5.609375 18.5625 5.609375 36.375 
Q 5.609375 54.25 15.25 64.234375 
Q 24.90625 74.21875 42 74.21875 
Q 49.125 74.21875 55.546875 72.453125 
Q 61.96875 70.703125 67.390625 67.28125 
L 67.390625 56.78125 
Q 61.921875 61.421875 55.765625 63.765625 
Q 49.609375 66.109375 42.828125 66.109375 
Q 29.4375 66.109375 22.71875 58.640625 
Q 16.015625 51.171875 16.015625 36.375 
Q 16.015625 21.625 22.71875 14.15625 
Q 29.4375 6.6875 42.828125 6.6875 
Q 48.046875 6.6875 52.140625 7.59375 
Q 56.25 8.5 59.515625 10.40625 
z
" id="DejaVuSans-47"/>
      <path d="M 34.1875 63.1875 
L 20.796875 26.90625 
L 47.609375 26.90625 
z
M 28.609375 72.90625 
L 39.796875 72.90625 
L 67.578125 0 
L 57.328125 0 
L 50.6875 18.703125 
L 17.828125 18.703125 
L 11.1875 0 
L 0.78125 0 
z
" id="DejaVuSans-41"/>
     </defs>
     <g transform="translate(94.6 58.070437)scale(0.1 -0.1)">
      <use xlink:href="#DejaVuSans-42"/>
      <use x="68.603516" xlink:href="#DejaVuSans-61"/>
      <use x="129.882812" xlink:href="#DejaVuSans-73"/>
      <use x="181.982422" xlink:href="#DejaVuSans-65"/>
      <use x="243.505859" xlink:href="#DejaVuSans-20"/>
      <use x="275.292969" xlink:href="#DejaVuSans-47"/>
      <use x="352.783203" xlink:href="#DejaVuSans-41"/>
     </g>
    </g>
    <g id="line2d_18">
     <path d="M 66.6 69.248562 
L 86.6 69.248562 
" style="fill:none;stroke:#ff0000;stroke-linecap:square;stroke-width:1.5;"/>
    </g>
    <g id="line2d_19"/>
    <g id="text_15">
     <!-- Method II -->
     <defs>
      <path d="M 9.8125 72.90625 
L 24.515625 72.90625 
L 43.109375 23.296875 
L 61.8125 72.90625 
L 76.515625 72.90625 
L 76.515625 0 
L 66.890625 0 
L 66.890625 64.015625 
L 48.09375 14.015625 
L 38.1875 14.015625 
L 19.390625 64.015625 
L 19.390625 0 
L 9.8125 0 
z
" id="DejaVuSans-4d"/>
      <path d="M 18.3125 70.21875 
L 18.3125 54.6875 
L 36.8125 54.6875 
L 36.8125 47.703125 
L 18.3125 47.703125 
L 18.3125 18.015625 
Q 18.3125 11.328125 20.140625 9.421875 
Q 21.96875 7.515625 27.59375 7.515625 
L 36.8125 7.515625 
L 36.8125 0 
L 27.59375 0 
Q 17.1875 0 13.234375 3.875 
Q 9.28125 7.765625 9.28125 18.015625 
L 9.28125 47.703125 
L 2.6875 47.703125 
L 2.6875 54.6875 
L 9.28125 54.6875 
L 9.28125 70.21875 
z
" id="DejaVuSans-74"/>
      <path d="M 54.890625 33.015625 
L 54.890625 0 
L 45.90625 0 
L 45.90625 32.71875 
Q 45.90625 40.484375 42.875 44.328125 
Q 39.84375 48.1875 33.796875 48.1875 
Q 26.515625 48.1875 22.3125 43.546875 
Q 18.109375 38.921875 18.109375 30.90625 
L 18.109375 0 
L 9.078125 0 
L 9.078125 75.984375 
L 18.109375 75.984375 
L 18.109375 46.1875 
Q 21.34375 51.125 25.703125 53.5625 
Q 30.078125 56 35.796875 56 
Q 45.21875 56 50.046875 50.171875 
Q 54.890625 44.34375 54.890625 33.015625 
z
" id="DejaVuSans-68"/>
      <path d="M 30.609375 48.390625 
Q 23.390625 48.390625 19.1875 42.75 
Q 14.984375 37.109375 14.984375 27.296875 
Q 14.984375 17.484375 19.15625 11.84375 
Q 23.34375 6.203125 30.609375 6.203125 
Q 37.796875 6.203125 41.984375 11.859375 
Q 46.1875 17.53125 46.1875 27.296875 
Q 46.1875 37.015625 41.984375 42.703125 
Q 37.796875 48.390625 30.609375 48.390625 
z
M 30.609375 56 
Q 42.328125 56 49.015625 48.375 
Q 55.71875 40.765625 55.71875 27.296875 
Q 55.71875 13.875 49.015625 6.21875 
Q 42.328125 -1.421875 30.609375 -1.421875 
Q 18.84375 -1.421875 12.171875 6.21875 
Q 5.515625 13.875 5.515625 27.296875 
Q 5.515625 40.765625 12.171875 48.375 
Q 18.84375 56 30.609375 56 
z
" id="DejaVuSans-6f"/>
      <path d="M 45.40625 46.390625 
L 45.40625 75.984375 
L 54.390625 75.984375 
L 54.390625 0 
L 45.40625 0 
L 45.40625 8.203125 
Q 42.578125 3.328125 38.25 0.953125 
Q 33.9375 -1.421875 27.875 -1.421875 
Q 17.96875 -1.421875 11.734375 6.484375 
Q 5.515625 14.40625 5.515625 27.296875 
Q 5.515625 40.1875 11.734375 48.09375 
Q 17.96875 56 27.875 56 
Q 33.9375 56 38.25 53.625 
Q 42.578125 51.265625 45.40625 46.390625 
z
M 14.796875 27.296875 
Q 14.796875 17.390625 18.875 11.75 
Q 22.953125 6.109375 30.078125 6.109375 
Q 37.203125 6.109375 41.296875 11.75 
Q 45.40625 17.390625 45.40625 27.296875 
Q 45.40625 37.203125 41.296875 42.84375 
Q 37.203125 48.484375 30.078125 48.484375 
Q 22.953125 48.484375 18.875 42.84375 
Q 14.796875 37.203125 14.796875 27.296875 
z
" id="DejaVuSans-64"/>
      <path d="M 9.8125 72.90625 
L 19.671875 72.90625 
L 19.671875 0 
L 9.8125 0 
z
" id="DejaVuSans-49"/>
     </defs>
     <g transform="translate(94.6 72.748562)scale(0.1 -0.1)">
      <use xlink:href="#DejaVuSans-4d"/>
      <use x="86.279297" xlink:href="#DejaVuSans-65"/>
      <use x="147.802734" xlink:href="#DejaVuSans-74"/>
      <use x="187.011719" xlink:href="#DejaVuSans-68"/>
      <use x="250.390625" xlink:href="#DejaVuSans-6f"/>
      <use x="311.572266" xlink:href="#DejaVuSans-64"/>
      <use x="375.048828" xlink:href="#DejaVuSans-20"/>
      <use x="406.835938" xlink:href="#DejaVuSans-49"/>
      <use x="436.328125" xlink:href="#DejaVuSans-49"/>
     </g>
    </g>
   </g>
  </g>
 </g>
 <defs>
  <clipPath id="pfac8734366">
   <rect height="266.112" width="357.12" x="57.6" y="41.472"/>
  </clipPath>
 </defs>
</svg>
