<?xml version="1.0" encoding="utf-8" standalone="no"?>
<!DOCTYPE svg PUBLIC "-//W3C//DTD SVG 1.1//EN"
  "http://www.w3.org/Graphics/SVG/1.1/DTD/svg11.dtd">
<!-- Created with matplotlib (http://matplotlib.org/) -->
<svg height="345.6pt" version="1.1" viewBox="0 0 460.8 345.6" width="460.8pt" xmlns="http://www.w3.org/2000/svg" xmlns:xlink="http://www.w3.org/1999/xlink">
 <defs>
  <style type="text/css">
*{stroke-linecap:butt;stroke-linejoin:round;}
  </style>
 </defs>
 <g id="figure_1">
  <g id="patch_1">
   <path d="M 0 345.6 
L 460.8 345.6 
L 460.8 0 
L 0 0 
z
" style="fill:#ffffff;"/>
  </g>
  <g id="axes_1">
   <g id="patch_2">
    <path d="M 57.6 307.584 
L 414.72 307.584 
L 414.72 41.472 
L 57.6 41.472 
z
" style="fill:#ffffff;"/>
   </g>
   <g id="matplotlib.axis_1">
    <g id="xtick_1">
     <g id="line2d_1">
      <defs>
       <path d="M 0 0 
L 0 3.5 
" id="m5202a1ab5e" style="stroke:#000000;stroke-width:0.8;"/>
      </defs>
      <g>
       <use style="stroke:#000000;stroke-width:0.8;" x="73.832727" xlink:href="#m5202a1ab5e" y="307.584"/>
      </g>
     </g>
     <g id="text_1">
      <!-- 0 -->
      <defs>
       <path d="M 31.78125 66.40625 
Q 24.171875 66.40625 20.328125 58.90625 
Q 16.5 51.421875 16.5 36.375 
Q 16.5 21.390625 20.328125 13.890625 
Q 24.171875 6.390625 31.78125 6.390625 
Q 39.453125 6.390625 43.28125 13.890625 
Q 47.125 21.390625 47.125 36.375 
Q 47.125 51.421875 43.28125 58.90625 
Q 39.453125 66.40625 31.78125 66.40625 
z
M 31.78125 74.21875 
Q 44.046875 74.21875 50.515625 64.515625 
Q 56.984375 54.828125 56.984375 36.375 
Q 56.984375 17.96875 50.515625 8.265625 
Q 44.046875 -1.421875 31.78125 -1.421875 
Q 19.53125 -1.421875 13.0625 8.265625 
Q 6.59375 17.96875 6.59375 36.375 
Q 6.59375 54.828125 13.0625 64.515625 
Q 19.53125 74.21875 31.78125 74.21875 
z
" id="DejaVuSans-30"/>
      </defs>
      <g transform="translate(70.651477 322.182437)scale(0.1 -0.1)">
       <use xlink:href="#DejaVuSans-30"/>
      </g>
     </g>
    </g>
    <g id="xtick_2">
     <g id="line2d_2">
      <g>
       <use style="stroke:#000000;stroke-width:0.8;" x="138.828632" xlink:href="#m5202a1ab5e" y="307.584"/>
      </g>
     </g>
     <g id="text_2">
      <!-- 200 -->
      <defs>
       <path d="M 19.1875 8.296875 
L 53.609375 8.296875 
L 53.609375 0 
L 7.328125 0 
L 7.328125 8.296875 
Q 12.9375 14.109375 22.625 23.890625 
Q 32.328125 33.6875 34.8125 36.53125 
Q 39.546875 41.84375 41.421875 45.53125 
Q 43.3125 49.21875 43.3125 52.78125 
Q 43.3125 58.59375 39.234375 62.25 
Q 35.15625 65.921875 28.609375 65.921875 
Q 23.96875 65.921875 18.8125 64.3125 
Q 13.671875 62.703125 7.8125 59.421875 
L 7.8125 69.390625 
Q 13.765625 71.78125 18.9375 73 
Q 24.125 74.21875 28.421875 74.21875 
Q 39.75 74.21875 46.484375 68.546875 
Q 53.21875 62.890625 53.21875 53.421875 
Q 53.21875 48.921875 51.53125 44.890625 
Q 49.859375 40.875 45.40625 35.40625 
Q 44.1875 33.984375 37.640625 27.21875 
Q 31.109375 20.453125 19.1875 8.296875 
z
" id="DejaVuSans-32"/>
      </defs>
      <g transform="translate(129.284882 322.182437)scale(0.1 -0.1)">
       <use xlink:href="#DejaVuSans-32"/>
       <use x="63.623047" xlink:href="#DejaVuSans-30"/>
       <use x="127.246094" xlink:href="#DejaVuSans-30"/>
      </g>
     </g>
    </g>
    <g id="xtick_3">
     <g id="line2d_3">
      <g>
       <use style="stroke:#000000;stroke-width:0.8;" x="203.824537" xlink:href="#m5202a1ab5e" y="307.584"/>
      </g>
     </g>
     <g id="text_3">
      <!-- 400 -->
      <defs>
       <path d="M 37.796875 64.3125 
L 12.890625 25.390625 
L 37.796875 25.390625 
z
M 35.203125 72.90625 
L 47.609375 72.90625 
L 47.609375 25.390625 
L 58.015625 25.390625 
L 58.015625 17.1875 
L 47.609375 17.1875 
L 47.609375 0 
L 37.796875 0 
L 37.796875 17.1875 
L 4.890625 17.1875 
L 4.890625 26.703125 
z
" id="DejaVuSans-34"/>
      </defs>
      <g transform="translate(194.280787 322.182437)scale(0.1 -0.1)">
       <use xlink:href="#DejaVuSans-34"/>
       <use x="63.623047" xlink:href="#DejaVuSans-30"/>
       <use x="127.246094" xlink:href="#DejaVuSans-30"/>
      </g>
     </g>
    </g>
    <g id="xtick_4">
     <g id="line2d_4">
      <g>
       <use style="stroke:#000000;stroke-width:0.8;" x="268.820442" xlink:href="#m5202a1ab5e" y="307.584"/>
      </g>
     </g>
     <g id="text_4">
      <!-- 600 -->
      <defs>
       <path d="M 33.015625 40.375 
Q 26.375 40.375 22.484375 35.828125 
Q 18.609375 31.296875 18.609375 23.390625 
Q 18.609375 15.53125 22.484375 10.953125 
Q 26.375 6.390625 33.015625 6.390625 
Q 39.65625 6.390625 43.53125 10.953125 
Q 47.40625 15.53125 47.40625 23.390625 
Q 47.40625 31.296875 43.53125 35.828125 
Q 39.65625 40.375 33.015625 40.375 
z
M 52.59375 71.296875 
L 52.59375 62.3125 
Q 48.875 64.0625 45.09375 64.984375 
Q 41.3125 65.921875 37.59375 65.921875 
Q 27.828125 65.921875 22.671875 59.328125 
Q 17.53125 52.734375 16.796875 39.40625 
Q 19.671875 43.65625 24.015625 45.921875 
Q 28.375 48.1875 33.59375 48.1875 
Q 44.578125 48.1875 50.953125 41.515625 
Q 57.328125 34.859375 57.328125 23.390625 
Q 57.328125 12.15625 50.6875 5.359375 
Q 44.046875 -1.421875 33.015625 -1.421875 
Q 20.359375 -1.421875 13.671875 8.265625 
Q 6.984375 17.96875 6.984375 36.375 
Q 6.984375 53.65625 15.1875 63.9375 
Q 23.390625 74.21875 37.203125 74.21875 
Q 40.921875 74.21875 44.703125 73.484375 
Q 48.484375 72.75 52.59375 71.296875 
z
" id="DejaVuSans-36"/>
      </defs>
      <g transform="translate(259.276692 322.182437)scale(0.1 -0.1)">
       <use xlink:href="#DejaVuSans-36"/>
       <use x="63.623047" xlink:href="#DejaVuSans-30"/>
       <use x="127.246094" xlink:href="#DejaVuSans-30"/>
      </g>
     </g>
    </g>
    <g id="xtick_5">
     <g id="line2d_5">
      <g>
       <use style="stroke:#000000;stroke-width:0.8;" x="333.816347" xlink:href="#m5202a1ab5e" y="307.584"/>
      </g>
     </g>
     <g id="text_5">
      <!-- 800 -->
      <defs>
       <path d="M 31.78125 34.625 
Q 24.75 34.625 20.71875 30.859375 
Q 16.703125 27.09375 16.703125 20.515625 
Q 16.703125 13.921875 20.71875 10.15625 
Q 24.75 6.390625 31.78125 6.390625 
Q 38.8125 6.390625 42.859375 10.171875 
Q 46.921875 13.96875 46.921875 20.515625 
Q 46.921875 27.09375 42.890625 30.859375 
Q 38.875 34.625 31.78125 34.625 
z
M 21.921875 38.8125 
Q 15.578125 40.375 12.03125 44.71875 
Q 8.5 49.078125 8.5 55.328125 
Q 8.5 64.0625 14.71875 69.140625 
Q 20.953125 74.21875 31.78125 74.21875 
Q 42.671875 74.21875 48.875 69.140625 
Q 55.078125 64.0625 55.078125 55.328125 
Q 55.078125 49.078125 51.53125 44.71875 
Q 48 40.375 41.703125 38.8125 
Q 48.828125 37.15625 52.796875 32.3125 
Q 56.78125 27.484375 56.78125 20.515625 
Q 56.78125 9.90625 50.3125 4.234375 
Q 43.84375 -1.421875 31.78125 -1.421875 
Q 19.734375 -1.421875 13.25 4.234375 
Q 6.78125 9.90625 6.78125 20.515625 
Q 6.78125 27.484375 10.78125 32.3125 
Q 14.796875 37.15625 21.921875 38.8125 
z
M 18.3125 54.390625 
Q 18.3125 48.734375 21.84375 45.5625 
Q 25.390625 42.390625 31.78125 42.390625 
Q 38.140625 42.390625 41.71875 45.5625 
Q 45.3125 48.734375 45.3125 54.390625 
Q 45.3125 60.0625 41.71875 63.234375 
Q 38.140625 66.40625 31.78125 66.40625 
Q 25.390625 66.40625 21.84375 63.234375 
Q 18.3125 60.0625 18.3125 54.390625 
z
" id="DejaVuSans-38"/>
      </defs>
      <g transform="translate(324.272597 322.182437)scale(0.1 -0.1)">
       <use xlink:href="#DejaVuSans-38"/>
       <use x="63.623047" xlink:href="#DejaVuSans-30"/>
       <use x="127.246094" xlink:href="#DejaVuSans-30"/>
      </g>
     </g>
    </g>
    <g id="xtick_6">
     <g id="line2d_6">
      <g>
       <use style="stroke:#000000;stroke-width:0.8;" x="398.812252" xlink:href="#m5202a1ab5e" y="307.584"/>
      </g>
     </g>
     <g id="text_6">
      <!-- 1000 -->
      <defs>
       <path d="M 12.40625 8.296875 
L 28.515625 8.296875 
L 28.515625 63.921875 
L 10.984375 60.40625 
L 10.984375 69.390625 
L 28.421875 72.90625 
L 38.28125 72.90625 
L 38.28125 8.296875 
L 54.390625 8.296875 
L 54.390625 0 
L 12.40625 0 
z
" id="DejaVuSans-31"/>
      </defs>
      <g transform="translate(386.087252 322.182437)scale(0.1 -0.1)">
       <use xlink:href="#DejaVuSans-31"/>
       <use x="63.623047" xlink:href="#DejaVuSans-30"/>
       <use x="127.246094" xlink:href="#DejaVuSans-30"/>
       <use x="190.869141" xlink:href="#DejaVuSans-30"/>
      </g>
     </g>
    </g>
   </g>
   <g id="matplotlib.axis_2">
    <g id="ytick_1">
     <g id="line2d_7">
      <defs>
       <path d="M 0 0 
L -3.5 0 
" id="maf6592dc9f" style="stroke:#000000;stroke-width:0.8;"/>
      </defs>
      <g>
       <use style="stroke:#000000;stroke-width:0.8;" x="57.6" xlink:href="#maf6592dc9f" y="299.860048"/>
      </g>
     </g>
     <g id="text_7">
      <!-- 750 -->
      <defs>
       <path d="M 8.203125 72.90625 
L 55.078125 72.90625 
L 55.078125 68.703125 
L 28.609375 0 
L 18.3125 0 
L 43.21875 64.59375 
L 8.203125 64.59375 
z
" id="DejaVuSans-37"/>
       <path d="M 10.796875 72.90625 
L 49.515625 72.90625 
L 49.515625 64.59375 
L 19.828125 64.59375 
L 19.828125 46.734375 
Q 21.96875 47.46875 24.109375 47.828125 
Q 26.265625 48.1875 28.421875 48.1875 
Q 40.625 48.1875 47.75 41.5 
Q 54.890625 34.8125 54.890625 23.390625 
Q 54.890625 11.625 47.5625 5.09375 
Q 40.234375 -1.421875 26.90625 -1.421875 
Q 22.3125 -1.421875 17.546875 -0.640625 
Q 12.796875 0.140625 7.71875 1.703125 
L 7.71875 11.625 
Q 12.109375 9.234375 16.796875 8.0625 
Q 21.484375 6.890625 26.703125 6.890625 
Q 35.15625 6.890625 40.078125 11.328125 
Q 45.015625 15.765625 45.015625 23.390625 
Q 45.015625 31 40.078125 35.4375 
Q 35.15625 39.890625 26.703125 39.890625 
Q 22.75 39.890625 18.8125 39.015625 
Q 14.890625 38.140625 10.796875 36.28125 
z
" id="DejaVuSans-35"/>
      </defs>
      <g transform="translate(31.5125 303.659267)scale(0.1 -0.1)">
       <use xlink:href="#DejaVuSans-37"/>
       <use x="63.623047" xlink:href="#DejaVuSans-35"/>
       <use x="127.246094" xlink:href="#DejaVuSans-30"/>
      </g>
     </g>
    </g>
    <g id="ytick_2">
     <g id="line2d_8">
      <g>
       <use style="stroke:#000000;stroke-width:0.8;" x="57.6" xlink:href="#maf6592dc9f" y="263.426313"/>
      </g>
     </g>
     <g id="text_8">
      <!-- 1000 -->
      <g transform="translate(25.15 267.225532)scale(0.1 -0.1)">
       <use xlink:href="#DejaVuSans-31"/>
       <use x="63.623047" xlink:href="#DejaVuSans-30"/>
       <use x="127.246094" xlink:href="#DejaVuSans-30"/>
       <use x="190.869141" xlink:href="#DejaVuSans-30"/>
      </g>
     </g>
    </g>
    <g id="ytick_3">
     <g id="line2d_9">
      <g>
       <use style="stroke:#000000;stroke-width:0.8;" x="57.6" xlink:href="#maf6592dc9f" y="226.992578"/>
      </g>
     </g>
     <g id="text_9">
      <!-- 1250 -->
      <g transform="translate(25.15 230.791797)scale(0.1 -0.1)">
       <use xlink:href="#DejaVuSans-31"/>
       <use x="63.623047" xlink:href="#DejaVuSans-32"/>
       <use x="127.246094" xlink:href="#DejaVuSans-35"/>
       <use x="190.869141" xlink:href="#DejaVuSans-30"/>
      </g>
     </g>
    </g>
    <g id="ytick_4">
     <g id="line2d_10">
      <g>
       <use style="stroke:#000000;stroke-width:0.8;" x="57.6" xlink:href="#maf6592dc9f" y="190.558843"/>
      </g>
     </g>
     <g id="text_10">
      <!-- 1500 -->
      <g transform="translate(25.15 194.358062)scale(0.1 -0.1)">
       <use xlink:href="#DejaVuSans-31"/>
       <use x="63.623047" xlink:href="#DejaVuSans-35"/>
       <use x="127.246094" xlink:href="#DejaVuSans-30"/>
       <use x="190.869141" xlink:href="#DejaVuSans-30"/>
      </g>
     </g>
    </g>
    <g id="ytick_5">
     <g id="line2d_11">
      <g>
       <use style="stroke:#000000;stroke-width:0.8;" x="57.6" xlink:href="#maf6592dc9f" y="154.125108"/>
      </g>
     </g>
     <g id="text_11">
      <!-- 1750 -->
      <g transform="translate(25.15 157.924327)scale(0.1 -0.1)">
       <use xlink:href="#DejaVuSans-31"/>
       <use x="63.623047" xlink:href="#DejaVuSans-37"/>
       <use x="127.246094" xlink:href="#DejaVuSans-35"/>
       <use x="190.869141" xlink:href="#DejaVuSans-30"/>
      </g>
     </g>
    </g>
    <g id="ytick_6">
     <g id="line2d_12">
      <g>
       <use style="stroke:#000000;stroke-width:0.8;" x="57.6" xlink:href="#maf6592dc9f" y="117.691373"/>
      </g>
     </g>
     <g id="text_12">
      <!-- 2000 -->
      <g transform="translate(25.15 121.490592)scale(0.1 -0.1)">
       <use xlink:href="#DejaVuSans-32"/>
       <use x="63.623047" xlink:href="#DejaVuSans-30"/>
       <use x="127.246094" xlink:href="#DejaVuSans-30"/>
       <use x="190.869141" xlink:href="#DejaVuSans-30"/>
      </g>
     </g>
    </g>
    <g id="ytick_7">
     <g id="line2d_13">
      <g>
       <use style="stroke:#000000;stroke-width:0.8;" x="57.6" xlink:href="#maf6592dc9f" y="81.257639"/>
      </g>
     </g>
     <g id="text_13">
      <!-- 2250 -->
      <g transform="translate(25.15 85.056857)scale(0.1 -0.1)">
       <use xlink:href="#DejaVuSans-32"/>
       <use x="63.623047" xlink:href="#DejaVuSans-32"/>
       <use x="127.246094" xlink:href="#DejaVuSans-35"/>
       <use x="190.869141" xlink:href="#DejaVuSans-30"/>
      </g>
     </g>
    </g>
    <g id="ytick_8">
     <g id="line2d_14">
      <g>
       <use style="stroke:#000000;stroke-width:0.8;" x="57.6" xlink:href="#maf6592dc9f" y="44.823904"/>
      </g>
     </g>
     <g id="text_14">
      <!-- 2500 -->
      <g transform="translate(25.15 48.623122)scale(0.1 -0.1)">
       <use xlink:href="#DejaVuSans-32"/>
       <use x="63.623047" xlink:href="#DejaVuSans-35"/>
       <use x="127.246094" xlink:href="#DejaVuSans-30"/>
       <use x="190.869141" xlink:href="#DejaVuSans-30"/>
      </g>
     </g>
    </g>
   </g>
   <g id="line2d_15">
    <path clip-path="url(#p8ea4d9dc05)" d="M 73.832727 290.387277 
L 74.157707 263.426313 
L 74.482686 277.271133 
L 74.807666 261.240289 
L 75.132645 233.550651 
L 75.457625 255.410892 
L 75.782604 252.496193 
L 76.107584 272.899084 
L 76.432563 260.511614 
L 76.757543 267.069687 
L 77.082523 267.798361 
L 77.407502 253.953542 
L 78.057461 269.984386 
L 78.382441 233.550651 
L 78.70742 260.511614 
L 79.357379 204.403663 
L 79.682359 205.132337 
L 80.007338 219.705831 
L 80.332318 244.480771 
L 80.657297 226.263904 
L 80.982277 194.930892 
L 81.307256 234.279325 
L 81.632236 237.194024 
L 81.957215 237.922699 
L 82.282195 233.550651 
L 82.607174 240.837398 
L 82.932154 244.480771 
L 83.257133 242.294747 
L 83.582113 244.480771 
L 83.907093 242.294747 
L 84.232072 234.279325 
L 84.557052 237.194024 
L 84.882031 236.465349 
L 85.207011 236.465349 
L 85.53199 229.178602 
L 85.85697 229.907277 
L 86.181949 213.876434 
L 86.506929 211.69041 
L 86.831908 205.861012 
L 87.156888 205.861012 
L 87.481867 213.147759 
L 87.806847 205.132337 
L 88.131826 208.775711 
L 88.456806 210.23306 
L 88.781785 197.116916 
L 89.106765 208.047036 
L 89.431744 209.504386 
L 89.756724 209.504386 
L 90.081704 196.388241 
L 90.406683 209.504386 
L 90.731663 197.116916 
L 92.68154 197.116916 
L 93.006519 205.132337 
L 93.331499 208.047036 
L 93.656478 200.760289 
L 93.981458 197.116916 
L 94.306437 207.318361 
L 94.631417 197.116916 
L 95.281376 197.116916 
L 95.606355 208.775711 
L 95.931335 205.861012 
L 96.256314 205.132337 
L 96.581294 208.047036 
L 96.906274 208.775711 
L 97.231253 197.116916 
L 97.556233 205.861012 
L 97.881212 196.388241 
L 98.206192 197.116916 
L 98.531171 179.628723 
L 98.856151 197.116916 
L 101.455987 197.116916 
L 101.780966 196.388241 
L 102.105946 197.116916 
L 102.430925 197.116916 
L 102.755905 193.473542 
L 103.080885 197.116916 
L 103.405864 197.116916 
L 103.730844 196.388241 
L 104.055823 193.473542 
L 104.380803 197.116916 
L 109.905455 197.116916 
L 110.230434 194.202217 
L 110.555414 197.116916 
L 114.455168 197.116916 
L 114.780147 196.388241 
L 115.105127 196.388241 
L 115.430106 197.116916 
L 116.080066 197.116916 
L 116.405045 196.388241 
L 116.730025 197.116916 
L 118.029943 197.116916 
L 118.354922 167.969928 
L 118.679902 196.388241 
L 119.004881 197.116916 
L 120.304799 197.116916 
L 120.629779 183.272096 
L 120.954758 181.086072 
L 121.279738 165.055229 
L 121.604717 165.055229 
L 121.929697 197.116916 
L 122.579656 135.179566 
L 122.904636 197.116916 
L 123.229615 194.930892 
L 123.554595 172.341976 
L 123.879574 167.969928 
L 124.204554 197.116916 
L 124.529533 194.930892 
L 124.854513 197.116916 
L 125.179492 194.930892 
L 125.504472 195.659566 
L 125.829451 197.116916 
L 126.154431 194.202217 
L 126.47941 196.388241 
L 126.80439 197.116916 
L 127.129369 157.768482 
L 127.454349 167.969928 
L 127.779328 197.116916 
L 128.754267 197.116916 
L 129.079247 175.985349 
L 129.404226 197.116916 
L 129.729206 167.969928 
L 130.054185 197.116916 
L 130.379165 167.969928 
L 131.679083 167.969928 
L 132.004062 163.59788 
L 133.62896 163.59788 
L 133.953939 138.82294 
L 139.153612 138.82294 
L 139.478591 160.683181 
L 139.803571 138.82294 
L 140.778509 138.82294 
L 141.103489 160.683181 
L 141.428468 138.82294 
L 212.923964 138.82294 
L 213.248943 135.908241 
L 213.573923 138.82294 
L 274.020115 138.82294 
L 274.345094 124.249446 
L 274.670074 124.249446 
L 274.995053 138.82294 
L 285.394398 138.82294 
L 285.719378 134.450892 
L 287.019296 134.450892 
L 287.344275 127.892819 
L 287.669255 134.450892 
L 287.994234 134.450892 
L 288.644193 123.520771 
L 288.969173 127.892819 
L 289.294152 127.164145 
L 289.619132 123.520771 
L 321.467125 123.520771 
L 321.792105 122.792096 
L 325.36688 122.792096 
L 325.691859 106.032578 
L 339.665979 106.032578 
L 339.990958 101.66053 
L 340.315938 106.032578 
L 340.965897 106.032578 
L 341.290876 100.931855 
L 341.615856 106.032578 
L 352.34018 106.032578 
L 352.66516 101.66053 
L 352.990139 106.032578 
L 356.239934 106.032578 
L 356.564914 105.303904 
L 361.764586 105.303904 
L 362.089566 100.931855 
L 362.414545 105.303904 
L 362.739525 100.931855 
L 364.689402 100.931855 
L 365.014382 105.303904 
L 365.339361 100.931855 
L 365.664341 105.303904 
L 368.589156 105.303904 
L 368.914136 104.575229 
L 369.239115 105.303904 
L 382.563276 105.303904 
L 382.888256 103.11788 
L 383.213235 106.032578 
L 385.813071 106.032578 
L 386.138051 101.66053 
L 386.46303 106.032578 
L 388.412907 106.032578 
L 388.737887 95.831133 
L 389.062867 100.931855 
L 394.262539 100.931855 
L 394.587518 93.645108 
L 395.237477 93.645108 
L 395.562457 100.931855 
L 396.212416 100.931855 
L 396.537396 99.474506 
L 398.487273 99.474506 
L 398.487273 99.474506 
" style="fill:none;stroke:#0000ff;stroke-linecap:square;stroke-width:1.5;"/>
   </g>
   <g id="line2d_16">
    <path clip-path="url(#p8ea4d9dc05)" d="M 73.832727 290.387277 
L 74.157707 287.472578 
L 74.482686 277.999807 
L 74.807666 258.32559 
L 75.132645 258.32559 
L 75.457625 260.511614 
L 75.782604 267.069687 
L 76.107584 259.054265 
L 76.757543 234.279325 
L 77.082523 234.279325 
L 77.407502 199.30294 
L 77.732482 222.62053 
L 78.382441 233.550651 
L 78.70742 237.922699 
L 79.0324 214.605108 
L 79.357379 202.946313 
L 79.682359 170.155952 
L 80.007338 288.201253 
L 80.332318 265.612337 
L 80.657297 272.17041 
L 81.307256 233.550651 
L 81.632236 248.124145 
L 81.957215 245.93812 
L 82.282195 263.426313 
L 82.932154 229.907277 
L 83.257133 258.32559 
L 83.582113 253.953542 
L 83.907093 252.496193 
L 84.232072 245.209446 
L 84.557052 253.224867 
L 84.882031 238.651373 
L 85.207011 241.566072 
L 85.53199 217.519807 
L 86.181949 248.124145 
L 86.506929 223.349205 
L 86.831908 218.248482 
L 87.156888 242.294747 
L 87.481867 246.666795 
L 87.806847 243.023422 
L 88.131826 245.209446 
L 88.456806 229.907277 
L 88.781785 186.186795 
L 89.106765 251.767518 
L 89.431744 237.922699 
L 89.756724 217.519807 
L 90.081704 228.449928 
L 90.406683 204.403663 
L 91.056642 222.62053 
L 91.381622 214.605108 
L 91.706601 199.30294 
L 92.031581 214.605108 
L 92.35656 202.217639 
L 92.68154 202.217639 
L 93.006519 213.147759 
L 93.331499 208.047036 
L 93.656478 214.605108 
L 93.981458 208.775711 
L 94.306437 214.605108 
L 94.631417 199.30294 
L 94.956396 162.869205 
L 95.281376 214.605108 
L 95.606355 193.473542 
L 95.931335 192.016193 
L 96.256314 208.775711 
L 96.581294 205.132337 
L 96.906274 170.155952 
L 97.231253 202.946313 
L 97.556233 198.574265 
L 97.881212 205.132337 
L 98.206192 185.45812 
L 98.531171 205.132337 
L 98.856151 132.264867 
L 99.18113 174.528 
L 99.50611 190.558843 
L 99.831089 256.139566 
L 100.156069 234.279325 
L 100.481048 229.907277 
L 100.806028 232.821976 
L 101.131007 197.84559 
L 101.780966 237.922699 
L 102.105946 210.23306 
L 102.430925 218.248482 
L 102.755905 238.651373 
L 103.080885 181.086072 
L 103.405864 234.279325 
L 104.055823 202.946313 
L 104.705782 227.721253 
L 105.030762 226.992578 
L 105.355741 207.318361 
L 105.680721 227.721253 
L 106.0057 211.69041 
L 106.33068 214.605108 
L 106.655659 238.651373 
L 106.980639 229.907277 
L 107.305618 203.674988 
L 107.630598 229.178602 
L 108.280557 202.946313 
L 108.930516 204.403663 
L 109.255495 179.628723 
L 109.580475 204.403663 
L 109.905455 155.582458 
L 110.230434 194.930892 
L 110.555414 141.008964 
L 110.880393 193.473542 
L 111.205373 159.225831 
L 112.505291 159.225831 
L 112.83027 141.008964 
L 113.15525 159.225831 
L 113.480229 159.225831 
L 113.805209 127.892819 
L 114.130188 159.225831 
L 114.455168 245.93812 
L 114.780147 229.907277 
L 115.105127 192.016193 
L 115.430106 229.907277 
L 115.755086 222.62053 
L 116.080066 212.419084 
L 116.405045 226.992578 
L 116.730025 230.635952 
L 117.055004 206.589687 
L 117.379984 197.84559 
L 117.704963 238.651373 
L 118.029943 184.000771 
L 118.354922 170.155952 
L 118.679902 130.078843 
L 119.004881 184.000771 
L 119.97982 184.000771 
L 120.304799 181.086072 
L 120.629779 184.000771 
L 120.954758 165.783904 
L 121.279738 247.39547 
L 121.604717 247.39547 
L 121.929697 211.69041 
L 122.254676 211.69041 
L 122.579656 237.922699 
L 122.904636 237.922699 
L 123.229615 228.449928 
L 123.554595 222.62053 
L 123.879574 234.279325 
L 124.204554 237.922699 
L 124.529533 233.550651 
L 124.854513 244.480771 
L 125.179492 240.108723 
L 125.504472 248.852819 
L 125.829451 234.279325 
L 126.154431 243.752096 
L 126.47941 229.907277 
L 126.80439 228.449928 
L 127.454349 135.179566 
L 127.779328 125.706795 
L 128.104308 170.884627 
L 128.429287 151.939084 
L 128.754267 184.000771 
L 129.079247 143.194988 
L 129.404226 186.186795 
L 129.729206 199.30294 
L 130.379165 172.341976 
L 130.704144 177.442699 
L 131.029124 193.473542 
L 131.354103 185.45812 
L 131.679083 199.30294 
L 132.004062 199.30294 
L 132.329042 180.357398 
L 132.654021 137.36559 
L 132.979001 199.30294 
L 133.30398 184.729446 
L 133.62896 252.496193 
L 134.278919 222.62053 
L 134.603898 218.977157 
L 134.928878 218.977157 
L 135.253857 214.605108 
L 135.578837 222.62053 
L 135.903817 193.473542 
L 136.228796 214.605108 
L 136.553776 218.977157 
L 136.878755 218.977157 
L 137.203735 203.674988 
L 137.528714 237.194024 
L 137.853694 206.589687 
L 138.178673 208.775711 
L 138.503653 130.807518 
L 138.828632 185.45812 
L 139.153612 198.574265 
L 139.478591 166.512578 
L 140.45353 166.512578 
L 140.778509 192.016193 
L 141.103489 259.78294 
L 142.078428 222.62053 
L 142.403407 237.194024 
L 142.728387 209.504386 
L 143.053366 209.504386 
L 143.378346 216.062458 
L 144.028305 238.651373 
L 144.353284 222.62053 
L 144.678264 173.799325 
L 145.003243 173.799325 
L 145.328223 202.217639 
L 145.653202 208.047036 
L 145.978182 199.30294 
L 146.303161 184.000771 
L 146.628141 157.768482 
L 146.95312 182.543422 
L 147.2781 181.086072 
L 147.603079 162.869205 
L 147.928059 128.621494 
L 148.253038 135.179566 
L 148.578018 125.706795 
L 148.902998 95.102458 
L 149.227977 114.048 
L 149.552957 114.776675 
L 149.877936 135.179566 
L 150.527895 135.179566 
L 150.852875 119.877398 
L 151.177854 125.706795 
L 151.502834 246.666795 
L 151.827813 238.651373 
L 152.152793 239.380048 
L 152.802752 197.84559 
L 153.127731 221.163181 
L 153.452711 170.884627 
L 153.77769 184.000771 
L 154.10267 189.830169 
L 154.427649 189.830169 
L 154.752629 224.806554 
L 155.402588 161.411855 
L 155.727568 214.605108 
L 156.052547 207.318361 
L 156.377527 203.674988 
L 156.702506 207.318361 
L 157.027486 199.30294 
L 157.352465 212.419084 
L 157.677445 273.627759 
L 158.002424 262.697639 
L 158.327404 219.705831 
L 158.652383 233.550651 
L 158.977363 228.449928 
L 159.302342 232.821976 
L 159.627322 221.163181 
L 159.952301 214.605108 
L 160.277281 201.488964 
L 160.60226 214.605108 
L 160.92724 203.674988 
L 161.252219 208.775711 
L 161.577199 199.30294 
L 161.902179 214.605108 
L 162.227158 214.605108 
L 162.552138 203.674988 
L 162.877117 214.605108 
L 163.202097 170.155952 
L 164.177035 170.155952 
L 164.502015 174.528 
L 164.826994 256.868241 
L 165.151974 213.876434 
L 165.476953 221.163181 
L 165.801933 180.357398 
L 166.126912 210.23306 
L 166.451892 217.519807 
L 166.776871 202.946313 
L 167.101851 221.163181 
L 167.42683 175.985349 
L 167.75181 212.419084 
L 168.07679 214.605108 
L 168.401769 221.163181 
L 168.726749 199.30294 
L 169.051728 199.30294 
L 169.376708 194.930892 
L 169.701687 213.147759 
L 170.026667 202.946313 
L 170.351646 168.698602 
L 170.676626 214.605108 
L 171.001605 170.155952 
L 171.326585 170.155952 
L 171.651564 212.419084 
L 171.976544 199.30294 
L 172.301523 199.30294 
L 172.626503 179.628723 
L 172.951482 179.628723 
L 173.276462 175.256675 
L 173.601441 271.441735 
L 173.926421 236.465349 
L 174.57638 229.907277 
L 174.90136 229.907277 
L 175.226339 234.279325 
L 175.551319 256.139566 
L 175.876298 247.39547 
L 176.201278 267.798361 
L 176.526257 198.574265 
L 176.851237 239.380048 
L 177.176216 229.178602 
L 177.501196 245.209446 
L 177.826175 267.069687 
L 178.151155 254.682217 
L 178.476134 226.992578 
L 178.801114 257.596916 
L 179.776052 229.907277 
L 180.101032 240.108723 
L 180.426011 241.566072 
L 180.750991 204.403663 
L 181.075971 243.023422 
L 181.40095 237.922699 
L 181.72593 199.30294 
L 182.050909 239.380048 
L 182.375889 233.550651 
L 182.700868 229.907277 
L 183.025848 272.899084 
L 183.350827 246.666795 
L 183.675807 199.30294 
L 184.325766 192.016193 
L 184.650745 196.388241 
L 184.975725 214.605108 
L 185.300704 214.605108 
L 185.950663 199.30294 
L 186.275643 214.605108 
L 186.600622 199.30294 
L 186.925602 213.876434 
L 187.250581 154.853783 
L 187.575561 199.30294 
L 187.900541 192.016193 
L 188.5505 239.380048 
L 188.875479 251.767518 
L 189.200459 241.566072 
L 189.525438 247.39547 
L 189.850418 243.752096 
L 190.175397 242.294747 
L 190.500377 246.666795 
L 190.825356 234.279325 
L 191.150336 243.752096 
L 191.475315 213.876434 
L 191.800295 241.566072 
L 192.125274 239.380048 
L 192.450254 244.480771 
L 192.775233 218.977157 
L 193.100213 214.605108 
L 193.425192 218.977157 
L 193.750172 207.318361 
L 194.075152 203.674988 
L 194.400131 188.372819 
L 194.725111 214.605108 
L 195.05009 214.605108 
L 195.37507 218.977157 
L 195.700049 174.528 
L 196.025029 218.977157 
L 196.350008 214.605108 
L 197.324947 214.605108 
L 197.649926 193.473542 
L 197.974906 214.605108 
L 198.299885 190.558843 
L 198.624865 192.016193 
L 198.949844 214.605108 
L 199.274824 175.985349 
L 199.599803 176.714024 
L 199.924783 159.225831 
L 200.249762 202.946313 
L 200.574742 178.171373 
L 200.899722 264.883663 
L 201.224701 269.255711 
L 201.549681 262.697639 
L 201.87466 262.697639 
L 202.19964 213.147759 
L 202.524619 213.147759 
L 202.849599 232.093301 
L 203.174578 203.674988 
L 203.499558 213.147759 
L 203.824537 203.674988 
L 204.149517 212.419084 
L 204.474496 208.775711 
L 204.799476 208.775711 
L 205.124455 205.132337 
L 205.449435 210.961735 
L 205.774414 219.705831 
L 206.099394 205.132337 
L 206.424373 200.760289 
L 207.074333 200.760289 
L 207.399312 141.008964 
L 207.724292 193.473542 
L 208.049271 189.830169 
L 208.374251 207.318361 
L 208.69923 189.830169 
L 209.02421 185.45812 
L 209.349189 170.155952 
L 209.674169 170.155952 
L 209.999148 185.45812 
L 210.324128 189.830169 
L 210.649107 189.830169 
L 210.974087 185.45812 
L 211.949025 185.45812 
L 212.598984 156.311133 
L 212.923964 162.869205 
L 213.248943 174.528 
L 213.573923 166.512578 
L 214.223882 199.30294 
L 214.548862 199.30294 
L 214.873841 168.698602 
L 215.198821 208.775711 
L 215.5238 199.30294 
L 215.84878 179.628723 
L 216.173759 182.543422 
L 216.498739 189.830169 
L 217.148698 170.155952 
L 218.448616 170.155952 
L 218.773595 185.45812 
L 219.098575 174.528 
L 219.423554 170.155952 
L 219.748534 185.45812 
L 220.073514 172.341976 
L 220.398493 185.45812 
L 220.723473 170.155952 
L 221.048452 184.729446 
L 221.373432 185.45812 
L 221.698411 185.45812 
L 222.023391 145.381012 
L 222.34837 141.008964 
L 222.67335 145.381012 
L 222.998329 185.45812 
L 223.323309 295.488 
L 223.648288 270.71306 
L 223.973268 266.341012 
L 224.298247 273.627759 
L 224.623227 269.984386 
L 224.948206 264.883663 
L 225.273186 245.93812 
L 225.598165 251.767518 
L 225.923145 252.496193 
L 226.248124 253.953542 
L 226.573104 248.852819 
L 226.898084 237.922699 
L 227.223063 242.294747 
L 227.548043 233.550651 
L 227.873022 234.279325 
L 228.198002 240.837398 
L 228.522981 244.480771 
L 229.17294 225.535229 
L 229.49792 232.821976 
L 229.822899 211.69041 
L 230.147879 217.519807 
L 230.472858 213.876434 
L 230.797838 219.705831 
L 231.122817 185.45812 
L 231.447797 185.45812 
L 231.772776 189.830169 
L 232.097756 170.155952 
L 232.422735 170.155952 
L 232.747715 185.45812 
L 237.297428 185.45812 
L 237.622408 189.830169 
L 239.572285 189.830169 
L 239.897265 179.628723 
L 240.222244 179.628723 
L 240.547224 170.155952 
L 240.872203 185.45812 
L 242.82208 185.45812 
L 243.14706 170.155952 
L 243.472039 174.528 
L 243.797019 170.155952 
L 244.446978 170.155952 
L 244.771957 185.45812 
L 245.096937 170.155952 
L 246.396855 170.155952 
L 246.721835 141.008964 
L 247.046814 242.294747 
L 247.696773 214.605108 
L 248.021753 202.946313 
L 248.346732 195.659566 
L 248.996691 195.659566 
L 249.321671 169.427277 
L 249.97163 169.427277 
L 250.296609 153.396434 
L 250.621589 129.350169 
L 250.946568 162.869205 
L 251.596527 152.667759 
L 252.246486 152.667759 
L 252.571466 165.055229 
L 252.896446 152.667759 
L 253.221425 165.055229 
L 253.546405 154.853783 
L 253.871384 148.295711 
L 254.196364 185.45812 
L 256.47122 185.45812 
L 256.7962 181.086072 
L 257.121179 185.45812 
L 257.446159 170.155952 
L 260.370975 170.155952 
L 260.695954 185.45812 
L 261.345913 185.45812 
L 261.670893 170.155952 
L 261.995872 185.45812 
L 262.320852 185.45812 
L 262.645831 162.869205 
L 262.970811 162.869205 
L 263.29579 162.14053 
L 263.62077 162.869205 
L 263.945749 130.078843 
L 264.270729 133.722217 
L 264.595708 162.869205 
L 264.920688 226.263904 
L 265.245667 215.333783 
L 265.570647 141.008964 
L 265.895627 141.008964 
L 266.220606 130.078843 
L 266.545586 182.543422 
L 267.195545 132.264867 
L 267.520524 151.939084 
L 267.845504 141.008964 
L 268.495463 141.008964 
L 268.820442 140.280289 
L 269.145422 162.869205 
L 269.470401 162.14053 
L 269.795381 159.225831 
L 270.12036 141.008964 
L 270.44534 130.078843 
L 270.770319 132.993542 
L 271.095299 130.078843 
L 272.720197 130.078843 
L 273.045176 203.674988 
L 273.370156 162.869205 
L 273.695135 170.155952 
L 274.020115 110.404627 
L 274.345094 182.543422 
L 274.670074 170.155952 
L 274.995053 133.722217 
L 275.969992 133.722217 
L 276.294971 114.776675 
L 277.26991 132.264867 
L 277.594889 132.264867 
L 277.919869 126.43547 
L 278.569828 132.993542 
L 278.894808 130.078843 
L 282.469582 130.078843 
L 282.794562 151.939084 
L 283.119541 141.008964 
L 283.444521 141.008964 
L 283.7695 117.691373 
L 284.09448 117.691373 
L 284.419459 103.11788 
L 284.744439 117.691373 
L 285.069419 118.420048 
L 285.394398 111.861976 
L 285.719378 108.947277 
L 286.044357 95.831133 
L 286.369337 188.372819 
L 286.694316 130.078843 
L 288.319214 130.078843 
L 288.644193 121.334747 
L 288.969173 117.691373 
L 289.619132 117.691373 
L 289.944111 130.078843 
L 290.59407 130.078843 
L 290.91905 120.606072 
L 291.244029 130.078843 
L 292.218968 130.078843 
L 292.543948 105.303904 
L 292.868927 100.931855 
L 293.193907 114.776675 
L 293.518886 253.953542 
L 293.843866 228.449928 
L 294.168845 246.666795 
L 294.493825 243.023422 
L 294.818804 234.279325 
L 295.143784 217.519807 
L 295.468763 221.891855 
L 295.793743 216.791133 
L 296.118722 221.163181 
L 296.443702 218.248482 
L 296.768681 218.248482 
L 297.093661 211.69041 
L 297.41864 213.147759 
L 298.718559 213.147759 
L 299.043538 198.574265 
L 299.368518 214.605108 
L 299.693497 213.876434 
L 300.018477 141.008964 
L 300.343456 141.008964 
L 300.668436 125.706795 
L 300.993415 130.078843 
L 301.318395 121.334747 
L 301.643374 130.078843 
L 301.968354 130.078843 
L 302.293333 125.706795 
L 302.618313 130.078843 
L 302.943292 123.520771 
L 303.268272 130.078843 
L 303.593251 132.264867 
L 303.918231 89.27306 
L 304.24321 132.264867 
L 304.56819 87.815711 
L 304.89317 81.986313 
L 305.543129 81.986313 
L 305.868108 81.257639 
L 306.193088 81.986313 
L 307.168026 81.986313 
L 307.493006 65.226795 
L 307.817985 81.986313 
L 308.142965 130.078843 
L 308.792924 130.078843 
L 309.117903 128.621494 
L 309.442883 130.078843 
L 309.767862 125.706795 
L 310.092842 130.078843 
L 310.417821 129.350169 
L 310.742801 130.078843 
L 311.39276 130.078843 
L 311.71774 124.97812 
L 312.042719 130.078843 
L 316.592432 130.078843 
L 316.917412 141.008964 
L 317.242391 132.264867 
L 317.567371 130.078843 
L 317.892351 105.303904 
L 318.21733 112.590651 
L 318.54231 85.629687 
L 318.867289 98.017157 
L 319.192269 84.172337 
L 319.517248 118.420048 
L 319.842228 118.420048 
L 320.167207 114.776675 
L 320.492187 109.675952 
L 320.817166 118.420048 
L 321.142146 118.420048 
L 321.467125 110.404627 
L 321.792105 105.303904 
L 322.117084 107.489928 
L 322.442064 107.489928 
L 322.767043 130.078843 
L 323.092023 100.931855 
L 323.417002 100.931855 
L 323.741982 130.078843 
L 324.066962 126.43547 
L 324.391941 127.164145 
L 324.716921 127.164145 
L 325.0419 130.078843 
L 325.36688 130.078843 
L 325.691859 100.931855 
L 326.016839 127.164145 
L 326.341818 130.078843 
L 326.991777 130.078843 
L 327.316757 126.43547 
L 327.641736 205.132337 
L 327.966716 141.008964 
L 328.291695 141.008964 
L 328.616675 106.032578 
L 328.941654 95.102458 
L 329.266634 79.800289 
L 329.591613 114.776675 
L 329.916593 132.264867 
L 330.241572 90.001735 
L 330.566552 78.34294 
L 330.891532 130.078843 
L 334.466306 130.078843 
L 334.791286 241.566072 
L 335.116265 162.869205 
L 335.441245 162.869205 
L 335.766224 192.016193 
L 336.091204 170.155952 
L 336.416183 199.30294 
L 336.741163 187.644145 
L 337.066143 207.318361 
L 337.391122 203.674988 
L 337.716102 159.225831 
L 338.041081 130.078843 
L 338.69104 130.078843 
L 339.340999 53.568 
L 339.665979 96.559807 
L 339.990958 90.73041 
L 340.315938 90.73041 
L 340.640917 100.931855 
L 340.965897 100.931855 
L 341.290876 98.017157 
L 341.615856 93.645108 
L 341.940835 261.240289 
L 342.590794 214.605108 
L 342.915774 218.977157 
L 343.240753 192.016193 
L 343.565733 232.821976 
L 343.890713 214.605108 
L 344.215692 202.946313 
L 344.540672 214.605108 
L 344.865651 194.930892 
L 345.51561 203.674988 
L 345.84059 167.241253 
L 346.165569 170.155952 
L 346.490549 145.381012 
L 346.815528 130.078843 
L 348.765405 130.078843 
L 349.090385 93.645108 
L 349.415364 93.645108 
L 349.740344 225.535229 
L 350.390303 204.403663 
L 350.715283 213.876434 
L 351.040262 199.30294 
L 351.365242 162.869205 
L 351.690221 162.869205 
L 352.015201 159.225831 
L 352.34018 188.372819 
L 352.66516 193.473542 
L 352.990139 184.729446 
L 353.315119 189.830169 
L 354.290057 189.830169 
L 354.615037 185.45812 
L 354.940016 189.830169 
L 355.589975 189.830169 
L 355.914955 130.078843 
L 356.564914 130.078843 
L 356.889894 93.645108 
L 357.214873 130.078843 
L 357.539853 127.164145 
L 357.864832 130.078843 
L 359.48973 130.078843 
L 359.814709 192.016193 
L 360.139689 193.473542 
L 360.464668 193.473542 
L 360.789648 174.528 
L 361.114627 193.473542 
L 361.439607 174.528 
L 364.039443 174.528 
L 364.364423 189.830169 
L 364.689402 140.280289 
L 365.014382 141.008964 
L 365.339361 140.280289 
L 365.664341 133.722217 
L 365.98932 130.078843 
L 366.3143 112.590651 
L 366.639279 130.078843 
L 366.964259 119.148723 
L 367.289238 118.420048 
L 367.614218 110.404627 
L 367.939197 110.404627 
L 368.264177 121.334747 
L 368.589156 102.389205 
L 368.914136 174.528 
L 370.539034 174.528 
L 370.864013 162.869205 
L 371.188993 174.528 
L 371.838952 174.528 
L 372.163931 204.403663 
L 372.488911 185.45812 
L 374.438788 185.45812 
L 374.763767 170.155952 
L 375.088747 162.869205 
L 375.413726 141.008964 
L 376.063686 141.008964 
L 376.388665 162.869205 
L 376.713645 162.869205 
L 377.038624 132.264867 
L 377.363604 162.869205 
L 377.688583 162.14053 
L 378.013563 162.14053 
L 378.338542 251.767518 
L 378.663522 249.581494 
L 378.988501 189.830169 
L 379.63846 189.830169 
L 379.96344 185.45812 
L 380.613399 170.155952 
L 380.938378 189.830169 
L 381.263358 178.171373 
L 381.588337 159.225831 
L 381.913317 178.171373 
L 382.888256 178.171373 
L 383.213235 173.070651 
L 383.538215 185.45812 
L 386.138051 185.45812 
L 386.46303 162.869205 
L 386.78801 184.729446 
L 387.112989 185.45812 
L 388.087928 185.45812 
L 388.412907 141.008964 
L 389.062867 141.008964 
L 389.387846 162.869205 
L 390.037805 141.008964 
L 390.362785 159.225831 
L 390.687764 162.869205 
L 391.012744 170.155952 
L 391.337723 170.155952 
L 391.662703 174.528 
L 391.987682 170.155952 
L 392.312662 141.008964 
L 392.637641 141.008964 
L 392.962621 178.171373 
L 393.61258 189.830169 
L 394.262539 189.830169 
L 394.587518 181.086072 
L 394.912498 189.830169 
L 395.237477 173.070651 
L 395.562457 189.830169 
L 395.887437 162.14053 
L 396.212416 189.830169 
L 396.862375 189.830169 
L 397.187355 176.714024 
L 397.512334 185.45812 
L 397.837314 182.543422 
L 398.162293 167.969928 
L 398.487273 140.280289 
L 398.487273 140.280289 
" style="fill:none;stroke:#ff0000;stroke-linecap:square;stroke-width:1.5;"/>
   </g>
   <g id="patch_3">
    <path d="M 57.6 307.584 
L 57.6 41.472 
" style="fill:none;stroke:#000000;stroke-linecap:square;stroke-linejoin:miter;stroke-width:0.8;"/>
   </g>
   <g id="patch_4">
    <path d="M 414.72 307.584 
L 414.72 41.472 
" style="fill:none;stroke:#000000;stroke-linecap:square;stroke-linejoin:miter;stroke-width:0.8;"/>
   </g>
   <g id="patch_5">
    <path d="M 57.6 307.584 
L 414.72 307.584 
" style="fill:none;stroke:#000000;stroke-linecap:square;stroke-linejoin:miter;stroke-width:0.8;"/>
   </g>
   <g id="patch_6">
    <path d="M 57.6 41.472 
L 414.72 41.472 
" style="fill:none;stroke:#000000;stroke-linecap:square;stroke-linejoin:miter;stroke-width:0.8;"/>
   </g>
   <g id="legend_1">
    <g id="patch_7">
     <path d="M 64.6 78.82825 
L 143.184375 78.82825 
Q 145.184375 78.82825 145.184375 76.82825 
L 145.184375 48.472 
Q 145.184375 46.472 143.184375 46.472 
L 64.6 46.472 
Q 62.6 46.472 62.6 48.472 
L 62.6 76.82825 
Q 62.6 78.82825 64.6 78.82825 
z
" style="fill:#ffffff;opacity:0.8;stroke:#cccccc;stroke-linejoin:miter;"/>
    </g>
    <g id="line2d_17">
     <path d="M 66.6 54.570437 
L 86.6 54.570437 
" style="fill:none;stroke:#0000ff;stroke-linecap:square;stroke-width:1.5;"/>
    </g>
    <g id="line2d_18"/>
    <g id="text_15">
     <!-- Base GA -->
     <defs>
      <path d="M 19.671875 34.8125 
L 19.671875 8.109375 
L 35.5 8.109375 
Q 43.453125 8.109375 47.28125 11.40625 
Q 51.125 14.703125 51.125 21.484375 
Q 51.125 28.328125 47.28125 31.5625 
Q 43.453125 34.8125 35.5 34.8125 
z
M 19.671875 64.796875 
L 19.671875 42.828125 
L 34.28125 42.828125 
Q 41.5 42.828125 45.03125 45.53125 
Q 48.578125 48.25 48.578125 53.8125 
Q 48.578125 59.328125 45.03125 62.0625 
Q 41.5 64.796875 34.28125 64.796875 
z
M 9.8125 72.90625 
L 35.015625 72.90625 
Q 46.296875 72.90625 52.390625 68.21875 
Q 58.5 63.53125 58.5 54.890625 
Q 58.5 48.1875 55.375 44.234375 
Q 52.25 40.28125 46.1875 39.3125 
Q 53.46875 37.75 57.5 32.78125 
Q 61.53125 27.828125 61.53125 20.40625 
Q 61.53125 10.640625 54.890625 5.3125 
Q 48.25 0 35.984375 0 
L 9.8125 0 
z
" id="DejaVuSans-42"/>
      <path d="M 34.28125 27.484375 
Q 23.390625 27.484375 19.1875 25 
Q 14.984375 22.515625 14.984375 16.5 
Q 14.984375 11.71875 18.140625 8.90625 
Q 21.296875 6.109375 26.703125 6.109375 
Q 34.1875 6.109375 38.703125 11.40625 
Q 43.21875 16.703125 43.21875 25.484375 
L 43.21875 27.484375 
z
M 52.203125 31.203125 
L 52.203125 0 
L 43.21875 0 
L 43.21875 8.296875 
Q 40.140625 3.328125 35.546875 0.953125 
Q 30.953125 -1.421875 24.3125 -1.421875 
Q 15.921875 -1.421875 10.953125 3.296875 
Q 6 8.015625 6 15.921875 
Q 6 25.140625 12.171875 29.828125 
Q 18.359375 34.515625 30.609375 34.515625 
L 43.21875 34.515625 
L 43.21875 35.40625 
Q 43.21875 41.609375 39.140625 45 
Q 35.0625 48.390625 27.6875 48.390625 
Q 23 48.390625 18.546875 47.265625 
Q 14.109375 46.140625 10.015625 43.890625 
L 10.015625 52.203125 
Q 14.9375 54.109375 19.578125 55.046875 
Q 24.21875 56 28.609375 56 
Q 40.484375 56 46.34375 49.84375 
Q 52.203125 43.703125 52.203125 31.203125 
z
" id="DejaVuSans-61"/>
      <path d="M 44.28125 53.078125 
L 44.28125 44.578125 
Q 40.484375 46.53125 36.375 47.5 
Q 32.28125 48.484375 27.875 48.484375 
Q 21.1875 48.484375 17.84375 46.4375 
Q 14.5 44.390625 14.5 40.28125 
Q 14.5 37.15625 16.890625 35.375 
Q 19.28125 33.59375 26.515625 31.984375 
L 29.59375 31.296875 
Q 39.15625 29.25 43.1875 25.515625 
Q 47.21875 21.78125 47.21875 15.09375 
Q 47.21875 7.46875 41.1875 3.015625 
Q 35.15625 -1.421875 24.609375 -1.421875 
Q 20.21875 -1.421875 15.453125 -0.5625 
Q 10.6875 0.296875 5.421875 2 
L 5.421875 11.28125 
Q 10.40625 8.6875 15.234375 7.390625 
Q 20.0625 6.109375 24.8125 6.109375 
Q 31.15625 6.109375 34.5625 8.28125 
Q 37.984375 10.453125 37.984375 14.40625 
Q 37.984375 18.0625 35.515625 20.015625 
Q 33.0625 21.96875 24.703125 23.78125 
L 21.578125 24.515625 
Q 13.234375 26.265625 9.515625 29.90625 
Q 5.8125 33.546875 5.8125 39.890625 
Q 5.8125 47.609375 11.28125 51.796875 
Q 16.75 56 26.8125 56 
Q 31.78125 56 36.171875 55.265625 
Q 40.578125 54.546875 44.28125 53.078125 
z
" id="DejaVuSans-73"/>
      <path d="M 56.203125 29.59375 
L 56.203125 25.203125 
L 14.890625 25.203125 
Q 15.484375 15.921875 20.484375 11.0625 
Q 25.484375 6.203125 34.421875 6.203125 
Q 39.59375 6.203125 44.453125 7.46875 
Q 49.3125 8.734375 54.109375 11.28125 
L 54.109375 2.78125 
Q 49.265625 0.734375 44.1875 -0.34375 
Q 39.109375 -1.421875 33.890625 -1.421875 
Q 20.796875 -1.421875 13.15625 6.1875 
Q 5.515625 13.8125 5.515625 26.8125 
Q 5.515625 40.234375 12.765625 48.109375 
Q 20.015625 56 32.328125 56 
Q 43.359375 56 49.78125 48.890625 
Q 56.203125 41.796875 56.203125 29.59375 
z
M 47.21875 32.234375 
Q 47.125 39.59375 43.09375 43.984375 
Q 39.0625 48.390625 32.421875 48.390625 
Q 24.90625 48.390625 20.390625 44.140625 
Q 15.875 39.890625 15.1875 32.171875 
z
" id="DejaVuSans-65"/>
      <path id="DejaVuSans-20"/>
      <path d="M 59.515625 10.40625 
L 59.515625 29.984375 
L 43.40625 29.984375 
L 43.40625 38.09375 
L 69.28125 38.09375 
L 69.28125 6.78125 
Q 63.578125 2.734375 56.6875 0.65625 
Q 49.8125 -1.421875 42 -1.421875 
Q 24.90625 -1.421875 15.25 8.5625 
Q 5.609375 18.5625 5.609375 36.375 
Q 5.609375 54.25 15.25 64.234375 
Q 24.90625 74.21875 42 74.21875 
Q 49.125 74.21875 55.546875 72.453125 
Q 61.96875 70.703125 67.390625 67.28125 
L 67.390625 56.78125 
Q 61.921875 61.421875 55.765625 63.765625 
Q 49.609375 66.109375 42.828125 66.109375 
Q 29.4375 66.109375 22.71875 58.640625 
Q 16.015625 51.171875 16.015625 36.375 
Q 16.015625 21.625 22.71875 14.15625 
Q 29.4375 6.6875 42.828125 6.6875 
Q 48.046875 6.6875 52.140625 7.59375 
Q 56.25 8.5 59.515625 10.40625 
z
" id="DejaVuSans-47"/>
      <path d="M 34.1875 63.1875 
L 20.796875 26.90625 
L 47.609375 26.90625 
z
M 28.609375 72.90625 
L 39.796875 72.90625 
L 67.578125 0 
L 57.328125 0 
L 50.6875 18.703125 
L 17.828125 18.703125 
L 11.1875 0 
L 0.78125 0 
z
" id="DejaVuSans-41"/>
     </defs>
     <g transform="translate(94.6 58.070437)scale(0.1 -0.1)">
      <use xlink:href="#DejaVuSans-42"/>
      <use x="68.603516" xlink:href="#DejaVuSans-61"/>
      <use x="129.882812" xlink:href="#DejaVuSans-73"/>
      <use x="181.982422" xlink:href="#DejaVuSans-65"/>
      <use x="243.505859" xlink:href="#DejaVuSans-20"/>
      <use x="275.292969" xlink:href="#DejaVuSans-47"/>
      <use x="352.783203" xlink:href="#DejaVuSans-41"/>
     </g>
    </g>
    <g id="line2d_19">
     <path d="M 66.6 69.248562 
L 86.6 69.248562 
" style="fill:none;stroke:#ff0000;stroke-linecap:square;stroke-width:1.5;"/>
    </g>
    <g id="line2d_20"/>
    <g id="text_16">
     <!-- Method II -->
     <defs>
      <path d="M 9.8125 72.90625 
L 24.515625 72.90625 
L 43.109375 23.296875 
L 61.8125 72.90625 
L 76.515625 72.90625 
L 76.515625 0 
L 66.890625 0 
L 66.890625 64.015625 
L 48.09375 14.015625 
L 38.1875 14.015625 
L 19.390625 64.015625 
L 19.390625 0 
L 9.8125 0 
z
" id="DejaVuSans-4d"/>
      <path d="M 18.3125 70.21875 
L 18.3125 54.6875 
L 36.8125 54.6875 
L 36.8125 47.703125 
L 18.3125 47.703125 
L 18.3125 18.015625 
Q 18.3125 11.328125 20.140625 9.421875 
Q 21.96875 7.515625 27.59375 7.515625 
L 36.8125 7.515625 
L 36.8125 0 
L 27.59375 0 
Q 17.1875 0 13.234375 3.875 
Q 9.28125 7.765625 9.28125 18.015625 
L 9.28125 47.703125 
L 2.6875 47.703125 
L 2.6875 54.6875 
L 9.28125 54.6875 
L 9.28125 70.21875 
z
" id="DejaVuSans-74"/>
      <path d="M 54.890625 33.015625 
L 54.890625 0 
L 45.90625 0 
L 45.90625 32.71875 
Q 45.90625 40.484375 42.875 44.328125 
Q 39.84375 48.1875 33.796875 48.1875 
Q 26.515625 48.1875 22.3125 43.546875 
Q 18.109375 38.921875 18.109375 30.90625 
L 18.109375 0 
L 9.078125 0 
L 9.078125 75.984375 
L 18.109375 75.984375 
L 18.109375 46.1875 
Q 21.34375 51.125 25.703125 53.5625 
Q 30.078125 56 35.796875 56 
Q 45.21875 56 50.046875 50.171875 
Q 54.890625 44.34375 54.890625 33.015625 
z
" id="DejaVuSans-68"/>
      <path d="M 30.609375 48.390625 
Q 23.390625 48.390625 19.1875 42.75 
Q 14.984375 37.109375 14.984375 27.296875 
Q 14.984375 17.484375 19.15625 11.84375 
Q 23.34375 6.203125 30.609375 6.203125 
Q 37.796875 6.203125 41.984375 11.859375 
Q 46.1875 17.53125 46.1875 27.296875 
Q 46.1875 37.015625 41.984375 42.703125 
Q 37.796875 48.390625 30.609375 48.390625 
z
M 30.609375 56 
Q 42.328125 56 49.015625 48.375 
Q 55.71875 40.765625 55.71875 27.296875 
Q 55.71875 13.875 49.015625 6.21875 
Q 42.328125 -1.421875 30.609375 -1.421875 
Q 18.84375 -1.421875 12.171875 6.21875 
Q 5.515625 13.875 5.515625 27.296875 
Q 5.515625 40.765625 12.171875 48.375 
Q 18.84375 56 30.609375 56 
z
" id="DejaVuSans-6f"/>
      <path d="M 45.40625 46.390625 
L 45.40625 75.984375 
L 54.390625 75.984375 
L 54.390625 0 
L 45.40625 0 
L 45.40625 8.203125 
Q 42.578125 3.328125 38.25 0.953125 
Q 33.9375 -1.421875 27.875 -1.421875 
Q 17.96875 -1.421875 11.734375 6.484375 
Q 5.515625 14.40625 5.515625 27.296875 
Q 5.515625 40.1875 11.734375 48.09375 
Q 17.96875 56 27.875 56 
Q 33.9375 56 38.25 53.625 
Q 42.578125 51.265625 45.40625 46.390625 
z
M 14.796875 27.296875 
Q 14.796875 17.390625 18.875 11.75 
Q 22.953125 6.109375 30.078125 6.109375 
Q 37.203125 6.109375 41.296875 11.75 
Q 45.40625 17.390625 45.40625 27.296875 
Q 45.40625 37.203125 41.296875 42.84375 
Q 37.203125 48.484375 30.078125 48.484375 
Q 22.953125 48.484375 18.875 42.84375 
Q 14.796875 37.203125 14.796875 27.296875 
z
" id="DejaVuSans-64"/>
      <path d="M 9.8125 72.90625 
L 19.671875 72.90625 
L 19.671875 0 
L 9.8125 0 
z
" id="DejaVuSans-49"/>
     </defs>
     <g transform="translate(94.6 72.748562)scale(0.1 -0.1)">
      <use xlink:href="#DejaVuSans-4d"/>
      <use x="86.279297" xlink:href="#DejaVuSans-65"/>
      <use x="147.802734" xlink:href="#DejaVuSans-74"/>
      <use x="187.011719" xlink:href="#DejaVuSans-68"/>
      <use x="250.390625" xlink:href="#DejaVuSans-6f"/>
      <use x="311.572266" xlink:href="#DejaVuSans-64"/>
      <use x="375.048828" xlink:href="#DejaVuSans-20"/>
      <use x="406.835938" xlink:href="#DejaVuSans-49"/>
      <use x="436.328125" xlink:href="#DejaVuSans-49"/>
     </g>
    </g>
   </g>
  </g>
 </g>
 <defs>
  <clipPath id="p8ea4d9dc05">
   <rect height="266.112" width="357.12" x="57.6" y="41.472"/>
  </clipPath>
 </defs>
</svg>
