<?xml version="1.0" encoding="utf-8" standalone="no"?>
<!DOCTYPE svg PUBLIC "-//W3C//DTD SVG 1.1//EN"
  "http://www.w3.org/Graphics/SVG/1.1/DTD/svg11.dtd">
<!-- Created with matplotlib (http://matplotlib.org/) -->
<svg height="345.6pt" version="1.1" viewBox="0 0 460.8 345.6" width="460.8pt" xmlns="http://www.w3.org/2000/svg" xmlns:xlink="http://www.w3.org/1999/xlink">
 <defs>
  <style type="text/css">
*{stroke-linecap:butt;stroke-linejoin:round;}
  </style>
 </defs>
 <g id="figure_1">
  <g id="patch_1">
   <path d="M 0 345.6 
L 460.8 345.6 
L 460.8 0 
L 0 0 
z
" style="fill:#ffffff;"/>
  </g>
  <g id="axes_1">
   <g id="patch_2">
    <path d="M 57.6 307.584 
L 414.72 307.584 
L 414.72 41.472 
L 57.6 41.472 
z
" style="fill:#ffffff;"/>
   </g>
   <g id="matplotlib.axis_1">
    <g id="xtick_1">
     <g id="line2d_1">
      <defs>
       <path d="M 0 0 
L 0 3.5 
" id="md4dbc976fc" style="stroke:#000000;stroke-width:0.8;"/>
      </defs>
      <g>
       <use style="stroke:#000000;stroke-width:0.8;" x="73.832727" xlink:href="#md4dbc976fc" y="307.584"/>
      </g>
     </g>
     <g id="text_1">
      <!-- 0 -->
      <defs>
       <path d="M 31.78125 66.40625 
Q 24.171875 66.40625 20.328125 58.90625 
Q 16.5 51.421875 16.5 36.375 
Q 16.5 21.390625 20.328125 13.890625 
Q 24.171875 6.390625 31.78125 6.390625 
Q 39.453125 6.390625 43.28125 13.890625 
Q 47.125 21.390625 47.125 36.375 
Q 47.125 51.421875 43.28125 58.90625 
Q 39.453125 66.40625 31.78125 66.40625 
z
M 31.78125 74.21875 
Q 44.046875 74.21875 50.515625 64.515625 
Q 56.984375 54.828125 56.984375 36.375 
Q 56.984375 17.96875 50.515625 8.265625 
Q 44.046875 -1.421875 31.78125 -1.421875 
Q 19.53125 -1.421875 13.0625 8.265625 
Q 6.59375 17.96875 6.59375 36.375 
Q 6.59375 54.828125 13.0625 64.515625 
Q 19.53125 74.21875 31.78125 74.21875 
z
" id="DejaVuSans-30"/>
      </defs>
      <g transform="translate(70.651477 322.182437)scale(0.1 -0.1)">
       <use xlink:href="#DejaVuSans-30"/>
      </g>
     </g>
    </g>
    <g id="xtick_2">
     <g id="line2d_2">
      <g>
       <use style="stroke:#000000;stroke-width:0.8;" x="138.828632" xlink:href="#md4dbc976fc" y="307.584"/>
      </g>
     </g>
     <g id="text_2">
      <!-- 200 -->
      <defs>
       <path d="M 19.1875 8.296875 
L 53.609375 8.296875 
L 53.609375 0 
L 7.328125 0 
L 7.328125 8.296875 
Q 12.9375 14.109375 22.625 23.890625 
Q 32.328125 33.6875 34.8125 36.53125 
Q 39.546875 41.84375 41.421875 45.53125 
Q 43.3125 49.21875 43.3125 52.78125 
Q 43.3125 58.59375 39.234375 62.25 
Q 35.15625 65.921875 28.609375 65.921875 
Q 23.96875 65.921875 18.8125 64.3125 
Q 13.671875 62.703125 7.8125 59.421875 
L 7.8125 69.390625 
Q 13.765625 71.78125 18.9375 73 
Q 24.125 74.21875 28.421875 74.21875 
Q 39.75 74.21875 46.484375 68.546875 
Q 53.21875 62.890625 53.21875 53.421875 
Q 53.21875 48.921875 51.53125 44.890625 
Q 49.859375 40.875 45.40625 35.40625 
Q 44.1875 33.984375 37.640625 27.21875 
Q 31.109375 20.453125 19.1875 8.296875 
z
" id="DejaVuSans-32"/>
      </defs>
      <g transform="translate(129.284882 322.182437)scale(0.1 -0.1)">
       <use xlink:href="#DejaVuSans-32"/>
       <use x="63.623047" xlink:href="#DejaVuSans-30"/>
       <use x="127.246094" xlink:href="#DejaVuSans-30"/>
      </g>
     </g>
    </g>
    <g id="xtick_3">
     <g id="line2d_3">
      <g>
       <use style="stroke:#000000;stroke-width:0.8;" x="203.824537" xlink:href="#md4dbc976fc" y="307.584"/>
      </g>
     </g>
     <g id="text_3">
      <!-- 400 -->
      <defs>
       <path d="M 37.796875 64.3125 
L 12.890625 25.390625 
L 37.796875 25.390625 
z
M 35.203125 72.90625 
L 47.609375 72.90625 
L 47.609375 25.390625 
L 58.015625 25.390625 
L 58.015625 17.1875 
L 47.609375 17.1875 
L 47.609375 0 
L 37.796875 0 
L 37.796875 17.1875 
L 4.890625 17.1875 
L 4.890625 26.703125 
z
" id="DejaVuSans-34"/>
      </defs>
      <g transform="translate(194.280787 322.182437)scale(0.1 -0.1)">
       <use xlink:href="#DejaVuSans-34"/>
       <use x="63.623047" xlink:href="#DejaVuSans-30"/>
       <use x="127.246094" xlink:href="#DejaVuSans-30"/>
      </g>
     </g>
    </g>
    <g id="xtick_4">
     <g id="line2d_4">
      <g>
       <use style="stroke:#000000;stroke-width:0.8;" x="268.820442" xlink:href="#md4dbc976fc" y="307.584"/>
      </g>
     </g>
     <g id="text_4">
      <!-- 600 -->
      <defs>
       <path d="M 33.015625 40.375 
Q 26.375 40.375 22.484375 35.828125 
Q 18.609375 31.296875 18.609375 23.390625 
Q 18.609375 15.53125 22.484375 10.953125 
Q 26.375 6.390625 33.015625 6.390625 
Q 39.65625 6.390625 43.53125 10.953125 
Q 47.40625 15.53125 47.40625 23.390625 
Q 47.40625 31.296875 43.53125 35.828125 
Q 39.65625 40.375 33.015625 40.375 
z
M 52.59375 71.296875 
L 52.59375 62.3125 
Q 48.875 64.0625 45.09375 64.984375 
Q 41.3125 65.921875 37.59375 65.921875 
Q 27.828125 65.921875 22.671875 59.328125 
Q 17.53125 52.734375 16.796875 39.40625 
Q 19.671875 43.65625 24.015625 45.921875 
Q 28.375 48.1875 33.59375 48.1875 
Q 44.578125 48.1875 50.953125 41.515625 
Q 57.328125 34.859375 57.328125 23.390625 
Q 57.328125 12.15625 50.6875 5.359375 
Q 44.046875 -1.421875 33.015625 -1.421875 
Q 20.359375 -1.421875 13.671875 8.265625 
Q 6.984375 17.96875 6.984375 36.375 
Q 6.984375 53.65625 15.1875 63.9375 
Q 23.390625 74.21875 37.203125 74.21875 
Q 40.921875 74.21875 44.703125 73.484375 
Q 48.484375 72.75 52.59375 71.296875 
z
" id="DejaVuSans-36"/>
      </defs>
      <g transform="translate(259.276692 322.182437)scale(0.1 -0.1)">
       <use xlink:href="#DejaVuSans-36"/>
       <use x="63.623047" xlink:href="#DejaVuSans-30"/>
       <use x="127.246094" xlink:href="#DejaVuSans-30"/>
      </g>
     </g>
    </g>
    <g id="xtick_5">
     <g id="line2d_5">
      <g>
       <use style="stroke:#000000;stroke-width:0.8;" x="333.816347" xlink:href="#md4dbc976fc" y="307.584"/>
      </g>
     </g>
     <g id="text_5">
      <!-- 800 -->
      <defs>
       <path d="M 31.78125 34.625 
Q 24.75 34.625 20.71875 30.859375 
Q 16.703125 27.09375 16.703125 20.515625 
Q 16.703125 13.921875 20.71875 10.15625 
Q 24.75 6.390625 31.78125 6.390625 
Q 38.8125 6.390625 42.859375 10.171875 
Q 46.921875 13.96875 46.921875 20.515625 
Q 46.921875 27.09375 42.890625 30.859375 
Q 38.875 34.625 31.78125 34.625 
z
M 21.921875 38.8125 
Q 15.578125 40.375 12.03125 44.71875 
Q 8.5 49.078125 8.5 55.328125 
Q 8.5 64.0625 14.71875 69.140625 
Q 20.953125 74.21875 31.78125 74.21875 
Q 42.671875 74.21875 48.875 69.140625 
Q 55.078125 64.0625 55.078125 55.328125 
Q 55.078125 49.078125 51.53125 44.71875 
Q 48 40.375 41.703125 38.8125 
Q 48.828125 37.15625 52.796875 32.3125 
Q 56.78125 27.484375 56.78125 20.515625 
Q 56.78125 9.90625 50.3125 4.234375 
Q 43.84375 -1.421875 31.78125 -1.421875 
Q 19.734375 -1.421875 13.25 4.234375 
Q 6.78125 9.90625 6.78125 20.515625 
Q 6.78125 27.484375 10.78125 32.3125 
Q 14.796875 37.15625 21.921875 38.8125 
z
M 18.3125 54.390625 
Q 18.3125 48.734375 21.84375 45.5625 
Q 25.390625 42.390625 31.78125 42.390625 
Q 38.140625 42.390625 41.71875 45.5625 
Q 45.3125 48.734375 45.3125 54.390625 
Q 45.3125 60.0625 41.71875 63.234375 
Q 38.140625 66.40625 31.78125 66.40625 
Q 25.390625 66.40625 21.84375 63.234375 
Q 18.3125 60.0625 18.3125 54.390625 
z
" id="DejaVuSans-38"/>
      </defs>
      <g transform="translate(324.272597 322.182437)scale(0.1 -0.1)">
       <use xlink:href="#DejaVuSans-38"/>
       <use x="63.623047" xlink:href="#DejaVuSans-30"/>
       <use x="127.246094" xlink:href="#DejaVuSans-30"/>
      </g>
     </g>
    </g>
    <g id="xtick_6">
     <g id="line2d_6">
      <g>
       <use style="stroke:#000000;stroke-width:0.8;" x="398.812252" xlink:href="#md4dbc976fc" y="307.584"/>
      </g>
     </g>
     <g id="text_6">
      <!-- 1000 -->
      <defs>
       <path d="M 12.40625 8.296875 
L 28.515625 8.296875 
L 28.515625 63.921875 
L 10.984375 60.40625 
L 10.984375 69.390625 
L 28.421875 72.90625 
L 38.28125 72.90625 
L 38.28125 8.296875 
L 54.390625 8.296875 
L 54.390625 0 
L 12.40625 0 
z
" id="DejaVuSans-31"/>
      </defs>
      <g transform="translate(386.087252 322.182437)scale(0.1 -0.1)">
       <use xlink:href="#DejaVuSans-31"/>
       <use x="63.623047" xlink:href="#DejaVuSans-30"/>
       <use x="127.246094" xlink:href="#DejaVuSans-30"/>
       <use x="190.869141" xlink:href="#DejaVuSans-30"/>
      </g>
     </g>
    </g>
   </g>
   <g id="matplotlib.axis_2">
    <g id="ytick_1">
     <g id="line2d_7">
      <defs>
       <path d="M 0 0 
L -3.5 0 
" id="m2ebe239bfa" style="stroke:#000000;stroke-width:0.8;"/>
      </defs>
      <g>
       <use style="stroke:#000000;stroke-width:0.8;" x="57.6" xlink:href="#m2ebe239bfa" y="274.327212"/>
      </g>
     </g>
     <g id="text_7">
      <!-- 800 -->
      <g transform="translate(31.5125 278.126431)scale(0.1 -0.1)">
       <use xlink:href="#DejaVuSans-38"/>
       <use x="63.623047" xlink:href="#DejaVuSans-30"/>
       <use x="127.246094" xlink:href="#DejaVuSans-30"/>
      </g>
     </g>
    </g>
    <g id="ytick_2">
     <g id="line2d_8">
      <g>
       <use style="stroke:#000000;stroke-width:0.8;" x="57.6" xlink:href="#m2ebe239bfa" y="238.565017"/>
      </g>
     </g>
     <g id="text_8">
      <!-- 1000 -->
      <g transform="translate(25.15 242.364235)scale(0.1 -0.1)">
       <use xlink:href="#DejaVuSans-31"/>
       <use x="63.623047" xlink:href="#DejaVuSans-30"/>
       <use x="127.246094" xlink:href="#DejaVuSans-30"/>
       <use x="190.869141" xlink:href="#DejaVuSans-30"/>
      </g>
     </g>
    </g>
    <g id="ytick_3">
     <g id="line2d_9">
      <g>
       <use style="stroke:#000000;stroke-width:0.8;" x="57.6" xlink:href="#m2ebe239bfa" y="202.802821"/>
      </g>
     </g>
     <g id="text_9">
      <!-- 1200 -->
      <g transform="translate(25.15 206.60204)scale(0.1 -0.1)">
       <use xlink:href="#DejaVuSans-31"/>
       <use x="63.623047" xlink:href="#DejaVuSans-32"/>
       <use x="127.246094" xlink:href="#DejaVuSans-30"/>
       <use x="190.869141" xlink:href="#DejaVuSans-30"/>
      </g>
     </g>
    </g>
    <g id="ytick_4">
     <g id="line2d_10">
      <g>
       <use style="stroke:#000000;stroke-width:0.8;" x="57.6" xlink:href="#m2ebe239bfa" y="167.040625"/>
      </g>
     </g>
     <g id="text_10">
      <!-- 1400 -->
      <g transform="translate(25.15 170.839844)scale(0.1 -0.1)">
       <use xlink:href="#DejaVuSans-31"/>
       <use x="63.623047" xlink:href="#DejaVuSans-34"/>
       <use x="127.246094" xlink:href="#DejaVuSans-30"/>
       <use x="190.869141" xlink:href="#DejaVuSans-30"/>
      </g>
     </g>
    </g>
    <g id="ytick_5">
     <g id="line2d_11">
      <g>
       <use style="stroke:#000000;stroke-width:0.8;" x="57.6" xlink:href="#m2ebe239bfa" y="131.27843"/>
      </g>
     </g>
     <g id="text_11">
      <!-- 1600 -->
      <g transform="translate(25.15 135.077648)scale(0.1 -0.1)">
       <use xlink:href="#DejaVuSans-31"/>
       <use x="63.623047" xlink:href="#DejaVuSans-36"/>
       <use x="127.246094" xlink:href="#DejaVuSans-30"/>
       <use x="190.869141" xlink:href="#DejaVuSans-30"/>
      </g>
     </g>
    </g>
    <g id="ytick_6">
     <g id="line2d_12">
      <g>
       <use style="stroke:#000000;stroke-width:0.8;" x="57.6" xlink:href="#m2ebe239bfa" y="95.516234"/>
      </g>
     </g>
     <g id="text_12">
      <!-- 1800 -->
      <g transform="translate(25.15 99.315453)scale(0.1 -0.1)">
       <use xlink:href="#DejaVuSans-31"/>
       <use x="63.623047" xlink:href="#DejaVuSans-38"/>
       <use x="127.246094" xlink:href="#DejaVuSans-30"/>
       <use x="190.869141" xlink:href="#DejaVuSans-30"/>
      </g>
     </g>
    </g>
    <g id="ytick_7">
     <g id="line2d_13">
      <g>
       <use style="stroke:#000000;stroke-width:0.8;" x="57.6" xlink:href="#m2ebe239bfa" y="59.754038"/>
      </g>
     </g>
     <g id="text_13">
      <!-- 2000 -->
      <g transform="translate(25.15 63.553257)scale(0.1 -0.1)">
       <use xlink:href="#DejaVuSans-32"/>
       <use x="63.623047" xlink:href="#DejaVuSans-30"/>
       <use x="127.246094" xlink:href="#DejaVuSans-30"/>
       <use x="190.869141" xlink:href="#DejaVuSans-30"/>
      </g>
     </g>
    </g>
   </g>
   <g id="line2d_14">
    <path clip-path="url(#pea040c9e57)" d="M 73.832727 295.488 
L 74.157707 243.138005 
L 74.482686 219.479937 
L 74.807666 207.78845 
L 75.132645 206.284365 
L 75.457625 201.656001 
L 75.782604 199.428456 
L 76.107584 199.085482 
L 76.432563 195.12163 
L 76.757543 188.642635 
L 77.082523 185.087851 
L 77.407502 183.696305 
L 77.732482 181.472332 
L 78.057461 181.870683 
L 78.382441 177.738916 
L 78.70742 186.039962 
L 79.0324 186.059611 
L 79.357379 182.497682 
L 79.682359 181.284768 
L 80.007338 183.905305 
L 80.332318 177.404874 
L 80.657297 180.664914 
L 80.982277 177.199447 
L 81.307256 175.493508 
L 81.632236 169.707606 
L 81.957215 173.021236 
L 82.282195 180.857837 
L 82.607174 181.007888 
L 82.932154 180.791743 
L 83.257133 177.754993 
L 83.582113 175.904362 
L 83.907093 178.139053 
L 84.232072 182.027879 
L 84.557052 175.484576 
L 84.882031 181.416956 
L 85.207011 181.207957 
L 85.53199 183.651647 
L 85.85697 181.113281 
L 86.181949 184.852056 
L 86.506929 185.393312 
L 86.831908 181.366939 
L 87.156888 186.086406 
L 87.481867 181.366939 
L 87.806847 178.730326 
L 88.131826 169.968409 
L 88.456806 172.687194 
L 88.781785 181.936777 
L 89.106765 186.329346 
L 89.431744 177.92648 
L 89.756724 181.697409 
L 90.081704 178.126549 
L 90.406683 170.995545 
L 90.731663 175.495294 
L 91.056642 169.886238 
L 91.381622 169.534333 
L 91.706601 166.452925 
L 92.35656 171.517152 
L 92.68154 165.023866 
L 93.006519 172.624672 
L 93.331499 171.04199 
L 93.656478 175.514944 
L 93.981458 169.119906 
L 94.306437 171.501075 
L 94.631417 171.654699 
L 94.956396 170.273871 
L 95.281376 170.933024 
L 95.606355 176.849327 
L 95.931335 171.275998 
L 96.256314 175.461354 
L 96.581294 175.080867 
L 96.906274 168.657248 
L 97.231253 167.081711 
L 97.556233 170.872289 
L 97.881212 169.977341 
L 98.206192 172.906911 
L 98.531171 170.918733 
L 98.856151 173.555347 
L 99.18113 171.974451 
L 99.50611 177.747848 
L 99.831089 178.782129 
L 100.156069 184.153604 
L 100.806028 169.573632 
L 101.131007 172.68898 
L 101.455987 169.829076 
L 101.780966 170.343537 
L 102.105946 172.288844 
L 102.430925 162.231842 
L 102.755905 162.846338 
L 103.080885 168.64653 
L 103.405864 166.254643 
L 103.730844 169.055598 
L 104.055823 166.640489 
L 104.380803 166.029566 
L 104.705782 164.655883 
L 105.030762 168.276761 
L 105.355741 169.441444 
L 105.680721 171.529656 
L 106.0057 165.182849 
L 106.33068 161.154689 
L 106.655659 165.390062 
L 106.980639 167.028121 
L 107.305618 164.20573 
L 107.630598 165.572267 
L 108.280557 162.246133 
L 108.605536 166.572608 
L 108.930516 164.580858 
L 109.255495 165.141763 
L 109.580475 159.200452 
L 110.230434 166.751241 
L 110.555414 161.928167 
L 110.880393 165.418644 
L 111.205373 165.888447 
L 111.530352 161.669151 
L 111.855332 163.987798 
L 112.180311 163.900269 
L 112.505291 163.966363 
L 112.83027 164.825584 
L 113.15525 172.978364 
L 113.480229 161.447646 
L 113.805209 160.997493 
L 114.455168 147.380349 
L 114.780147 143.003857 
L 115.105127 134.886803 
L 115.430106 141.349721 
L 115.755086 139.304381 
L 116.080066 141.601593 
L 116.405045 145.090283 
L 116.730025 144.37218 
L 117.055004 140.458346 
L 117.379984 138.039664 
L 117.704963 138.400501 
L 118.029943 145.53865 
L 118.354922 141.585516 
L 118.679902 134.495598 
L 119.004881 140.152884 
L 119.329861 134.454513 
L 119.65484 142.732336 
L 119.97982 136.669554 
L 120.304799 146.033461 
L 120.629779 147.701887 
L 120.954758 139.638423 
L 121.279738 144.902719 
L 121.929697 140.804893 
L 122.254676 140.040346 
L 122.904636 145.452906 
L 123.229615 138.178997 
L 123.554595 135.360179 
L 123.879574 142.260746 
L 124.204554 140.38332 
L 124.529533 134.604564 
L 125.179492 138.141484 
L 125.504472 141.285414 
L 125.829451 145.788735 
L 126.154431 146.681897 
L 126.47941 141.155012 
L 126.80439 145.313573 
L 127.129369 151.340628 
L 127.454349 146.244247 
L 127.779328 144.47936 
L 128.104308 151.721115 
L 128.429287 147.344623 
L 128.754267 147.230298 
L 129.079247 154.100498 
L 129.404226 148.084161 
L 129.729206 149.85798 
L 130.054185 143.368267 
L 130.379165 148.991613 
L 131.029124 141.901695 
L 131.354103 149.098792 
L 131.679083 145.826248 
L 132.004062 144.525804 
L 132.329042 142.618011 
L 132.654021 146.306769 
L 132.979001 147.67152 
L 133.30398 149.724006 
L 133.62896 149.632903 
L 133.953939 145.726214 
L 134.278919 144.064933 
L 134.603898 147.885879 
L 134.928878 139.415133 
L 135.253857 136.346229 
L 135.578837 130.085165 
L 135.903817 140.308295 
L 136.228796 131.453489 
L 136.553776 132.889693 
L 136.878755 136.124725 
L 137.203735 136.435545 
L 137.528714 135.556674 
L 138.178673 141.935635 
L 138.503653 142.496541 
L 138.828632 144.102446 
L 139.153612 137.55557 
L 139.478591 145.020616 
L 139.803571 141.655183 
L 140.12855 135.826409 
L 140.45353 141.056764 
L 140.778509 137.246536 
L 141.103489 145.036693 
L 141.428468 140.604824 
L 141.753448 130.085165 
L 142.078428 136.005041 
L 142.403407 144.35789 
L 142.728387 138.413005 
L 143.053366 147.135623 
L 143.378346 143.212857 
L 143.703325 150.869039 
L 144.028305 140.494072 
L 144.353284 138.071818 
L 144.678264 148.198485 
L 145.003243 142.278609 
L 145.328223 144.118523 
L 145.978182 139.947457 
L 146.303161 151.001227 
L 146.628141 148.087733 
L 146.95312 147.676879 
L 147.2781 147.707246 
L 147.603079 154.6096 
L 147.928059 146.285333 
L 148.253038 147.214221 
L 148.578018 150.493911 
L 148.902998 146.279974 
L 149.227977 146.306769 
L 149.552957 149.897279 
L 150.202916 141.140721 
L 150.527895 144.179258 
L 150.852875 141.492627 
L 151.177854 141.337217 
L 151.502834 144.393616 
L 151.827813 143.237865 
L 152.152793 146.090624 
L 152.477772 142.423302 
L 152.802752 141.94814 
L 153.127731 146.260324 
L 153.452711 146.696187 
L 153.77769 151.406722 
L 154.10267 140.213619 
L 154.427649 139.320458 
L 154.752629 139.143612 
L 155.077609 140.628047 
L 155.402588 147.348195 
L 155.727568 148.493229 
L 156.052547 134.808205 
L 156.377527 144.225702 
L 156.702506 145.64047 
L 157.027486 139.070372 
L 157.677445 143.545113 
L 158.327404 148.252075 
L 158.652383 146.817657 
L 158.977363 147.391067 
L 159.302342 142.782353 
L 159.627322 147.553623 
L 159.952301 146.601512 
L 160.60226 151.669312 
L 160.92724 155.308053 
L 161.252219 153.941515 
L 161.577199 149.598963 
L 161.902179 150.215245 
L 162.227158 143.246797 
L 162.552138 146.163863 
L 162.877117 140.285072 
L 163.202097 147.535759 
L 163.527076 138.777415 
L 163.852056 140.576243 
L 164.177035 144.899146 
L 164.502015 143.178916 
L 164.826994 142.546558 
L 165.151974 135.865708 
L 165.476953 136.712425 
L 166.126912 149.743655 
L 166.451892 141.737353 
L 166.776871 141.646251 
L 167.101851 142.376857 
L 167.42683 143.514745 
L 167.75181 141.896336 
L 168.07679 138.339766 
L 168.401769 146.90876 
L 168.726749 142.194652 
L 169.051728 142.373285 
L 169.376708 143.470087 
L 169.701687 143.305745 
L 170.026667 150.835099 
L 170.351646 142.446524 
L 170.676626 139.265082 
L 171.001605 144.004198 
L 171.326585 145.036693 
L 171.651564 138.720253 
L 171.976544 144.922368 
L 172.301523 140.454773 
L 172.626503 139.088236 
L 173.276462 138.480886 
L 173.601441 138.330835 
L 173.926421 139.257936 
L 174.2514 137.902117 
L 174.57638 138.748834 
L 174.90136 138.886381 
L 175.226339 141.90884 
L 175.551319 146.03882 
L 175.876298 145.304641 
L 176.201278 139.861714 
L 176.526257 144.849129 
L 176.851237 144.563317 
L 177.176216 140.795961 
L 177.826175 152.094457 
L 178.151155 148.152041 
L 178.476134 148.471793 
L 178.801114 149.313151 
L 179.126093 148.659357 
L 179.451073 152.417781 
L 179.776052 145.308214 
L 180.101032 146.69976 
L 180.426011 144.713368 
L 180.750991 136.346229 
L 181.075971 137.503767 
L 181.40095 148.789758 
L 181.72593 139.709876 
L 182.050909 139.797406 
L 182.375889 144.170326 
L 182.700868 141.506918 
L 183.025848 141.208602 
L 183.350827 145.199248 
L 183.675807 145.944145 
L 184.000786 141.635533 
L 184.325766 140.465491 
L 184.650745 138.523757 
L 184.975725 135.656708 
L 185.300704 137.450177 
L 185.625684 148.570041 
L 185.950663 145.042052 
L 186.275643 148.402126 
L 186.600622 139.49909 
L 186.925602 146.455034 
L 187.250581 147.076674 
L 187.575561 140.64591 
L 187.900541 148.73081 
L 188.22552 143.173557 
L 188.5505 152.946533 
L 188.875479 141.824883 
L 189.200459 143.641574 
L 189.525438 137.534134 
L 189.850418 139.79562 
L 190.175397 139.368688 
L 190.500377 143.586198 
L 190.825356 140.177893 
L 191.150336 144.68836 
L 191.475315 138.627364 
L 191.800295 140.940653 
L 192.125274 141.4962 
L 192.450254 145.304641 
L 192.775233 145.527932 
L 193.100213 138.062886 
L 193.425192 135.52452 
L 193.750172 140.949585 
L 194.725111 150.926201 
L 195.05009 147.074888 
L 195.37507 147.466093 
L 195.700049 144.915223 
L 196.025029 148.475365 
L 196.350008 153.855772 
L 196.674988 145.385026 
L 196.999967 146.805153 
L 197.324947 151.031594 
L 197.649926 151.474603 
L 198.299885 140.856696 
L 198.624865 147.458947 
L 198.949844 147.607212 
L 199.274824 146.662247 
L 199.599803 143.863078 
L 199.924783 149.636476 
L 200.574742 139.609842 
L 200.899722 140.374389 
L 201.224701 145.78159 
L 201.549681 146.151359 
L 201.87466 144.591898 
L 202.19964 147.800135 
L 202.524619 145.231402 
L 202.849599 145.517214 
L 203.174578 136.928571 
L 203.499558 141.249687 
L 203.824537 138.711321 
L 204.149517 141.471191 
L 204.799476 139.513381 
L 205.124455 137.116135 
L 205.449435 140.724508 
L 205.774414 138.204006 
L 206.099394 136.657049 
L 206.424373 148.396767 
L 206.749353 143.248583 
L 207.074333 143.475446 
L 207.724292 152.019431 
L 208.049271 153.777174 
L 208.374251 150.983364 
L 208.69923 150.295629 
L 209.02421 138.16292 
L 209.349189 142.782353 
L 209.999148 141.501559 
L 210.324128 148.503947 
L 210.974087 136.819605 
L 211.299066 144.741949 
L 211.624046 140.076073 
L 211.949025 144.490078 
L 212.274005 142.262532 
L 212.598984 137.212596 
L 212.923964 140.985311 
L 213.248943 138.325476 
L 213.573923 142.276823 
L 213.898903 136.612391 
L 214.223882 135.197623 
L 214.873841 141.930276 
L 215.198821 142.396507 
L 215.5238 140.061782 
L 215.84878 140.74773 
L 216.173759 141.905268 
L 216.498739 141.426533 
L 216.823718 139.570543 
L 217.148698 144.365035 
L 217.473677 143.011002 
L 217.798657 154.931138 
L 218.123636 145.888769 
L 218.448616 150.749355 
L 218.773595 145.638684 
L 219.098575 147.91446 
L 219.423554 139.288304 
L 219.748534 149.899065 
L 220.073514 137.437673 
L 220.398493 142.775207 
L 220.723473 137.323348 
L 221.048452 144.045283 
L 221.373432 143.016361 
L 221.698411 144.502582 
L 222.023391 149.018408 
L 222.34837 141.71949 
L 222.67335 142.955626 
L 222.998329 146.290692 
L 223.323309 136.889272 
L 223.648288 143.302173 
L 223.973268 137.516271 
L 224.298247 141.680191 
L 224.623227 137.659177 
L 224.948206 139.870645 
L 225.273186 143.180703 
L 225.598165 144.089941 
L 225.923145 147.014153 
L 226.248124 140.819183 
L 226.573104 140.661987 
L 226.898084 135.376256 
L 227.548043 148.182408 
L 227.873022 142.219661 
L 228.198002 139.138253 
L 228.522981 148.611126 
L 228.847961 147.074888 
L 229.17294 142.246456 
L 229.49792 141.104995 
L 229.822899 144.622266 
L 230.147879 144.043497 
L 230.797838 133.539915 
L 231.122817 139.784902 
L 231.447797 140.390465 
L 231.772776 145.940572 
L 232.097756 145.03312 
L 232.422735 138.997133 
L 232.747715 141.733781 
L 233.072695 150.142005 
L 233.397674 151.960483 
L 233.722654 149.309579 
L 234.047633 151.860448 
L 235.022572 146.228171 
L 235.347551 147.717964 
L 235.672531 145.488633 
L 235.99751 144.540095 
L 236.972449 150.174159 
L 237.297428 146.955204 
L 237.622408 139.443714 
L 237.947387 140.086791 
L 238.272367 145.08671 
L 238.597346 143.357549 
L 238.922326 148.73081 
L 239.247305 136.364092 
L 239.572285 144.209625 
L 239.897265 144.448992 
L 240.222244 141.801661 
L 240.547224 141.99637 
L 240.872203 138.468381 
L 241.197183 143.704096 
L 241.522162 145.524359 
L 241.847142 141.364012 
L 242.172121 133.409513 
L 242.497101 137.614519 
L 242.82208 138.516612 
L 243.14706 138.071818 
L 243.472039 137.384083 
L 243.797019 141.992798 
L 244.121998 134.806418 
L 244.446978 139.483013 
L 244.771957 134.274094 
L 245.096937 145.177812 
L 245.421916 142.698395 
L 245.746896 149.07557 
L 246.071876 147.923392 
L 246.396855 152.439217 
L 246.721835 146.758709 
L 247.046814 147.669734 
L 247.371794 150.083057 
L 247.696773 147.321401 
L 248.346732 149.105938 
L 248.671712 143.441506 
L 248.996691 145.638684 
L 249.321671 140.304722 
L 249.64665 139.68844 
L 249.97163 140.463705 
L 250.296609 139.286518 
L 250.621589 134.963615 
L 251.271548 144.595471 
L 251.596527 142.655524 
L 251.921507 148.198485 
L 252.246486 141.924917 
L 252.571466 142.484037 
L 252.896446 146.571145 
L 253.221425 136.024691 
L 253.546405 143.771976 
L 253.871384 145.790521 
L 254.196364 143.012788 
L 254.521343 144.477574 
L 254.846323 144.154249 
L 255.171302 143.327181 
L 255.496282 141.390807 
L 255.821261 140.758448 
L 256.146241 141.556935 
L 256.47122 144.131027 
L 256.7962 143.562976 
L 257.121179 138.35227 
L 257.446159 140.774525 
L 257.771138 141.506918 
L 258.096118 134.220504 
L 258.421097 142.057105 
L 258.746077 139.006065 
L 259.071057 147.430366 
L 259.396036 140.981739 
L 259.721016 145.24212 
L 260.045995 142.271464 
L 260.370975 145.297496 
L 260.695954 144.416839 
L 261.020934 142.753771 
L 261.345913 147.39464 
L 261.670893 135.047572 
L 261.995872 139.400842 
L 262.645831 144.527591 
L 262.970811 148.848707 
L 263.29579 149.698997 
L 263.62077 146.028102 
L 263.945749 139.181125 
L 264.270729 138.232587 
L 264.595708 146.201376 
L 264.920688 150.233108 
L 265.245667 141.172875 
L 265.570647 141.2872 
L 265.895627 143.214643 
L 266.220606 143.468301 
L 266.545586 146.390726 
L 266.870565 143.648719 
L 267.195545 142.907395 
L 267.520524 139.790261 
L 267.845504 142.905609 
L 268.170483 143.330754 
L 268.495463 139.46515 
L 268.820442 143.384344 
L 269.145422 144.818761 
L 269.470401 136.853545 
L 269.795381 145.840538 
L 270.12036 146.858743 
L 270.44534 144.241779 
L 270.770319 147.642939 
L 271.420278 144.706223 
L 271.745258 150.379586 
L 272.070238 149.381031 
L 272.395217 134.779624 
L 272.720197 141.896336 
L 273.045176 143.012788 
L 273.370156 139.15433 
L 273.695135 138.59521 
L 274.345094 147.242802 
L 274.670074 146.333564 
L 274.995053 140.613756 
L 275.320033 138.968552 
L 275.645012 131.989386 
L 275.969992 139.443714 
L 276.294971 138.961407 
L 276.94493 145.960222 
L 277.26991 144.652633 
L 277.594889 144.58118 
L 277.919869 139.250791 
L 278.244848 145.840538 
L 278.569828 142.946694 
L 278.894808 143.432574 
L 279.544767 138.78992 
L 279.869746 144.715155 
L 280.194726 136.703494 
L 280.844685 148.053793 
L 281.169664 139.259723 
L 281.494644 142.653737 
L 281.819623 143.187848 
L 282.144603 142.396507 
L 282.469582 133.004018 
L 282.794562 141.646251 
L 283.119541 137.357288 
L 283.444521 144.041711 
L 283.7695 138.748834 
L 284.09448 142.175003 
L 284.419459 142.991352 
L 284.744439 146.12635 
L 285.069419 143.679087 
L 285.394398 145.461838 
L 285.719378 143.320036 
L 286.044357 142.201797 
L 286.694316 150.935133 
L 287.344275 140.333303 
L 287.669255 141.865969 
L 287.994234 140.85491 
L 288.319214 145.745863 
L 288.644193 145.24212 
L 288.969173 148.996972 
L 289.619132 146.390726 
L 290.269091 134.938606 
L 290.59407 143.87201 
L 290.91905 139.76168 
L 291.244029 139.306167 
L 291.569009 141.437251 
L 291.893989 141.610524 
L 292.218968 144.234634 
L 292.543948 141.614097 
L 292.868927 144.556172 
L 293.518886 141.430106 
L 293.843866 140.636978 
L 294.168845 146.022743 
L 294.493825 144.266787 
L 294.818804 141.031756 
L 295.143784 147.580417 
L 295.468763 149.398895 
L 295.793743 148.475365 
L 296.118722 140.972807 
L 296.443702 141.090704 
L 296.768681 135.197623 
L 297.093661 138.52733 
L 297.41864 137.116135 
L 297.74362 139.936739 
L 298.0686 134.842145 
L 298.393579 137.982501 
L 298.718559 137.207237 
L 299.043538 139.727739 
L 299.368518 135.529879 
L 299.693497 136.769588 
L 300.018477 136.119366 
L 300.343456 138.398715 
L 300.668436 144.590112 
L 300.993415 138.841723 
L 301.318395 144.154249 
L 301.643374 142.217874 
L 301.968354 135.931802 
L 302.293333 141.994584 
L 302.618313 143.036011 
L 302.943292 134.634931 
L 303.268272 142.56978 
L 303.593251 141.130003 
L 303.918231 143.030652 
L 304.24321 142.099977 
L 304.56819 135.372683 
L 304.89317 142.087473 
L 305.543129 137.200092 
L 305.868108 144.218557 
L 306.193088 142.428661 
L 306.518067 145.604744 
L 306.843047 146.64617 
L 307.168026 143.836283 
L 307.493006 145.286778 
L 307.817985 144.96524 
L 308.142965 143.482591 
L 308.467944 143.327181 
L 308.792924 145.756581 
L 309.117903 139.958175 
L 309.442883 137.560929 
L 309.767862 141.71949 
L 310.092842 139.122176 
L 310.417821 137.911049 
L 310.742801 138.382638 
L 311.067781 142.153567 
L 311.39276 143.203925 
L 312.042719 134.820709 
L 312.692678 144.622266 
L 313.017658 144.995607 
L 313.342637 156.281599 
L 313.992596 135.188692 
L 314.317576 142.525122 
L 314.642555 138.679168 
L 314.967535 136.319434 
L 315.292514 141.917772 
L 315.617494 138.325476 
L 315.942473 141.837388 
L 316.267453 142.044601 
L 316.592432 137.430528 
L 316.917412 140.933508 
L 317.242391 140.583388 
L 317.567371 136.32658 
L 317.892351 137.359075 
L 318.21733 142.410797 
L 318.54231 139.8635 
L 318.867289 141.412243 
L 319.192269 139.8635 
L 319.517248 143.02172 
L 319.842228 149.941937 
L 320.167207 138.334407 
L 320.492187 146.172795 
L 320.817166 141.533713 
L 321.142146 144.325736 
L 321.467125 140.217192 
L 321.792105 144.422198 
L 322.117084 145.672624 
L 322.442064 143.548685 
L 322.767043 136.601673 
L 323.092023 140.681636 
L 323.417002 134.243726 
L 323.741982 135.842486 
L 324.066962 129.936901 
L 324.391941 131.921506 
L 324.716921 137.682399 
L 325.0419 131.526728 
L 325.36688 138.934612 
L 325.691859 139.122176 
L 326.016839 147.241016 
L 326.341818 140.681636 
L 326.666798 136.728502 
L 326.991777 147.037375 
L 327.316757 145.136727 
L 327.641736 139.270441 
L 327.966716 141.910627 
L 328.291695 139.418706 
L 328.616675 142.837729 
L 328.941654 143.748754 
L 329.266634 145.134941 
L 329.591613 141.882046 
L 329.916593 144.341813 
L 330.241572 145.535077 
L 330.891532 155.742129 
L 331.216511 145.183171 
L 331.541491 144.53295 
L 331.86647 139.968893 
L 332.19145 140.222551 
L 332.516429 141.59802 
L 332.841409 140.513722 
L 333.166388 133.647094 
L 333.491368 142.01602 
L 333.816347 142.207156 
L 334.141327 145.370735 
L 334.466306 142.700182 
L 334.791286 141.0782 
L 335.116265 146.692615 
L 335.441245 144.443633 
L 335.766224 147.741187 
L 336.091204 146.765854 
L 336.416183 144.365035 
L 336.741163 136.197964 
L 337.066143 130.91402 
L 337.391122 142.494755 
L 337.716102 142.387575 
L 338.041081 135.303016 
L 338.69104 144.098873 
L 339.01602 143.012788 
L 339.340999 144.952736 
L 339.665979 147.714392 
L 339.990958 155.00795 
L 340.315938 155.870745 
L 340.640917 152.98226 
L 340.965897 156.315539 
L 341.290876 144.343599 
L 341.615856 141.472978 
L 341.940835 137.03575 
L 342.265815 144.813402 
L 342.590794 138.232587 
L 342.915774 148.500374 
L 343.240753 139.491945 
L 343.565733 140.840619 
L 343.890713 137.734203 
L 344.215692 136.314075 
L 344.540672 139.016783 
L 344.865651 137.394801 
L 345.190631 138.600569 
L 345.51561 142.978848 
L 345.84059 144.58118 
L 346.165569 147.626862 
L 346.490549 137.514485 
L 347.140508 142.505472 
L 347.465487 137.930698 
L 347.790467 136.348016 
L 348.115446 143.739822 
L 348.440426 138.841723 
L 348.765405 143.771976 
L 349.090385 144.045283 
L 349.415364 147.507178 
L 349.740344 139.356184 
L 350.065324 138.539834 
L 350.390303 143.625497 
L 350.715283 144.799112 
L 351.040262 148.757605 
L 351.365242 146.676538 
L 351.690221 142.959199 
L 352.015201 141.721276 
L 352.34018 141.006747 
L 352.66516 143.600489 
L 352.990139 142.135704 
L 353.315119 147.298178 
L 353.640098 145.092069 
L 353.965078 146.592581 
L 354.290057 145.976299 
L 354.615037 145.031334 
L 354.940016 141.187166 
L 355.264996 143.034224 
L 355.589975 142.10355 
L 355.914955 140.352953 
L 356.239934 142.385789 
L 356.564914 139.840278 
L 356.889894 145.811957 
L 357.214873 128.802585 
L 357.539853 138.175424 
L 357.864832 134.393778 
L 358.189812 147.224939 
L 358.514791 144.054215 
L 358.839771 137.496621 
L 359.16475 144.84377 
L 359.48973 143.334327 
L 359.814709 145.352872 
L 360.139689 142.494755 
L 360.464668 145.249265 
L 360.789648 144.677642 
L 361.114627 145.960222 
L 361.439607 146.508623 
L 361.764586 139.888509 
L 362.089566 140.101081 
L 362.414545 142.93419 
L 362.739525 136.54987 
L 363.064505 139.729526 
L 363.389484 145.724427 
L 363.714464 140.858482 
L 364.039443 142.625156 
L 364.364423 148.938023 
L 364.689402 146.647957 
L 365.014382 141.733781 
L 365.339361 144.484719 
L 365.664341 141.980293 
L 365.98932 140.395824 
L 366.3143 148.898724 
L 366.639279 143.014575 
L 366.964259 144.243565 
L 367.614218 136.312289 
L 367.939197 142.341131 
L 368.264177 138.571988 
L 368.589156 146.3157 
L 368.914136 143.246797 
L 369.239115 143.491523 
L 369.564095 144.892001 
L 369.889075 144.077437 
L 370.214054 147.349982 
L 371.188993 139.788474 
L 371.513972 134.779624 
L 371.838952 135.390546 
L 372.81389 141.292559 
L 373.13887 139.023928 
L 373.463849 143.064592 
L 373.788829 140.513722 
L 374.113808 140.386893 
L 374.438788 148.621844 
L 374.763767 145.969154 
L 375.088747 138.198647 
L 375.413726 139.225783 
L 375.738706 139.223996 
L 376.063686 135.485221 
L 376.388665 134.070453 
L 376.713645 133.586359 
L 377.038624 149.070211 
L 377.363604 140.570884 
L 377.688583 144.49365 
L 378.013563 144.004198 
L 378.338542 145.624393 
L 378.663522 148.837989 
L 379.313481 140.067141 
L 379.63846 144.397189 
L 379.96344 152.290952 
L 380.613399 139.715235 
L 380.938378 139.616987 
L 381.263358 135.454854 
L 381.588337 137.93963 
L 381.913317 137.952134 
L 382.238296 136.367665 
L 382.563276 135.336956 
L 382.888256 133.572069 
L 383.213235 133.473821 
L 383.538215 133.813223 
L 383.863194 138.966766 
L 384.188174 136.456981 
L 384.513153 136.555229 
L 385.163112 144.53295 
L 385.488092 137.071477 
L 385.813071 134.952897 
L 386.138051 144.132813 
L 386.46303 142.303618 
L 386.78801 139.225783 
L 387.112989 143.512959 
L 387.437969 144.993821 
L 387.762948 135.381615 
L 388.087928 145.34394 
L 388.737887 138.607715 
L 389.062867 142.619797 
L 389.387846 141.983866 
L 390.037805 140.138594 
L 390.362785 149.936578 
L 390.687764 144.018488 
L 391.012744 141.430106 
L 391.337723 141.882046 
L 391.662703 142.83237 
L 391.987682 137.391228 
L 392.312662 139.316885 
L 392.637641 142.064251 
L 392.962621 146.176367 
L 393.2876 145.819102 
L 393.61258 148.637921 
L 394.912498 141.265764 
L 395.237477 143.169985 
L 395.562457 148.237784 
L 395.887437 140.824542 
L 396.212416 144.499009 
L 396.537396 143.552258 
L 396.862375 136.75887 
L 397.187355 141.346149 
L 397.512334 142.194652 
L 397.837314 138.620219 
L 398.162293 136.994665 
L 398.487273 141.449755 
L 398.487273 141.449755 
" style="fill:none;stroke:#0000ff;stroke-linecap:square;stroke-width:1.5;"/>
   </g>
   <g id="line2d_15">
    <path clip-path="url(#pea040c9e57)" d="M 73.832727 295.488 
L 74.157707 247.400172 
L 74.482686 217.836519 
L 75.132645 201.064728 
L 75.457625 198.860405 
L 75.782604 192.999478 
L 76.107584 191.856231 
L 76.432563 191.272103 
L 76.757543 190.037753 
L 77.082523 194.537502 
L 77.407502 195.891535 
L 77.732482 187.31361 
L 78.057461 195.159143 
L 78.382441 187.48867 
L 78.70742 192.020572 
L 79.0324 187.467234 
L 79.357379 187.67802 
L 79.682359 183.842784 
L 80.007338 187.79949 
L 80.332318 261.451393 
L 80.657297 226.257248 
L 81.307256 195.43245 
L 81.957215 188.019208 
L 82.607174 188.896293 
L 83.257133 177.72284 
L 83.582113 180.502359 
L 83.907093 181.815307 
L 84.232072 181.472332 
L 84.557052 180.757803 
L 84.882031 176.918994 
L 85.207011 185.802381 
L 85.53199 177.742489 
L 85.85697 187.897738 
L 86.181949 239.424238 
L 86.506929 193.524657 
L 86.831908 190.832667 
L 87.481867 178.317685 
L 87.806847 182.127913 
L 88.131826 181.558076 
L 88.456806 173.973347 
L 88.781785 174.641432 
L 89.106765 174.59856 
L 89.431744 181.474119 
L 90.081704 174.914739 
L 90.406683 176.172311 
L 90.731663 174.561047 
L 91.056642 172.022681 
L 91.381622 177.154789 
L 91.706601 173.253458 
L 92.031581 170.811554 
L 92.35656 157.978606 
L 92.68154 173.185578 
L 93.006519 164.784499 
L 93.331499 169.804068 
L 93.656478 162.244347 
L 93.981458 165.266806 
L 94.306437 165.120327 
L 94.631417 162.081791 
L 95.281376 165.290028 
L 95.606355 162.222911 
L 95.931335 163.264337 
L 96.256314 155.040104 
L 96.581294 154.916848 
L 96.906274 158.493067 
L 97.231253 163.9092 
L 97.556233 166.488651 
L 97.881212 164.000303 
L 98.206192 239.309913 
L 98.531171 198.428115 
L 98.856151 197.967243 
L 99.18113 183.626639 
L 99.50611 184.90386 
L 100.156069 173.739338 
L 100.481048 177.801438 
L 100.806028 180.37553 
L 101.455987 168.096342 
L 102.105946 163.914559 
L 102.430925 164.132491 
L 102.755905 160.045383 
L 103.080885 163.921704 
L 103.405864 157.523094 
L 103.730844 159.523776 
L 104.055823 155.059754 
L 104.380803 154.241618 
L 104.705782 160.779561 
L 105.030762 163.23397 
L 105.355741 196.218433 
L 105.680721 176.422396 
L 106.0057 175.666781 
L 106.33068 179.184052 
L 106.655659 169.523615 
L 106.980639 164.598721 
L 107.305618 166.361822 
L 107.630598 169.236017 
L 107.955577 160.37228 
L 108.280557 162.808825 
L 108.605536 160.04181 
L 109.255495 164.209303 
L 109.580475 173.914398 
L 109.905455 165.116755 
L 110.230434 163.568012 
L 110.555414 162.712363 
L 110.880393 159.527349 
L 111.205373 160.295468 
L 111.530352 260.47606 
L 111.855332 200.069746 
L 112.180311 190.618309 
L 112.505291 186.097124 
L 112.83027 178.419506 
L 113.15525 178.180138 
L 113.480229 178.146198 
L 113.805209 172.906911 
L 114.130188 178.097967 
L 114.780147 164.280755 
L 115.755086 169.135983 
L 116.080066 164.420089 
L 116.405045 166.374327 
L 116.730025 169.970196 
L 117.055004 169.779059 
L 117.379984 162.783816 
L 117.704963 168.146359 
L 118.029943 159.363007 
L 118.354922 179.144753 
L 118.679902 167.153164 
L 119.004881 169.945187 
L 119.329861 169.396786 
L 119.65484 166.118882 
L 119.97982 158.089358 
L 120.304799 167.696206 
L 120.629779 162.576603 
L 120.954758 165.286456 
L 121.279738 168.934128 
L 121.604717 163.251833 
L 121.929697 229.37081 
L 122.254676 197.088372 
L 122.579656 182.692391 
L 122.904636 182.063606 
L 123.554595 183.608775 
L 123.879574 179.157257 
L 124.204554 176.554584 
L 124.529533 184.116091 
L 124.854513 176.654618 
L 125.179492 178.381993 
L 125.504472 178.691027 
L 125.829451 172.588946 
L 126.47941 178.698172 
L 126.80439 180.505931 
L 127.129369 172.665758 
L 127.454349 179.987898 
L 127.779328 178.367702 
L 128.104308 162.047851 
L 128.429287 160.531263 
L 128.754267 164.436166 
L 129.079247 158.075068 
L 129.404226 154.816814 
L 129.729206 149.04163 
L 130.054185 151.34956 
L 130.379165 147.848366 
L 130.704144 147.712605 
L 131.029124 149.431049 
L 131.354103 146.97664 
L 131.679083 148.836203 
L 132.004062 147.160631 
L 132.329042 146.823016 
L 132.654021 145.99059 
L 132.979001 144.084582 
L 133.30398 142.859165 
L 133.62896 144.5133 
L 133.953939 148.10381 
L 134.278919 148.10381 
L 134.603898 152.650003 
L 134.928878 144.942018 
L 135.253857 144.591898 
L 135.578837 147.312469 
L 135.903817 196.429219 
L 136.553776 172.390664 
L 136.878755 177.199447 
L 137.203735 173.939406 
L 137.528714 172.174519 
L 137.853694 187.218935 
L 138.178673 177.328062 
L 138.503653 177.830019 
L 138.828632 176.897558 
L 139.153612 165.745541 
L 139.478591 161.645928 
L 139.803571 159.491622 
L 140.12855 145.209966 
L 140.45353 151.119124 
L 140.778509 152.696448 
L 141.103489 143.938104 
L 141.428468 146.187085 
L 141.753448 149.983022 
L 142.078428 152.219499 
L 142.403407 152.959037 
L 142.728387 153.393114 
L 143.053366 148.507519 
L 143.378346 147.692956 
L 143.703325 137.900331 
L 144.028305 139.181125 
L 144.353284 141.215747 
L 144.678264 144.041711 
L 145.003243 139.733098 
L 145.328223 142.20537 
L 145.653202 147.678665 
L 145.978182 199.623165 
L 146.303161 191.782991 
L 146.95312 166.351104 
L 147.2781 168.405376 
L 147.603079 165.738395 
L 147.928059 168.223171 
L 148.253038 159.212956 
L 148.578018 161.269014 
L 148.902998 165.102464 
L 149.227977 165.520464 
L 149.552957 156.136907 
L 149.877936 164.000303 
L 150.202916 159.187947 
L 150.527895 166.09566 
L 150.852875 168.757282 
L 151.177854 160.366921 
L 151.502834 170.756178 
L 151.827813 162.882064 
L 152.477772 159.884613 
L 152.802752 159.695263 
L 153.127731 170.105956 
L 153.452711 163.108927 
L 153.77769 166.451138 
L 154.10267 150.699338 
L 154.427649 152.003354 
L 154.752629 155.838591 
L 155.077609 143.48795 
L 155.727568 136.426614 
L 156.052547 144.849129 
L 156.377527 147.192785 
L 156.702506 143.552258 
L 157.027486 144.257856 
L 157.352465 141.814165 
L 157.677445 134.993982 
L 158.002424 135.676358 
L 158.327404 133.575641 
L 158.652383 194.403528 
L 159.302342 168.299983 
L 159.627322 171.947656 
L 160.277281 164.720191 
L 160.60226 165.922387 
L 160.92724 162.862415 
L 161.252219 161.049296 
L 161.577199 161.244006 
L 161.902179 153.53602 
L 162.227158 170.498947 
L 162.552138 167.642616 
L 163.202097 152.726815 
L 163.527076 151.894389 
L 163.852056 152.917952 
L 164.177035 149.698997 
L 164.502015 153.678926 
L 164.826994 153.852199 
L 165.151974 151.581782 
L 165.476953 143.47366 
L 165.801933 146.533632 
L 166.126912 147.501819 
L 166.451892 149.254203 
L 166.776871 148.014494 
L 167.101851 147.901956 
L 167.75181 150.283125 
L 168.07679 154.357729 
L 168.401769 148.827271 
L 168.726749 152.776832 
L 169.051728 151.015517 
L 169.376708 152.382055 
L 169.701687 194.939425 
L 170.026667 174.793269 
L 170.676626 167.506856 
L 171.001605 174.795055 
L 171.326585 162.01927 
L 171.651564 167.478274 
L 171.976544 162.889209 
L 172.301523 160.202579 
L 172.626503 159.856032 
L 172.951482 164.289687 
L 173.276462 170.602554 
L 173.926421 159.439819 
L 174.57638 156.349479 
L 174.90136 156.301249 
L 175.551319 148.757605 
L 175.876298 153.575319 
L 176.201278 149.052348 
L 176.526257 154.645327 
L 176.851237 150.442108 
L 177.176216 150.167014 
L 177.501196 148.862998 
L 177.826175 146.778358 
L 178.151155 159.648819 
L 178.476134 166.585113 
L 179.126093 146.846238 
L 179.451073 146.156718 
L 179.776052 134.613495 
L 180.101032 139.420492 
L 180.426011 133.51312 
L 181.075971 127.275279 
L 181.40095 130.681797 
L 181.72593 121.198206 
L 182.050909 130.771114 
L 182.375889 123.554367 
L 182.700868 127.611107 
L 183.025848 122.320017 
L 183.350827 122.96488 
L 184.000786 126.391049 
L 184.325766 123.95629 
L 184.650745 124.349281 
L 184.975725 120.799856 
L 185.300704 125.605066 
L 185.625684 119.845959 
L 185.950663 120.819506 
L 186.275643 119.672686 
L 186.600622 126.880501 
L 186.925602 173.303475 
L 187.250581 170.854426 
L 187.575561 164.36114 
L 187.900541 163.451901 
L 188.22552 156.562052 
L 188.5505 155.168719 
L 188.875479 157.478436 
L 189.200459 158.600247 
L 189.850418 151.19415 
L 190.175397 158.184033 
L 190.500377 152.47673 
L 190.825356 155.065113 
L 191.150336 155.811796 
L 191.800295 160.368707 
L 192.125274 155.341993 
L 192.450254 157.321239 
L 192.775233 164.366499 
L 193.100213 159.670255 
L 193.750172 140.031414 
L 194.075152 138.568416 
L 194.400131 129.320619 
L 194.725111 125.079887 
L 195.05009 126.41963 
L 195.37507 124.929836 
L 195.700049 129.813644 
L 196.350008 119.469045 
L 196.674988 119.799515 
L 196.999967 119.074268 
L 197.324947 123.820529 
L 197.649926 114.647758 
L 197.974906 120.673027 
L 198.299885 117.475508 
L 198.624865 111.360923 
L 199.274824 104.747953 
L 199.599803 105.884055 
L 199.924783 112.782836 
L 200.249762 104.490723 
L 200.574742 112.745324 
L 200.899722 116.616287 
L 201.224701 115.587364 
L 201.549681 115.524843 
L 201.87466 116.051808 
L 202.19964 118.811678 
L 202.524619 112.330897 
L 202.849599 110.428462 
L 203.174578 107.588208 
L 203.824537 119.931703 
L 204.149517 115.869603 
L 204.474496 118.656268 
L 204.799476 117.486226 
L 205.124455 107.19343 
L 205.449435 124.174221 
L 205.774414 116.528757 
L 206.099394 120.533694 
L 206.424373 119.837028 
L 206.749353 121.791266 
L 207.074333 113.647417 
L 207.399312 168.596513 
L 207.724292 160.434801 
L 208.049271 169.852298 
L 208.374251 155.045463 
L 208.69923 154.429182 
L 209.02421 152.380269 
L 209.674169 158.041128 
L 209.999148 157.022923 
L 210.649107 150.438535 
L 211.299066 137.017887 
L 211.624046 142.416156 
L 211.949025 129.049098 
L 212.274005 132.059053 
L 212.598984 128.638243 
L 212.923964 128.15415 
L 213.248943 122.986316 
L 213.573923 115.926766 
L 213.898903 119.722703 
L 214.223882 122.119949 
L 214.548862 118.098935 
L 214.873841 110.342719 
L 215.198821 118.465131 
L 215.5238 109.758591 
L 215.84878 118.811678 
L 216.498739 96.450481 
L 216.823718 110.894693 
L 217.148698 103.529681 
L 217.473677 104.74974 
L 218.123636 102.225665 
L 218.448616 103.449296 
L 218.773595 103.068809 
L 219.098575 171.781528 
L 219.423554 161.579834 
L 219.748534 163.169662 
L 220.073514 168.492906 
L 220.398493 154.012968 
L 220.723473 151.931901 
L 221.048452 139.602697 
L 221.373432 140.99067 
L 221.698411 145.463624 
L 222.023391 143.223575 
L 222.34837 147.969836 
L 222.67335 146.931982 
L 222.998329 148.5361 
L 223.323309 143.989907 
L 223.648288 147.178495 
L 223.973268 151.99085 
L 224.298247 142.982421 
L 224.623227 144.874137 
L 224.948206 148.809408 
L 225.273186 149.933005 
L 225.923145 135.912153 
L 226.248124 136.599887 
L 226.573104 141.090704 
L 226.898084 134.749256 
L 227.223063 130.908661 
L 227.548043 129.034807 
L 228.198002 110.251616 
L 228.847961 117.480867 
L 229.17294 113.954665 
L 229.822899 135.610264 
L 230.147879 119.835241 
L 230.472858 112.36305 
L 230.797838 110.587445 
L 231.122817 105.451765 
L 231.447797 105.75544 
L 231.772776 105.596457 
L 232.097756 104.887287 
L 232.422735 109.653198 
L 232.747715 103.352835 
L 233.072695 106.7272 
L 233.722654 95.369755 
L 234.047633 98.585138 
L 234.372613 99.547966 
L 235.022572 104.712227 
L 235.347551 105.232047 
L 235.672531 158.593102 
L 235.99751 150.175945 
L 236.32249 146.971281 
L 236.647469 146.672965 
L 236.972449 152.303457 
L 237.297428 132.155514 
L 237.622408 127.316364 
L 237.947387 125.254947 
L 238.272367 129.192004 
L 238.597346 125.090605 
L 238.922326 133.543488 
L 239.247305 130.971182 
L 239.572285 130.680011 
L 239.897265 136.246195 
L 240.222244 139.216851 
L 240.547224 139.525885 
L 241.522162 112.07188 
L 241.847142 115.633809 
L 242.172121 115.799937 
L 242.497101 112.468443 
L 242.82208 105.06056 
L 243.14706 104.14239 
L 243.472039 111.087615 
L 243.797019 109.383463 
L 244.121998 109.12266 
L 244.446978 104.440706 
L 244.771957 110.17659 
L 245.096937 98.440445 
L 245.421916 106.094841 
L 245.746896 101.12529 
L 246.071876 101.043119 
L 246.396855 101.64511 
L 246.721835 89.637443 
L 247.046814 91.457707 
L 247.371794 154.76501 
L 247.696773 150.367082 
L 248.021753 138.339766 
L 248.346732 132.341292 
L 248.996691 113.16511 
L 249.321671 110.024753 
L 249.64665 109.644266 
L 250.296609 117.922089 
L 250.621589 120.465814 
L 250.946568 118.302576 
L 251.271548 122.571889 
L 251.596527 115.949988 
L 251.921507 123.209606 
L 252.246486 118.211473 
L 252.571466 141.453328 
L 253.546405 105.601816 
L 253.871384 106.655747 
L 254.196364 87.552804 
L 254.521343 91.016485 
L 254.846323 88.860393 
L 255.171302 98.683385 
L 255.496282 96.100362 
L 255.821261 83.203106 
L 256.146241 90.728887 
L 256.47122 83.683627 
L 256.7962 85.866514 
L 257.121179 77.635136 
L 257.446159 87.040129 
L 257.771138 81.329253 
L 258.096118 157.031855 
L 258.746077 125.263878 
L 259.071057 118.647336 
L 259.396036 124.588648 
L 259.721016 126.34639 
L 260.045995 124.583289 
L 260.370975 124.694041 
L 260.695954 118.338302 
L 261.020934 124.485041 
L 261.345913 118.493713 
L 261.670893 120.683745 
L 261.995872 122.044924 
L 262.320852 120.592643 
L 262.645831 123.014897 
L 262.970811 120.497967 
L 263.29579 124.234956 
L 263.62077 123.116718 
L 263.945749 105.953722 
L 264.270729 82.552884 
L 264.595708 96.411182 
L 264.920688 94.587346 
L 265.570647 84.91619 
L 265.895627 77.342179 
L 266.220606 81.711526 
L 266.545586 75.223599 
L 266.870565 78.781956 
L 267.195545 81.009501 
L 267.520524 79.575083 
L 267.845504 146.478256 
L 268.170483 132.9933 
L 268.495463 126.242784 
L 269.145422 132.591377 
L 269.470401 132.330574 
L 269.795381 131.844694 
L 270.12036 126.512519 
L 270.44534 118.475849 
L 270.770319 120.367566 
L 271.095299 120.990993 
L 271.420278 122.107445 
L 271.745258 119.447609 
L 272.070238 115.842808 
L 272.395217 104.251356 
L 272.720197 109.061925 
L 273.045176 105.689346 
L 273.695135 107.050524 
L 274.020115 97.895617 
L 274.345094 102.16493 
L 274.670074 97.488335 
L 274.995053 87.222334 
L 275.320033 82.092013 
L 275.645012 79.55722 
L 275.969992 85.321686 
L 276.294971 83.406747 
L 276.619951 85.275241 
L 276.94493 72.161841 
L 277.26991 79.267836 
L 277.594889 75.936342 
L 277.919869 81.098817 
L 278.244848 75.973855 
L 278.569828 68.935741 
L 278.894808 67.858588 
L 279.219787 68.866074 
L 279.544767 60.373892 
L 280.194726 77.342179 
L 280.519705 83.453192 
L 280.844685 139.574116 
L 281.169664 130.803267 
L 281.494644 130.872934 
L 281.819623 118.036414 
L 282.144603 116.54662 
L 282.469582 120.242523 
L 282.794562 118.691994 
L 283.119541 118.99031 
L 283.444521 117.286158 
L 283.7695 111.778923 
L 284.419459 119.56372 
L 285.069419 103.181348 
L 285.394398 108.166977 
L 285.719378 102.398938 
L 286.044357 114.972869 
L 286.369337 116.525184 
L 286.694316 105.287423 
L 287.344275 109.726437 
L 287.669255 101.034187 
L 287.994234 99.914162 
L 288.319214 110.030112 
L 288.644193 94.446226 
L 288.969173 99.396128 
L 289.294152 93.988927 
L 289.619132 93.760278 
L 289.944111 78.433623 
L 290.269091 80.384288 
L 290.59407 76.597282 
L 290.91905 68.823202 
L 291.244029 73.290797 
L 291.569009 70.052193 
L 291.893989 85.112686 
L 292.218968 86.338104 
L 292.543948 92.356228 
L 292.868927 78.2407 
L 293.193907 80.748698 
L 293.518886 133.554206 
L 294.168845 134.082957 
L 294.493825 130.031576 
L 294.818804 132.121574 
L 295.143784 117.913157 
L 295.468763 120.31219 
L 295.793743 127.732577 
L 296.118722 118.883131 
L 296.443702 117.630918 
L 296.768681 121.800197 
L 297.093661 122.418265 
L 297.41864 123.566871 
L 297.74362 121.287522 
L 298.0686 116.04109 
L 298.393579 115.898185 
L 298.718559 107.929396 
L 299.043538 115.106843 
L 299.368518 110.658898 
L 299.693497 117.316525 
L 300.018477 113.645631 
L 300.343456 116.292962 
L 300.668436 116.278671 
L 301.318395 122.746949 
L 301.643374 78.955229 
L 301.968354 72.370841 
L 302.293333 82.047355 
L 302.618313 72.795986 
L 302.943292 78.717648 
L 303.268272 76.722325 
L 303.593251 85.568198 
L 303.918231 78.980238 
L 304.24321 83.126294 
L 304.56819 85.537831 
L 304.89317 75.843454 
L 305.218149 161.288664 
L 305.543129 141.015679 
L 306.193088 122.064573 
L 306.518067 127.200253 
L 306.843047 129.075893 
L 307.168026 123.604384 
L 307.493006 122.682641 
L 307.817985 118.093576 
L 308.142965 111.407367 
L 308.467944 117.489799 
L 309.117903 105.255269 
L 309.442883 112.168341 
L 309.767862 109.712146 
L 310.092842 113.506297 
L 310.417821 113.256212 
L 310.742801 103.374271 
L 311.067781 88.671042 
L 311.39276 89.014016 
L 311.71774 94.442653 
L 312.042719 87.459915 
L 312.692678 78.306794 
L 313.017658 70.518423 
L 313.342637 65.711427 
L 313.667617 74.9753 
L 313.992596 128.766859 
L 314.317576 125.371058 
L 314.642555 114.383382 
L 314.967535 111.51276 
L 315.292514 111.210872 
L 315.617494 110.217676 
L 315.942473 114.75851 
L 316.267453 97.706266 
L 316.917412 103.383202 
L 317.242391 91.559527 
L 317.567371 99.674795 
L 317.892351 95.803832 
L 318.21733 83.145944 
L 318.54231 65.271991 
L 318.867289 66.836811 
L 319.192269 73.583754 
L 319.517248 70.907842 
L 319.842228 69.609185 
L 320.492187 64.65571 
L 320.817166 66.94399 
L 321.142146 64.789684 
L 321.467125 60.947302 
L 321.792105 72.919242 
L 322.117084 69.316228 
L 322.442064 79.532212 
L 322.767043 75.350428 
L 323.092023 76.114975 
L 323.417002 83.781875 
L 323.741982 84.242746 
L 324.066962 85.759335 
L 324.391941 83.18167 
L 324.716921 84.394584 
L 325.0419 76.697316 
L 325.36688 77.018854 
L 326.016839 80.889817 
L 326.341818 141.258619 
L 326.666798 123.088136 
L 326.991777 118.032841 
L 327.641736 92.361587 
L 327.966716 89.814289 
L 328.291695 98.495821 
L 328.616675 99.192488 
L 329.266634 107.291678 
L 329.591613 106.098414 
L 329.916593 94.428363 
L 330.241572 99.70159 
L 330.566552 100.455418 
L 330.891532 96.691635 
L 331.216511 97.073908 
L 331.541491 106.05197 
L 331.86647 106.736131 
L 332.19145 106.277046 
L 332.516429 100.339307 
L 332.841409 106.248465 
L 333.166388 101.032401 
L 333.491368 101.098495 
L 333.816347 93.890679 
L 334.141327 93.790645 
L 334.466306 87.359881 
L 334.791286 89.353418 
L 335.116265 74.569805 
L 335.441245 82.267073 
L 335.766224 73.614122 
L 336.091204 74.844899 
L 336.416183 77.731597 
L 336.741163 70.650611 
L 337.066143 75.050326 
L 337.391122 63.607138 
L 337.716102 70.463047 
L 338.041081 72.345832 
L 338.366061 69.25192 
L 338.69104 53.568 
L 339.01602 68.583835 
L 339.340999 74.825249 
L 339.665979 72.9639 
L 339.990958 68.841066 
L 340.315938 132.886121 
L 340.640917 131.081934 
L 340.965897 120.355062 
L 341.290876 125.528254 
L 341.615856 117.697012 
L 341.940835 118.867054 
L 342.265815 111.730692 
L 342.590794 110.324855 
L 342.915774 104.983748 
L 343.240753 103.542185 
L 343.565733 103.384989 
L 343.890713 104.231706 
L 344.215692 88.921128 
L 344.540672 97.048899 
L 345.190631 105.692919 
L 345.51561 87.511718 
L 345.84059 78.363956 
L 346.165569 77.531529 
L 346.490549 65.882914 
L 346.815528 68.689228 
L 347.140508 75.696975 
L 347.465487 69.498433 
L 347.790467 69.509151 
L 348.115446 77.538675 
L 348.440426 69.42698 
L 348.765405 77.820914 
L 349.090385 80.625441 
L 349.415364 81.41321 
L 349.740344 121.43936 
L 350.065324 121.335753 
L 350.390303 123.586521 
L 350.715283 117.53267 
L 351.040262 104.120954 
L 351.365242 108.638566 
L 351.690221 104.346031 
L 352.34018 107.291678 
L 352.66516 102.958057 
L 352.990139 92.034689 
L 353.315119 105.757226 
L 353.640098 106.523559 
L 353.965078 117.875645 
L 354.290057 112.036153 
L 354.615037 108.404558 
L 354.940016 115.553424 
L 355.264996 117.922089 
L 355.914955 71.85638 
L 356.239934 60.011269 
L 356.889894 69.939655 
L 357.539853 82.781534 
L 357.864832 89.43023 
L 358.189812 87.443838 
L 358.514791 88.26912 
L 358.839771 138.470168 
L 359.16475 121.810915 
L 359.48973 116.150056 
L 359.814709 112.991836 
L 360.139689 116.912816 
L 360.464668 116.017868 
L 360.789648 103.79227 
L 361.114627 103.647578 
L 361.439607 97.39366 
L 361.764586 101.237828 
L 362.089566 102.095263 
L 362.414545 94.590918 
L 362.739525 90.559186 
L 363.064505 84.401729 
L 363.389484 88.646034 
L 363.714464 91.332664 
L 364.039443 80.87374 
L 364.364423 88.337 
L 364.689402 78.989169 
L 365.014382 80.082399 
L 365.339361 76.15606 
L 365.664341 75.159292 
L 365.98932 68.92145 
L 366.3143 76.257881 
L 366.639279 60.913362 
L 366.964259 65.6757 
L 367.289238 73.283652 
L 367.614218 75.877394 
L 367.939197 136.648118 
L 368.589156 105.591098 
L 368.914136 108.002635 
L 369.239115 97.488335 
L 369.564095 106.893328 
L 369.889075 110.542787 
L 370.214054 115.740988 
L 370.539034 109.581745 
L 370.864013 110.072984 
L 371.188993 110.119428 
L 371.513972 102.591861 
L 371.838952 107.911532 
L 372.163931 109.378104 
L 372.488911 107.559627 
L 373.13887 112.3827 
L 373.463849 109.422762 
L 373.788829 110.864325 
L 374.113808 111.225162 
L 374.438788 102.875886 
L 374.763767 108.626062 
L 375.088747 104.530022 
L 375.738706 106.70755 
L 376.063686 113.936801 
L 376.388665 106.573576 
L 376.713645 104.324595 
L 377.038624 104.778321 
L 377.363604 106.650388 
L 377.688583 96.155738 
L 378.013563 102.050605 
L 378.338542 80.996997 
L 378.663522 79.001673 
L 378.988501 83.076277 
L 379.313481 79.262477 
L 379.63846 84.180225 
L 379.96344 67.095828 
L 380.613399 73.608763 
L 380.938378 81.632928 
L 381.263358 84.630379 
L 381.588337 79.748357 
L 381.913317 76.825931 
L 382.238296 90.914665 
L 382.563276 86.818625 
L 382.888256 89.135486 
L 383.213235 96.88813 
L 383.538215 97.261472 
L 383.863194 95.412627 
L 384.188174 84.809011 
L 384.513153 89.608862 
L 384.838133 83.413892 
L 385.488092 80.223519 
L 386.138051 87.663556 
L 386.46303 86.715018 
L 386.78801 83.776516 
L 387.112989 82.041996 
L 387.437969 79.040973 
L 387.762948 73.29437 
L 388.087928 83.474627 
L 388.412907 77.454717 
L 388.737887 125.328186 
L 389.062867 118.088217 
L 390.037805 110.403454 
L 390.362785 110.942923 
L 390.687764 113.366964 
L 391.012744 117.461218 
L 391.337723 110.265907 
L 391.662703 115.333706 
L 391.987682 81.636501 
L 392.312662 74.049985 
L 392.637641 90.060802 
L 392.962621 91.146887 
L 393.2876 80.654023 
L 393.61258 86.188053 
L 393.937559 76.304325 
L 394.262539 86.070155 
L 394.587518 89.819648 
L 394.912498 85.26631 
L 395.237477 91.604185 
L 395.562457 83.140585 
L 395.887437 90.92181 
L 396.537396 92.377664 
L 396.862375 96.909566 
L 397.187355 92.720638 
L 397.512334 86.984753 
L 397.837314 76.906316 
L 398.162293 73.424772 
L 398.487273 64.773607 
L 398.487273 64.773607 
" style="fill:none;stroke:#ff0000;stroke-linecap:square;stroke-width:1.5;"/>
   </g>
   <g id="patch_3">
    <path d="M 57.6 307.584 
L 57.6 41.472 
" style="fill:none;stroke:#000000;stroke-linecap:square;stroke-linejoin:miter;stroke-width:0.8;"/>
   </g>
   <g id="patch_4">
    <path d="M 414.72 307.584 
L 414.72 41.472 
" style="fill:none;stroke:#000000;stroke-linecap:square;stroke-linejoin:miter;stroke-width:0.8;"/>
   </g>
   <g id="patch_5">
    <path d="M 57.6 307.584 
L 414.72 307.584 
" style="fill:none;stroke:#000000;stroke-linecap:square;stroke-linejoin:miter;stroke-width:0.8;"/>
   </g>
   <g id="patch_6">
    <path d="M 57.6 41.472 
L 414.72 41.472 
" style="fill:none;stroke:#000000;stroke-linecap:square;stroke-linejoin:miter;stroke-width:0.8;"/>
   </g>
   <g id="legend_1">
    <g id="patch_7">
     <path d="M 64.6 78.82825 
L 143.184375 78.82825 
Q 145.184375 78.82825 145.184375 76.82825 
L 145.184375 48.472 
Q 145.184375 46.472 143.184375 46.472 
L 64.6 46.472 
Q 62.6 46.472 62.6 48.472 
L 62.6 76.82825 
Q 62.6 78.82825 64.6 78.82825 
z
" style="fill:#ffffff;opacity:0.8;stroke:#cccccc;stroke-linejoin:miter;"/>
    </g>
    <g id="line2d_16">
     <path d="M 66.6 54.570437 
L 86.6 54.570437 
" style="fill:none;stroke:#0000ff;stroke-linecap:square;stroke-width:1.5;"/>
    </g>
    <g id="line2d_17"/>
    <g id="text_14">
     <!-- Base GA -->
     <defs>
      <path d="M 19.671875 34.8125 
L 19.671875 8.109375 
L 35.5 8.109375 
Q 43.453125 8.109375 47.28125 11.40625 
Q 51.125 14.703125 51.125 21.484375 
Q 51.125 28.328125 47.28125 31.5625 
Q 43.453125 34.8125 35.5 34.8125 
z
M 19.671875 64.796875 
L 19.671875 42.828125 
L 34.28125 42.828125 
Q 41.5 42.828125 45.03125 45.53125 
Q 48.578125 48.25 48.578125 53.8125 
Q 48.578125 59.328125 45.03125 62.0625 
Q 41.5 64.796875 34.28125 64.796875 
z
M 9.8125 72.90625 
L 35.015625 72.90625 
Q 46.296875 72.90625 52.390625 68.21875 
Q 58.5 63.53125 58.5 54.890625 
Q 58.5 48.1875 55.375 44.234375 
Q 52.25 40.28125 46.1875 39.3125 
Q 53.46875 37.75 57.5 32.78125 
Q 61.53125 27.828125 61.53125 20.40625 
Q 61.53125 10.640625 54.890625 5.3125 
Q 48.25 0 35.984375 0 
L 9.8125 0 
z
" id="DejaVuSans-42"/>
      <path d="M 34.28125 27.484375 
Q 23.390625 27.484375 19.1875 25 
Q 14.984375 22.515625 14.984375 16.5 
Q 14.984375 11.71875 18.140625 8.90625 
Q 21.296875 6.109375 26.703125 6.109375 
Q 34.1875 6.109375 38.703125 11.40625 
Q 43.21875 16.703125 43.21875 25.484375 
L 43.21875 27.484375 
z
M 52.203125 31.203125 
L 52.203125 0 
L 43.21875 0 
L 43.21875 8.296875 
Q 40.140625 3.328125 35.546875 0.953125 
Q 30.953125 -1.421875 24.3125 -1.421875 
Q 15.921875 -1.421875 10.953125 3.296875 
Q 6 8.015625 6 15.921875 
Q 6 25.140625 12.171875 29.828125 
Q 18.359375 34.515625 30.609375 34.515625 
L 43.21875 34.515625 
L 43.21875 35.40625 
Q 43.21875 41.609375 39.140625 45 
Q 35.0625 48.390625 27.6875 48.390625 
Q 23 48.390625 18.546875 47.265625 
Q 14.109375 46.140625 10.015625 43.890625 
L 10.015625 52.203125 
Q 14.9375 54.109375 19.578125 55.046875 
Q 24.21875 56 28.609375 56 
Q 40.484375 56 46.34375 49.84375 
Q 52.203125 43.703125 52.203125 31.203125 
z
" id="DejaVuSans-61"/>
      <path d="M 44.28125 53.078125 
L 44.28125 44.578125 
Q 40.484375 46.53125 36.375 47.5 
Q 32.28125 48.484375 27.875 48.484375 
Q 21.1875 48.484375 17.84375 46.4375 
Q 14.5 44.390625 14.5 40.28125 
Q 14.5 37.15625 16.890625 35.375 
Q 19.28125 33.59375 26.515625 31.984375 
L 29.59375 31.296875 
Q 39.15625 29.25 43.1875 25.515625 
Q 47.21875 21.78125 47.21875 15.09375 
Q 47.21875 7.46875 41.1875 3.015625 
Q 35.15625 -1.421875 24.609375 -1.421875 
Q 20.21875 -1.421875 15.453125 -0.5625 
Q 10.6875 0.296875 5.421875 2 
L 5.421875 11.28125 
Q 10.40625 8.6875 15.234375 7.390625 
Q 20.0625 6.109375 24.8125 6.109375 
Q 31.15625 6.109375 34.5625 8.28125 
Q 37.984375 10.453125 37.984375 14.40625 
Q 37.984375 18.0625 35.515625 20.015625 
Q 33.0625 21.96875 24.703125 23.78125 
L 21.578125 24.515625 
Q 13.234375 26.265625 9.515625 29.90625 
Q 5.8125 33.546875 5.8125 39.890625 
Q 5.8125 47.609375 11.28125 51.796875 
Q 16.75 56 26.8125 56 
Q 31.78125 56 36.171875 55.265625 
Q 40.578125 54.546875 44.28125 53.078125 
z
" id="DejaVuSans-73"/>
      <path d="M 56.203125 29.59375 
L 56.203125 25.203125 
L 14.890625 25.203125 
Q 15.484375 15.921875 20.484375 11.0625 
Q 25.484375 6.203125 34.421875 6.203125 
Q 39.59375 6.203125 44.453125 7.46875 
Q 49.3125 8.734375 54.109375 11.28125 
L 54.109375 2.78125 
Q 49.265625 0.734375 44.1875 -0.34375 
Q 39.109375 -1.421875 33.890625 -1.421875 
Q 20.796875 -1.421875 13.15625 6.1875 
Q 5.515625 13.8125 5.515625 26.8125 
Q 5.515625 40.234375 12.765625 48.109375 
Q 20.015625 56 32.328125 56 
Q 43.359375 56 49.78125 48.890625 
Q 56.203125 41.796875 56.203125 29.59375 
z
M 47.21875 32.234375 
Q 47.125 39.59375 43.09375 43.984375 
Q 39.0625 48.390625 32.421875 48.390625 
Q 24.90625 48.390625 20.390625 44.140625 
Q 15.875 39.890625 15.1875 32.171875 
z
" id="DejaVuSans-65"/>
      <path id="DejaVuSans-20"/>
      <path d="M 59.515625 10.40625 
L 59.515625 29.984375 
L 43.40625 29.984375 
L 43.40625 38.09375 
L 69.28125 38.09375 
L 69.28125 6.78125 
Q 63.578125 2.734375 56.6875 0.65625 
Q 49.8125 -1.421875 42 -1.421875 
Q 24.90625 -1.421875 15.25 8.5625 
Q 5.609375 18.5625 5.609375 36.375 
Q 5.609375 54.25 15.25 64.234375 
Q 24.90625 74.21875 42 74.21875 
Q 49.125 74.21875 55.546875 72.453125 
Q 61.96875 70.703125 67.390625 67.28125 
L 67.390625 56.78125 
Q 61.921875 61.421875 55.765625 63.765625 
Q 49.609375 66.109375 42.828125 66.109375 
Q 29.4375 66.109375 22.71875 58.640625 
Q 16.015625 51.171875 16.015625 36.375 
Q 16.015625 21.625 22.71875 14.15625 
Q 29.4375 6.6875 42.828125 6.6875 
Q 48.046875 6.6875 52.140625 7.59375 
Q 56.25 8.5 59.515625 10.40625 
z
" id="DejaVuSans-47"/>
      <path d="M 34.1875 63.1875 
L 20.796875 26.90625 
L 47.609375 26.90625 
z
M 28.609375 72.90625 
L 39.796875 72.90625 
L 67.578125 0 
L 57.328125 0 
L 50.6875 18.703125 
L 17.828125 18.703125 
L 11.1875 0 
L 0.78125 0 
z
" id="DejaVuSans-41"/>
     </defs>
     <g transform="translate(94.6 58.070437)scale(0.1 -0.1)">
      <use xlink:href="#DejaVuSans-42"/>
      <use x="68.603516" xlink:href="#DejaVuSans-61"/>
      <use x="129.882812" xlink:href="#DejaVuSans-73"/>
      <use x="181.982422" xlink:href="#DejaVuSans-65"/>
      <use x="243.505859" xlink:href="#DejaVuSans-20"/>
      <use x="275.292969" xlink:href="#DejaVuSans-47"/>
      <use x="352.783203" xlink:href="#DejaVuSans-41"/>
     </g>
    </g>
    <g id="line2d_18">
     <path d="M 66.6 69.248562 
L 86.6 69.248562 
" style="fill:none;stroke:#ff0000;stroke-linecap:square;stroke-width:1.5;"/>
    </g>
    <g id="line2d_19"/>
    <g id="text_15">
     <!-- Method II -->
     <defs>
      <path d="M 9.8125 72.90625 
L 24.515625 72.90625 
L 43.109375 23.296875 
L 61.8125 72.90625 
L 76.515625 72.90625 
L 76.515625 0 
L 66.890625 0 
L 66.890625 64.015625 
L 48.09375 14.015625 
L 38.1875 14.015625 
L 19.390625 64.015625 
L 19.390625 0 
L 9.8125 0 
z
" id="DejaVuSans-4d"/>
      <path d="M 18.3125 70.21875 
L 18.3125 54.6875 
L 36.8125 54.6875 
L 36.8125 47.703125 
L 18.3125 47.703125 
L 18.3125 18.015625 
Q 18.3125 11.328125 20.140625 9.421875 
Q 21.96875 7.515625 27.59375 7.515625 
L 36.8125 7.515625 
L 36.8125 0 
L 27.59375 0 
Q 17.1875 0 13.234375 3.875 
Q 9.28125 7.765625 9.28125 18.015625 
L 9.28125 47.703125 
L 2.6875 47.703125 
L 2.6875 54.6875 
L 9.28125 54.6875 
L 9.28125 70.21875 
z
" id="DejaVuSans-74"/>
      <path d="M 54.890625 33.015625 
L 54.890625 0 
L 45.90625 0 
L 45.90625 32.71875 
Q 45.90625 40.484375 42.875 44.328125 
Q 39.84375 48.1875 33.796875 48.1875 
Q 26.515625 48.1875 22.3125 43.546875 
Q 18.109375 38.921875 18.109375 30.90625 
L 18.109375 0 
L 9.078125 0 
L 9.078125 75.984375 
L 18.109375 75.984375 
L 18.109375 46.1875 
Q 21.34375 51.125 25.703125 53.5625 
Q 30.078125 56 35.796875 56 
Q 45.21875 56 50.046875 50.171875 
Q 54.890625 44.34375 54.890625 33.015625 
z
" id="DejaVuSans-68"/>
      <path d="M 30.609375 48.390625 
Q 23.390625 48.390625 19.1875 42.75 
Q 14.984375 37.109375 14.984375 27.296875 
Q 14.984375 17.484375 19.15625 11.84375 
Q 23.34375 6.203125 30.609375 6.203125 
Q 37.796875 6.203125 41.984375 11.859375 
Q 46.1875 17.53125 46.1875 27.296875 
Q 46.1875 37.015625 41.984375 42.703125 
Q 37.796875 48.390625 30.609375 48.390625 
z
M 30.609375 56 
Q 42.328125 56 49.015625 48.375 
Q 55.71875 40.765625 55.71875 27.296875 
Q 55.71875 13.875 49.015625 6.21875 
Q 42.328125 -1.421875 30.609375 -1.421875 
Q 18.84375 -1.421875 12.171875 6.21875 
Q 5.515625 13.875 5.515625 27.296875 
Q 5.515625 40.765625 12.171875 48.375 
Q 18.84375 56 30.609375 56 
z
" id="DejaVuSans-6f"/>
      <path d="M 45.40625 46.390625 
L 45.40625 75.984375 
L 54.390625 75.984375 
L 54.390625 0 
L 45.40625 0 
L 45.40625 8.203125 
Q 42.578125 3.328125 38.25 0.953125 
Q 33.9375 -1.421875 27.875 -1.421875 
Q 17.96875 -1.421875 11.734375 6.484375 
Q 5.515625 14.40625 5.515625 27.296875 
Q 5.515625 40.1875 11.734375 48.09375 
Q 17.96875 56 27.875 56 
Q 33.9375 56 38.25 53.625 
Q 42.578125 51.265625 45.40625 46.390625 
z
M 14.796875 27.296875 
Q 14.796875 17.390625 18.875 11.75 
Q 22.953125 6.109375 30.078125 6.109375 
Q 37.203125 6.109375 41.296875 11.75 
Q 45.40625 17.390625 45.40625 27.296875 
Q 45.40625 37.203125 41.296875 42.84375 
Q 37.203125 48.484375 30.078125 48.484375 
Q 22.953125 48.484375 18.875 42.84375 
Q 14.796875 37.203125 14.796875 27.296875 
z
" id="DejaVuSans-64"/>
      <path d="M 9.8125 72.90625 
L 19.671875 72.90625 
L 19.671875 0 
L 9.8125 0 
z
" id="DejaVuSans-49"/>
     </defs>
     <g transform="translate(94.6 72.748562)scale(0.1 -0.1)">
      <use xlink:href="#DejaVuSans-4d"/>
      <use x="86.279297" xlink:href="#DejaVuSans-65"/>
      <use x="147.802734" xlink:href="#DejaVuSans-74"/>
      <use x="187.011719" xlink:href="#DejaVuSans-68"/>
      <use x="250.390625" xlink:href="#DejaVuSans-6f"/>
      <use x="311.572266" xlink:href="#DejaVuSans-64"/>
      <use x="375.048828" xlink:href="#DejaVuSans-20"/>
      <use x="406.835938" xlink:href="#DejaVuSans-49"/>
      <use x="436.328125" xlink:href="#DejaVuSans-49"/>
     </g>
    </g>
   </g>
  </g>
 </g>
 <defs>
  <clipPath id="pea040c9e57">
   <rect height="266.112" width="357.12" x="57.6" y="41.472"/>
  </clipPath>
 </defs>
</svg>
