<?xml version="1.0" encoding="utf-8" standalone="no"?>
<!DOCTYPE svg PUBLIC "-//W3C//DTD SVG 1.1//EN"
  "http://www.w3.org/Graphics/SVG/1.1/DTD/svg11.dtd">
<!-- Created with matplotlib (http://matplotlib.org/) -->
<svg height="345.6pt" version="1.1" viewBox="0 0 460.8 345.6" width="460.8pt" xmlns="http://www.w3.org/2000/svg" xmlns:xlink="http://www.w3.org/1999/xlink">
 <defs>
  <style type="text/css">
*{stroke-linecap:butt;stroke-linejoin:round;}
  </style>
 </defs>
 <g id="figure_1">
  <g id="patch_1">
   <path d="M 0 345.6 
L 460.8 345.6 
L 460.8 0 
L 0 0 
z
" style="fill:#ffffff;"/>
  </g>
  <g id="axes_1">
   <g id="patch_2">
    <path d="M 57.6 307.584 
L 414.72 307.584 
L 414.72 41.472 
L 57.6 41.472 
z
" style="fill:#ffffff;"/>
   </g>
   <g id="matplotlib.axis_1">
    <g id="xtick_1">
     <g id="line2d_1">
      <defs>
       <path d="M 0 0 
L 0 3.5 
" id="m8f084fdc1d" style="stroke:#000000;stroke-width:0.8;"/>
      </defs>
      <g>
       <use style="stroke:#000000;stroke-width:0.8;" x="73.832727" xlink:href="#m8f084fdc1d" y="307.584"/>
      </g>
     </g>
     <g id="text_1">
      <!-- 0 -->
      <defs>
       <path d="M 31.78125 66.40625 
Q 24.171875 66.40625 20.328125 58.90625 
Q 16.5 51.421875 16.5 36.375 
Q 16.5 21.390625 20.328125 13.890625 
Q 24.171875 6.390625 31.78125 6.390625 
Q 39.453125 6.390625 43.28125 13.890625 
Q 47.125 21.390625 47.125 36.375 
Q 47.125 51.421875 43.28125 58.90625 
Q 39.453125 66.40625 31.78125 66.40625 
z
M 31.78125 74.21875 
Q 44.046875 74.21875 50.515625 64.515625 
Q 56.984375 54.828125 56.984375 36.375 
Q 56.984375 17.96875 50.515625 8.265625 
Q 44.046875 -1.421875 31.78125 -1.421875 
Q 19.53125 -1.421875 13.0625 8.265625 
Q 6.59375 17.96875 6.59375 36.375 
Q 6.59375 54.828125 13.0625 64.515625 
Q 19.53125 74.21875 31.78125 74.21875 
z
" id="DejaVuSans-30"/>
      </defs>
      <g transform="translate(70.651477 322.182437)scale(0.1 -0.1)">
       <use xlink:href="#DejaVuSans-30"/>
      </g>
     </g>
    </g>
    <g id="xtick_2">
     <g id="line2d_2">
      <g>
       <use style="stroke:#000000;stroke-width:0.8;" x="138.828632" xlink:href="#m8f084fdc1d" y="307.584"/>
      </g>
     </g>
     <g id="text_2">
      <!-- 200 -->
      <defs>
       <path d="M 19.1875 8.296875 
L 53.609375 8.296875 
L 53.609375 0 
L 7.328125 0 
L 7.328125 8.296875 
Q 12.9375 14.109375 22.625 23.890625 
Q 32.328125 33.6875 34.8125 36.53125 
Q 39.546875 41.84375 41.421875 45.53125 
Q 43.3125 49.21875 43.3125 52.78125 
Q 43.3125 58.59375 39.234375 62.25 
Q 35.15625 65.921875 28.609375 65.921875 
Q 23.96875 65.921875 18.8125 64.3125 
Q 13.671875 62.703125 7.8125 59.421875 
L 7.8125 69.390625 
Q 13.765625 71.78125 18.9375 73 
Q 24.125 74.21875 28.421875 74.21875 
Q 39.75 74.21875 46.484375 68.546875 
Q 53.21875 62.890625 53.21875 53.421875 
Q 53.21875 48.921875 51.53125 44.890625 
Q 49.859375 40.875 45.40625 35.40625 
Q 44.1875 33.984375 37.640625 27.21875 
Q 31.109375 20.453125 19.1875 8.296875 
z
" id="DejaVuSans-32"/>
      </defs>
      <g transform="translate(129.284882 322.182437)scale(0.1 -0.1)">
       <use xlink:href="#DejaVuSans-32"/>
       <use x="63.623047" xlink:href="#DejaVuSans-30"/>
       <use x="127.246094" xlink:href="#DejaVuSans-30"/>
      </g>
     </g>
    </g>
    <g id="xtick_3">
     <g id="line2d_3">
      <g>
       <use style="stroke:#000000;stroke-width:0.8;" x="203.824537" xlink:href="#m8f084fdc1d" y="307.584"/>
      </g>
     </g>
     <g id="text_3">
      <!-- 400 -->
      <defs>
       <path d="M 37.796875 64.3125 
L 12.890625 25.390625 
L 37.796875 25.390625 
z
M 35.203125 72.90625 
L 47.609375 72.90625 
L 47.609375 25.390625 
L 58.015625 25.390625 
L 58.015625 17.1875 
L 47.609375 17.1875 
L 47.609375 0 
L 37.796875 0 
L 37.796875 17.1875 
L 4.890625 17.1875 
L 4.890625 26.703125 
z
" id="DejaVuSans-34"/>
      </defs>
      <g transform="translate(194.280787 322.182437)scale(0.1 -0.1)">
       <use xlink:href="#DejaVuSans-34"/>
       <use x="63.623047" xlink:href="#DejaVuSans-30"/>
       <use x="127.246094" xlink:href="#DejaVuSans-30"/>
      </g>
     </g>
    </g>
    <g id="xtick_4">
     <g id="line2d_4">
      <g>
       <use style="stroke:#000000;stroke-width:0.8;" x="268.820442" xlink:href="#m8f084fdc1d" y="307.584"/>
      </g>
     </g>
     <g id="text_4">
      <!-- 600 -->
      <defs>
       <path d="M 33.015625 40.375 
Q 26.375 40.375 22.484375 35.828125 
Q 18.609375 31.296875 18.609375 23.390625 
Q 18.609375 15.53125 22.484375 10.953125 
Q 26.375 6.390625 33.015625 6.390625 
Q 39.65625 6.390625 43.53125 10.953125 
Q 47.40625 15.53125 47.40625 23.390625 
Q 47.40625 31.296875 43.53125 35.828125 
Q 39.65625 40.375 33.015625 40.375 
z
M 52.59375 71.296875 
L 52.59375 62.3125 
Q 48.875 64.0625 45.09375 64.984375 
Q 41.3125 65.921875 37.59375 65.921875 
Q 27.828125 65.921875 22.671875 59.328125 
Q 17.53125 52.734375 16.796875 39.40625 
Q 19.671875 43.65625 24.015625 45.921875 
Q 28.375 48.1875 33.59375 48.1875 
Q 44.578125 48.1875 50.953125 41.515625 
Q 57.328125 34.859375 57.328125 23.390625 
Q 57.328125 12.15625 50.6875 5.359375 
Q 44.046875 -1.421875 33.015625 -1.421875 
Q 20.359375 -1.421875 13.671875 8.265625 
Q 6.984375 17.96875 6.984375 36.375 
Q 6.984375 53.65625 15.1875 63.9375 
Q 23.390625 74.21875 37.203125 74.21875 
Q 40.921875 74.21875 44.703125 73.484375 
Q 48.484375 72.75 52.59375 71.296875 
z
" id="DejaVuSans-36"/>
      </defs>
      <g transform="translate(259.276692 322.182437)scale(0.1 -0.1)">
       <use xlink:href="#DejaVuSans-36"/>
       <use x="63.623047" xlink:href="#DejaVuSans-30"/>
       <use x="127.246094" xlink:href="#DejaVuSans-30"/>
      </g>
     </g>
    </g>
    <g id="xtick_5">
     <g id="line2d_5">
      <g>
       <use style="stroke:#000000;stroke-width:0.8;" x="333.816347" xlink:href="#m8f084fdc1d" y="307.584"/>
      </g>
     </g>
     <g id="text_5">
      <!-- 800 -->
      <defs>
       <path d="M 31.78125 34.625 
Q 24.75 34.625 20.71875 30.859375 
Q 16.703125 27.09375 16.703125 20.515625 
Q 16.703125 13.921875 20.71875 10.15625 
Q 24.75 6.390625 31.78125 6.390625 
Q 38.8125 6.390625 42.859375 10.171875 
Q 46.921875 13.96875 46.921875 20.515625 
Q 46.921875 27.09375 42.890625 30.859375 
Q 38.875 34.625 31.78125 34.625 
z
M 21.921875 38.8125 
Q 15.578125 40.375 12.03125 44.71875 
Q 8.5 49.078125 8.5 55.328125 
Q 8.5 64.0625 14.71875 69.140625 
Q 20.953125 74.21875 31.78125 74.21875 
Q 42.671875 74.21875 48.875 69.140625 
Q 55.078125 64.0625 55.078125 55.328125 
Q 55.078125 49.078125 51.53125 44.71875 
Q 48 40.375 41.703125 38.8125 
Q 48.828125 37.15625 52.796875 32.3125 
Q 56.78125 27.484375 56.78125 20.515625 
Q 56.78125 9.90625 50.3125 4.234375 
Q 43.84375 -1.421875 31.78125 -1.421875 
Q 19.734375 -1.421875 13.25 4.234375 
Q 6.78125 9.90625 6.78125 20.515625 
Q 6.78125 27.484375 10.78125 32.3125 
Q 14.796875 37.15625 21.921875 38.8125 
z
M 18.3125 54.390625 
Q 18.3125 48.734375 21.84375 45.5625 
Q 25.390625 42.390625 31.78125 42.390625 
Q 38.140625 42.390625 41.71875 45.5625 
Q 45.3125 48.734375 45.3125 54.390625 
Q 45.3125 60.0625 41.71875 63.234375 
Q 38.140625 66.40625 31.78125 66.40625 
Q 25.390625 66.40625 21.84375 63.234375 
Q 18.3125 60.0625 18.3125 54.390625 
z
" id="DejaVuSans-38"/>
      </defs>
      <g transform="translate(324.272597 322.182437)scale(0.1 -0.1)">
       <use xlink:href="#DejaVuSans-38"/>
       <use x="63.623047" xlink:href="#DejaVuSans-30"/>
       <use x="127.246094" xlink:href="#DejaVuSans-30"/>
      </g>
     </g>
    </g>
    <g id="xtick_6">
     <g id="line2d_6">
      <g>
       <use style="stroke:#000000;stroke-width:0.8;" x="398.812252" xlink:href="#m8f084fdc1d" y="307.584"/>
      </g>
     </g>
     <g id="text_6">
      <!-- 1000 -->
      <defs>
       <path d="M 12.40625 8.296875 
L 28.515625 8.296875 
L 28.515625 63.921875 
L 10.984375 60.40625 
L 10.984375 69.390625 
L 28.421875 72.90625 
L 38.28125 72.90625 
L 38.28125 8.296875 
L 54.390625 8.296875 
L 54.390625 0 
L 12.40625 0 
z
" id="DejaVuSans-31"/>
      </defs>
      <g transform="translate(386.087252 322.182437)scale(0.1 -0.1)">
       <use xlink:href="#DejaVuSans-31"/>
       <use x="63.623047" xlink:href="#DejaVuSans-30"/>
       <use x="127.246094" xlink:href="#DejaVuSans-30"/>
       <use x="190.869141" xlink:href="#DejaVuSans-30"/>
      </g>
     </g>
    </g>
   </g>
   <g id="matplotlib.axis_2">
    <g id="ytick_1">
     <g id="line2d_7">
      <defs>
       <path d="M 0 0 
L -3.5 0 
" id="mc5989f560c" style="stroke:#000000;stroke-width:0.8;"/>
      </defs>
      <g>
       <use style="stroke:#000000;stroke-width:0.8;" x="57.6" xlink:href="#mc5989f560c" y="275.282492"/>
      </g>
     </g>
     <g id="text_7">
      <!-- 3000 -->
      <defs>
       <path d="M 40.578125 39.3125 
Q 47.65625 37.796875 51.625 33 
Q 55.609375 28.21875 55.609375 21.1875 
Q 55.609375 10.40625 48.1875 4.484375 
Q 40.765625 -1.421875 27.09375 -1.421875 
Q 22.515625 -1.421875 17.65625 -0.515625 
Q 12.796875 0.390625 7.625 2.203125 
L 7.625 11.71875 
Q 11.71875 9.328125 16.59375 8.109375 
Q 21.484375 6.890625 26.8125 6.890625 
Q 36.078125 6.890625 40.9375 10.546875 
Q 45.796875 14.203125 45.796875 21.1875 
Q 45.796875 27.640625 41.28125 31.265625 
Q 36.765625 34.90625 28.71875 34.90625 
L 20.21875 34.90625 
L 20.21875 43.015625 
L 29.109375 43.015625 
Q 36.375 43.015625 40.234375 45.921875 
Q 44.09375 48.828125 44.09375 54.296875 
Q 44.09375 59.90625 40.109375 62.90625 
Q 36.140625 65.921875 28.71875 65.921875 
Q 24.65625 65.921875 20.015625 65.03125 
Q 15.375 64.15625 9.8125 62.3125 
L 9.8125 71.09375 
Q 15.4375 72.65625 20.34375 73.4375 
Q 25.25 74.21875 29.59375 74.21875 
Q 40.828125 74.21875 47.359375 69.109375 
Q 53.90625 64.015625 53.90625 55.328125 
Q 53.90625 49.265625 50.4375 45.09375 
Q 46.96875 40.921875 40.578125 39.3125 
z
" id="DejaVuSans-33"/>
      </defs>
      <g transform="translate(25.15 279.081711)scale(0.1 -0.1)">
       <use xlink:href="#DejaVuSans-33"/>
       <use x="63.623047" xlink:href="#DejaVuSans-30"/>
       <use x="127.246094" xlink:href="#DejaVuSans-30"/>
       <use x="190.869141" xlink:href="#DejaVuSans-30"/>
      </g>
     </g>
    </g>
    <g id="ytick_2">
     <g id="line2d_8">
      <g>
       <use style="stroke:#000000;stroke-width:0.8;" x="57.6" xlink:href="#mc5989f560c" y="220.673011"/>
      </g>
     </g>
     <g id="text_8">
      <!-- 4000 -->
      <g transform="translate(25.15 224.47223)scale(0.1 -0.1)">
       <use xlink:href="#DejaVuSans-34"/>
       <use x="63.623047" xlink:href="#DejaVuSans-30"/>
       <use x="127.246094" xlink:href="#DejaVuSans-30"/>
       <use x="190.869141" xlink:href="#DejaVuSans-30"/>
      </g>
     </g>
    </g>
    <g id="ytick_3">
     <g id="line2d_9">
      <g>
       <use style="stroke:#000000;stroke-width:0.8;" x="57.6" xlink:href="#mc5989f560c" y="166.06353"/>
      </g>
     </g>
     <g id="text_9">
      <!-- 5000 -->
      <defs>
       <path d="M 10.796875 72.90625 
L 49.515625 72.90625 
L 49.515625 64.59375 
L 19.828125 64.59375 
L 19.828125 46.734375 
Q 21.96875 47.46875 24.109375 47.828125 
Q 26.265625 48.1875 28.421875 48.1875 
Q 40.625 48.1875 47.75 41.5 
Q 54.890625 34.8125 54.890625 23.390625 
Q 54.890625 11.625 47.5625 5.09375 
Q 40.234375 -1.421875 26.90625 -1.421875 
Q 22.3125 -1.421875 17.546875 -0.640625 
Q 12.796875 0.140625 7.71875 1.703125 
L 7.71875 11.625 
Q 12.109375 9.234375 16.796875 8.0625 
Q 21.484375 6.890625 26.703125 6.890625 
Q 35.15625 6.890625 40.078125 11.328125 
Q 45.015625 15.765625 45.015625 23.390625 
Q 45.015625 31 40.078125 35.4375 
Q 35.15625 39.890625 26.703125 39.890625 
Q 22.75 39.890625 18.8125 39.015625 
Q 14.890625 38.140625 10.796875 36.28125 
z
" id="DejaVuSans-35"/>
      </defs>
      <g transform="translate(25.15 169.862749)scale(0.1 -0.1)">
       <use xlink:href="#DejaVuSans-35"/>
       <use x="63.623047" xlink:href="#DejaVuSans-30"/>
       <use x="127.246094" xlink:href="#DejaVuSans-30"/>
       <use x="190.869141" xlink:href="#DejaVuSans-30"/>
      </g>
     </g>
    </g>
    <g id="ytick_4">
     <g id="line2d_10">
      <g>
       <use style="stroke:#000000;stroke-width:0.8;" x="57.6" xlink:href="#mc5989f560c" y="111.45405"/>
      </g>
     </g>
     <g id="text_10">
      <!-- 6000 -->
      <g transform="translate(25.15 115.253268)scale(0.1 -0.1)">
       <use xlink:href="#DejaVuSans-36"/>
       <use x="63.623047" xlink:href="#DejaVuSans-30"/>
       <use x="127.246094" xlink:href="#DejaVuSans-30"/>
       <use x="190.869141" xlink:href="#DejaVuSans-30"/>
      </g>
     </g>
    </g>
    <g id="ytick_5">
     <g id="line2d_11">
      <g>
       <use style="stroke:#000000;stroke-width:0.8;" x="57.6" xlink:href="#mc5989f560c" y="56.844569"/>
      </g>
     </g>
     <g id="text_11">
      <!-- 7000 -->
      <defs>
       <path d="M 8.203125 72.90625 
L 55.078125 72.90625 
L 55.078125 68.703125 
L 28.609375 0 
L 18.3125 0 
L 43.21875 64.59375 
L 8.203125 64.59375 
z
" id="DejaVuSans-37"/>
      </defs>
      <g transform="translate(25.15 60.643788)scale(0.1 -0.1)">
       <use xlink:href="#DejaVuSans-37"/>
       <use x="63.623047" xlink:href="#DejaVuSans-30"/>
       <use x="127.246094" xlink:href="#DejaVuSans-30"/>
       <use x="190.869141" xlink:href="#DejaVuSans-30"/>
      </g>
     </g>
    </g>
   </g>
   <g id="line2d_12">
    <path clip-path="url(#p23be5b96be)" d="M 73.832727 283.473914 
L 74.157707 240.878519 
L 74.482686 240.878519 
L 74.807666 263.268406 
L 75.132645 250.162131 
L 75.457625 249.069941 
L 75.782604 243.608993 
L 76.107584 251.254321 
L 76.432563 255.623079 
L 76.757543 255.623079 
L 77.082523 226.133959 
L 78.057461 237.055856 
L 78.382441 246.339467 
L 78.70742 223.403485 
L 79.0324 251.254321 
L 79.357379 226.133959 
L 79.682359 232.687097 
L 80.007338 241.970709 
L 80.332318 207.020641 
L 80.982277 252.34651 
L 81.307256 223.403485 
L 81.632236 231.048813 
L 81.957215 260.537932 
L 82.282195 235.417571 
L 82.607174 237.055856 
L 82.932154 257.807458 
L 83.257133 234.325381 
L 83.582113 231.594907 
L 83.907093 232.687097 
L 84.232072 232.687097 
L 84.557052 239.78633 
L 84.882031 238.148045 
L 85.207011 217.942537 
L 85.53199 249.069941 
L 85.85697 255.623079 
L 86.181949 228.864433 
L 86.506929 255.623079 
L 86.831908 142.581454 
L 87.156888 255.623079 
L 87.481867 234.325381 
L 87.806847 255.623079 
L 88.131826 232.687097 
L 88.456806 237.055856 
L 88.781785 237.60195 
L 89.106765 246.339467 
L 89.431744 246.339467 
L 89.756724 253.984795 
L 90.081704 196.098745 
L 90.406683 245.793372 
L 90.731663 250.162131 
L 91.056642 237.055856 
L 91.381622 255.623079 
L 91.706601 227.226149 
L 92.031581 247.431657 
L 92.35656 241.970709 
L 92.68154 228.864433 
L 93.006519 243.608993 
L 93.331499 231.594907 
L 93.656478 229.956623 
L 93.981458 255.623079 
L 94.306437 220.673011 
L 94.631417 245.793372 
L 94.956396 215.212063 
L 95.281376 255.623079 
L 95.606355 239.78633 
L 95.931335 259.445743 
L 96.256314 215.212063 
L 96.581294 220.126916 
L 96.906274 248.523847 
L 97.231253 222.857391 
L 97.556233 240.878519 
L 97.881212 232.687097 
L 98.206192 244.701183 
L 98.531171 261.630122 
L 98.856151 245.247278 
L 99.18113 222.857391 
L 99.50611 231.594907 
L 99.831089 198.829219 
L 100.156069 264.360596 
L 100.481048 239.240235 
L 100.806028 238.148045 
L 101.131007 215.212063 
L 101.780966 242.516804 
L 102.430925 215.212063 
L 102.755905 240.332424 
L 103.080885 249.069941 
L 103.730844 190.637797 
L 104.055823 243.608993 
L 104.380803 215.212063 
L 104.705782 220.673011 
L 105.680721 248.523847 
L 106.0057 251.254321 
L 106.33068 227.226149 
L 106.655659 224.495675 
L 106.980639 241.970709 
L 107.305618 226.133959 
L 107.630598 217.942537 
L 107.955577 250.708226 
L 108.280557 258.899648 
L 108.605536 204.290167 
L 108.930516 232.687097 
L 109.255495 212.481589 
L 109.580475 231.048813 
L 109.905455 217.942537 
L 110.230434 252.892605 
L 110.555414 215.212063 
L 110.880393 239.240235 
L 111.205373 232.687097 
L 111.530352 237.055856 
L 111.855332 255.623079 
L 112.180311 204.290167 
L 112.505291 201.559693 
L 112.83027 235.417571 
L 113.15525 212.481589 
L 113.480229 209.751115 
L 113.805209 231.594907 
L 114.130188 232.687097 
L 114.455168 228.864433 
L 114.780147 171.524479 
L 115.105127 215.212063 
L 115.430106 223.403485 
L 115.755086 219.034727 
L 116.405045 201.559693 
L 116.730025 223.403485 
L 117.055004 215.212063 
L 117.379984 223.403485 
L 117.704963 223.403485 
L 118.029943 207.020641 
L 118.354922 171.524479 
L 118.679902 223.403485 
L 119.004881 223.403485 
L 119.65484 150.226781 
L 119.97982 223.403485 
L 120.304799 223.403485 
L 120.629779 212.481589 
L 120.954758 223.403485 
L 121.279738 223.403485 
L 121.604717 219.034727 
L 121.929697 190.637797 
L 122.254676 196.098745 
L 122.579656 223.403485 
L 122.904636 223.403485 
L 123.229615 188.999512 
L 123.554595 127.836894 
L 123.879574 223.403485 
L 124.204554 215.212063 
L 124.529533 176.985427 
L 124.854513 223.403485 
L 126.47941 223.403485 
L 126.80439 196.098745 
L 127.129369 223.403485 
L 127.454349 223.403485 
L 127.779328 212.481589 
L 128.104308 223.403485 
L 128.429287 216.304253 
L 128.754267 223.403485 
L 129.404226 223.403485 
L 129.729206 201.559693 
L 130.054185 217.942537 
L 130.379165 157.326014 
L 130.704144 223.403485 
L 131.679083 223.403485 
L 132.004062 196.098745 
L 132.329042 217.942537 
L 132.654021 223.403485 
L 132.979001 212.481589 
L 133.30398 223.403485 
L 133.953939 187.907323 
L 134.278919 223.403485 
L 134.603898 216.304253 
L 134.928878 223.403485 
L 135.253857 209.751115 
L 135.578837 223.403485 
L 135.903817 223.403485 
L 136.228796 198.829219 
L 136.553776 217.942537 
L 136.878755 223.403485 
L 137.203735 217.942537 
L 137.528714 223.403485 
L 137.853694 223.403485 
L 138.178673 209.751115 
L 138.503653 182.446375 
L 138.828632 223.403485 
L 139.153612 171.524479 
L 139.478591 223.403485 
L 139.803571 201.559693 
L 140.12855 223.403485 
L 140.45353 223.403485 
L 140.778509 209.751115 
L 141.103489 223.403485 
L 141.428468 217.942537 
L 141.753448 223.403485 
L 142.728387 223.403485 
L 143.053366 190.637797 
L 143.378346 190.637797 
L 143.703325 223.403485 
L 144.028305 223.403485 
L 144.353284 185.176849 
L 144.678264 212.481589 
L 145.003243 221.765201 
L 145.328223 223.403485 
L 145.653202 213.573779 
L 146.303161 223.403485 
L 149.552957 223.403485 
L 149.877936 221.765201 
L 150.202916 179.715901 
L 150.527895 223.403485 
L 152.477772 223.403485 
L 152.802752 215.212063 
L 153.127731 221.765201 
L 153.452711 223.403485 
L 153.77769 220.673011 
L 154.10267 190.637797 
L 154.427649 218.488632 
L 154.752629 221.765201 
L 155.077609 223.403485 
L 156.052547 223.403485 
L 156.702506 187.907323 
L 157.352465 223.403485 
L 157.677445 193.368271 
L 158.002424 223.403485 
L 158.327404 207.020641 
L 158.652383 223.403485 
L 158.977363 187.907323 
L 159.302342 223.403485 
L 159.627322 179.715901 
L 159.952301 223.403485 
L 160.277281 213.573779 
L 160.60226 212.481589 
L 160.92724 209.751115 
L 161.252219 223.403485 
L 161.577199 222.857391 
L 161.902179 223.403485 
L 162.227158 208.112831 
L 162.552138 223.403485 
L 163.202097 223.403485 
L 163.527076 219.034727 
L 163.852056 217.942537 
L 164.177035 220.673011 
L 164.502015 204.290167 
L 164.826994 121.283756 
L 165.151974 217.942537 
L 165.476953 110.36186 
L 165.801933 223.403485 
L 167.101851 223.403485 
L 167.42683 215.212063 
L 167.75181 223.403485 
L 168.07679 171.524479 
L 168.401769 217.942537 
L 168.726749 223.403485 
L 169.051728 221.765201 
L 169.376708 223.403485 
L 170.026667 223.403485 
L 170.351646 221.765201 
L 170.676626 201.559693 
L 171.001605 217.396442 
L 171.326585 223.403485 
L 171.651564 223.403485 
L 171.976544 153.50335 
L 172.301523 223.403485 
L 173.601441 223.403485 
L 173.926421 220.673011 
L 174.2514 191.729986 
L 174.57638 217.942537 
L 174.90136 209.751115 
L 175.226339 223.403485 
L 175.551319 133.297842 
L 175.876298 223.403485 
L 176.201278 223.403485 
L 176.526257 201.559693 
L 176.851237 223.403485 
L 177.176216 201.559693 
L 177.501196 223.403485 
L 177.826175 204.290167 
L 178.151155 205.382357 
L 178.476134 223.403485 
L 179.126093 223.403485 
L 179.451073 174.254953 
L 179.776052 223.403485 
L 180.101032 212.481589 
L 180.426011 223.403485 
L 180.750991 223.403485 
L 181.075971 215.212063 
L 181.40095 196.098745 
L 181.72593 223.403485 
L 182.050909 196.098745 
L 182.375889 223.403485 
L 182.700868 198.829219 
L 183.025848 223.403485 
L 183.350827 185.176849 
L 183.675807 223.403485 
L 184.000786 219.034727 
L 184.325766 201.559693 
L 184.650745 196.098745 
L 184.975725 176.985427 
L 185.625684 223.403485 
L 185.950663 204.290167 
L 186.275643 223.403485 
L 186.600622 174.254953 
L 186.925602 223.403485 
L 187.575561 223.403485 
L 187.900541 210.843305 
L 188.22552 182.446375 
L 188.5505 223.403485 
L 188.875479 217.942537 
L 189.200459 223.403485 
L 189.525438 223.403485 
L 189.850418 217.942537 
L 190.175397 193.368271 
L 190.500377 223.403485 
L 191.150336 196.098745 
L 191.475315 176.985427 
L 191.800295 223.403485 
L 192.450254 223.403485 
L 192.775233 179.715901 
L 193.100213 223.403485 
L 193.425192 207.020641 
L 193.750172 216.304253 
L 194.075152 198.829219 
L 194.400131 223.403485 
L 195.37507 223.403485 
L 195.700049 217.942537 
L 196.025029 176.985427 
L 196.350008 193.368271 
L 196.674988 223.403485 
L 197.649926 223.403485 
L 197.974906 176.985427 
L 198.299885 219.034727 
L 198.624865 223.403485 
L 198.949844 185.176849 
L 199.274824 223.403485 
L 199.599803 213.573779 
L 199.924783 223.403485 
L 200.249762 223.403485 
L 200.574742 155.687729 
L 200.899722 209.751115 
L 201.549681 221.765201 
L 201.87466 223.403485 
L 202.19964 223.403485 
L 202.524619 204.290167 
L 202.849599 223.403485 
L 203.174578 185.176849 
L 203.499558 223.403485 
L 203.824537 217.942537 
L 204.149517 223.403485 
L 204.799476 223.403485 
L 205.124455 221.765201 
L 205.449435 215.212063 
L 205.774414 140.397074 
L 206.099394 207.020641 
L 206.424373 223.403485 
L 206.749353 215.212063 
L 207.074333 182.446375 
L 207.399312 223.403485 
L 207.724292 223.403485 
L 208.049271 193.368271 
L 208.374251 223.403485 
L 208.69923 198.829219 
L 209.02421 223.403485 
L 209.349189 223.403485 
L 209.999148 143.673643 
L 210.324128 198.829219 
L 210.649107 223.403485 
L 210.974087 223.403485 
L 211.299066 185.176849 
L 211.624046 220.673011 
L 211.949025 223.403485 
L 212.274005 221.765201 
L 212.598984 207.020641 
L 212.923964 223.403485 
L 213.248943 212.481589 
L 213.573923 223.403485 
L 214.223882 223.403485 
L 214.548862 221.765201 
L 214.873841 223.403485 
L 215.5238 223.403485 
L 215.84878 209.751115 
L 216.173759 223.403485 
L 216.498739 217.942537 
L 216.823718 223.403485 
L 217.148698 215.212063 
L 217.473677 223.403485 
L 217.798657 215.212063 
L 218.123636 223.403485 
L 218.773595 223.403485 
L 219.098575 220.673011 
L 219.423554 182.446375 
L 219.748534 223.403485 
L 220.073514 212.481589 
L 220.398493 223.403485 
L 220.723473 197.190935 
L 221.048452 223.403485 
L 221.373432 223.403485 
L 221.698411 210.843305 
L 222.023391 223.403485 
L 222.34837 198.829219 
L 222.67335 223.403485 
L 222.998329 223.403485 
L 223.323309 220.673011 
L 223.648288 223.403485 
L 224.623227 223.403485 
L 224.948206 222.857391 
L 225.273186 212.481589 
L 225.598165 223.403485 
L 225.923145 212.481589 
L 226.248124 207.020641 
L 226.573104 210.843305 
L 226.898084 150.772876 
L 227.223063 204.290167 
L 227.548043 223.403485 
L 228.198002 223.403485 
L 228.522981 196.098745 
L 229.17294 223.403485 
L 229.49792 201.559693 
L 229.822899 196.098745 
L 230.147879 198.829219 
L 230.472858 207.020641 
L 230.797838 223.403485 
L 231.122817 223.403485 
L 231.447797 209.751115 
L 231.772776 223.403485 
L 232.422735 223.403485 
L 232.747715 220.673011 
L 233.072695 223.403485 
L 233.397674 223.403485 
L 233.722654 187.907323 
L 234.047633 223.403485 
L 235.672531 223.403485 
L 235.99751 207.020641 
L 236.32249 156.779919 
L 236.647469 217.942537 
L 236.972449 198.829219 
L 237.297428 223.403485 
L 237.622408 221.765201 
L 237.947387 207.020641 
L 238.272367 223.403485 
L 238.597346 201.559693 
L 238.922326 220.673011 
L 239.247305 159.510393 
L 239.572285 223.403485 
L 241.197183 223.403485 
L 241.522162 193.368271 
L 241.847142 223.403485 
L 242.172121 187.907323 
L 242.497101 215.212063 
L 242.82208 223.403485 
L 243.14706 187.907323 
L 243.472039 219.034727 
L 243.797019 223.403485 
L 244.121998 182.446375 
L 244.446978 223.403485 
L 244.771957 198.829219 
L 245.096937 198.829219 
L 245.421916 223.403485 
L 245.746896 212.481589 
L 246.071876 223.403485 
L 246.721835 223.403485 
L 247.046814 217.942537 
L 247.371794 223.403485 
L 248.021753 223.403485 
L 248.346732 209.751115 
L 248.671712 223.403485 
L 248.996691 223.403485 
L 249.321671 138.212695 
L 249.64665 223.403485 
L 249.97163 223.403485 
L 250.296609 201.559693 
L 250.621589 159.510393 
L 250.946568 223.403485 
L 251.271548 223.403485 
L 251.596527 204.290167 
L 251.921507 220.673011 
L 252.246486 223.403485 
L 252.571466 201.559693 
L 252.896446 223.403485 
L 253.546405 223.403485 
L 253.871384 136.028316 
L 254.196364 207.020641 
L 254.521343 223.403485 
L 254.846323 223.403485 
L 255.171302 145.858023 
L 255.496282 223.403485 
L 255.821261 223.403485 
L 256.146241 141.489264 
L 256.47122 215.212063 
L 256.7962 201.559693 
L 257.121179 220.673011 
L 257.446159 223.403485 
L 257.771138 207.020641 
L 258.421097 196.098745 
L 258.746077 223.403485 
L 259.071057 223.403485 
L 259.396036 205.382357 
L 259.721016 201.559693 
L 260.045995 212.481589 
L 260.370975 144.219738 
L 260.695954 198.829219 
L 261.020934 151.865065 
L 261.345913 209.751115 
L 261.670893 223.403485 
L 263.62077 223.403485 
L 263.945749 207.020641 
L 264.270729 55.752379 
L 264.595708 223.403485 
L 264.920688 223.403485 
L 265.245667 217.942537 
L 265.570647 83.05712 
L 265.895627 223.403485 
L 266.220606 176.985427 
L 266.545586 220.126916 
L 266.870565 223.403485 
L 267.195545 223.403485 
L 267.520524 207.020641 
L 267.845504 223.403485 
L 268.170483 212.481589 
L 268.495463 174.254953 
L 268.820442 187.907323 
L 269.145422 223.403485 
L 269.470401 223.403485 
L 269.795381 182.446375 
L 270.12036 213.573779 
L 270.770319 223.403485 
L 271.095299 223.403485 
L 271.420278 221.765201 
L 271.745258 201.559693 
L 272.070238 216.304253 
L 272.395217 223.403485 
L 272.720197 182.446375 
L 273.045176 223.403485 
L 273.695135 207.020641 
L 274.020115 222.857391 
L 274.345094 198.829219 
L 274.670074 223.403485 
L 274.995053 223.403485 
L 275.320033 185.176849 
L 275.645012 215.212063 
L 275.969992 223.403485 
L 276.294971 201.559693 
L 276.619951 220.673011 
L 276.94493 207.020641 
L 277.26991 223.403485 
L 277.594889 223.403485 
L 277.919869 209.751115 
L 278.244848 220.673011 
L 278.569828 212.481589 
L 278.894808 220.673011 
L 279.219787 223.403485 
L 279.544767 110.36186 
L 279.869746 221.765201 
L 280.194726 215.212063 
L 280.519705 204.290167 
L 280.844685 220.126916 
L 281.169664 222.857391 
L 281.494644 209.751115 
L 281.819623 223.403485 
L 282.144603 223.403485 
L 282.469582 198.829219 
L 282.794562 223.403485 
L 283.119541 223.403485 
L 283.444521 104.900912 
L 283.7695 220.673011 
L 284.09448 209.751115 
L 284.419459 223.403485 
L 284.744439 215.212063 
L 285.394398 220.673011 
L 285.719378 221.765201 
L 286.044357 223.403485 
L 286.369337 220.673011 
L 286.694316 223.403485 
L 287.019296 223.403485 
L 287.344275 215.212063 
L 287.669255 223.403485 
L 288.969173 223.403485 
L 289.294152 187.907323 
L 289.619132 223.403485 
L 289.944111 193.368271 
L 290.269091 223.403485 
L 290.91905 223.403485 
L 291.244029 190.637797 
L 291.569009 174.254953 
L 292.218968 220.673011 
L 292.543948 223.403485 
L 292.868927 185.176849 
L 293.518886 223.403485 
L 293.843866 209.751115 
L 294.168845 207.020641 
L 294.493825 223.403485 
L 295.143784 223.403485 
L 295.468763 213.573779 
L 295.793743 223.403485 
L 296.118722 223.403485 
L 296.443702 193.368271 
L 296.768681 223.403485 
L 297.093661 209.751115 
L 297.41864 223.403485 
L 297.74362 223.403485 
L 298.0686 182.446375 
L 298.393579 204.290167 
L 298.718559 217.942537 
L 299.043538 223.403485 
L 299.368518 196.098745 
L 299.693497 182.446375 
L 300.018477 223.403485 
L 300.343456 202.651883 
L 300.668436 221.765201 
L 300.993415 121.283756 
L 301.318395 215.212063 
L 301.643374 204.290167 
L 301.968354 223.403485 
L 302.293333 223.403485 
L 302.618313 207.020641 
L 302.943292 176.985427 
L 303.268272 223.403485 
L 303.593251 182.446375 
L 303.918231 223.403485 
L 304.24321 221.765201 
L 304.56819 223.403485 
L 304.89317 198.829219 
L 305.218149 223.403485 
L 305.543129 223.403485 
L 305.868108 220.673011 
L 306.193088 168.794005 
L 306.518067 182.446375 
L 306.843047 223.403485 
L 307.168026 196.098745 
L 307.493006 207.020641 
L 307.817985 201.559693 
L 308.142965 179.715901 
L 308.467944 223.403485 
L 308.792924 220.673011 
L 309.117903 150.772876 
L 309.442883 223.403485 
L 310.092842 223.403485 
L 310.417821 220.673011 
L 310.742801 212.481589 
L 311.067781 223.403485 
L 312.042719 223.403485 
L 312.367699 187.907323 
L 312.692678 221.765201 
L 313.017658 223.403485 
L 313.342637 222.857391 
L 313.667617 201.559693 
L 313.992596 223.403485 
L 314.317576 201.559693 
L 314.642555 223.403485 
L 314.967535 196.098745 
L 315.292514 217.942537 
L 315.617494 202.651883 
L 315.942473 223.403485 
L 316.267453 223.403485 
L 316.592432 171.524479 
L 316.917412 152.957255 
L 317.242391 223.403485 
L 318.21733 223.403485 
L 318.54231 182.446375 
L 318.867289 209.751115 
L 319.192269 160.602582 
L 319.517248 221.765201 
L 319.842228 194.46046 
L 320.167207 223.403485 
L 321.142146 223.403485 
L 321.792105 212.481589 
L 322.117084 204.290167 
L 322.442064 223.403485 
L 322.767043 215.212063 
L 323.092023 126.744704 
L 323.417002 133.297842 
L 323.741982 215.212063 
L 324.066962 158.418203 
L 324.391941 223.403485 
L 324.716921 223.403485 
L 325.0419 220.673011 
L 325.36688 223.403485 
L 325.691859 193.368271 
L 326.016839 223.403485 
L 326.341818 221.765201 
L 326.991777 130.567368 
L 327.316757 213.573779 
L 327.641736 223.403485 
L 327.966716 223.403485 
L 328.616675 201.559693 
L 328.941654 223.403485 
L 329.266634 193.368271 
L 329.591613 215.212063 
L 329.916593 209.751115 
L 330.241572 140.397074 
L 330.566552 223.403485 
L 330.891532 193.368271 
L 331.216511 198.829219 
L 331.86647 217.942537 
L 332.19145 113.092334 
L 332.516429 223.403485 
L 333.166388 223.403485 
L 333.491368 210.843305 
L 333.816347 223.403485 
L 334.141327 185.176849 
L 334.466306 223.403485 
L 334.791286 222.857391 
L 335.116265 182.446375 
L 335.441245 223.403485 
L 335.766224 221.765201 
L 336.091204 185.176849 
L 336.416183 223.403485 
L 336.741163 219.034727 
L 337.066143 53.568 
L 337.391122 193.368271 
L 337.716102 179.715901 
L 338.041081 223.403485 
L 338.366061 182.446375 
L 338.69104 223.403485 
L 339.01602 223.403485 
L 339.340999 185.176849 
L 339.665979 223.403485 
L 339.990958 219.034727 
L 340.315938 223.403485 
L 340.965897 223.403485 
L 341.290876 204.290167 
L 341.615856 223.403485 
L 341.940835 223.403485 
L 342.265815 209.751115 
L 342.590794 222.857391 
L 342.915774 198.829219 
L 343.240753 223.403485 
L 343.565733 209.751115 
L 343.890713 223.403485 
L 344.215692 176.985427 
L 344.540672 223.403485 
L 344.865651 215.212063 
L 345.190631 223.403485 
L 345.84059 223.403485 
L 346.165569 179.715901 
L 346.490549 187.907323 
L 346.815528 223.403485 
L 347.140508 190.637797 
L 347.465487 223.403485 
L 347.790467 182.446375 
L 348.115446 220.673011 
L 348.440426 223.403485 
L 348.765405 223.403485 
L 349.090385 204.290167 
L 349.415364 223.403485 
L 350.065324 223.403485 
L 350.390303 140.397074 
L 350.715283 223.403485 
L 351.040262 220.673011 
L 351.365242 223.403485 
L 351.690221 223.403485 
L 352.015201 217.942537 
L 352.34018 136.028316 
L 352.66516 193.368271 
L 352.990139 223.403485 
L 353.640098 223.403485 
L 353.965078 216.304253 
L 354.290057 223.403485 
L 354.615037 190.637797 
L 355.589975 198.829219 
L 355.914955 223.403485 
L 356.239934 223.403485 
L 356.564914 190.637797 
L 356.889894 223.403485 
L 357.214873 187.907323 
L 357.539853 216.304253 
L 357.864832 223.403485 
L 358.189812 223.403485 
L 358.514791 198.829219 
L 358.839771 209.751115 
L 359.16475 212.481589 
L 359.48973 223.403485 
L 359.814709 201.559693 
L 360.139689 217.942537 
L 360.464668 223.403485 
L 360.789648 223.403485 
L 361.114627 215.212063 
L 361.439607 190.637797 
L 362.089566 223.403485 
L 363.714464 223.403485 
L 364.039443 204.290167 
L 364.364423 223.403485 
L 364.689402 168.794005 
L 365.014382 176.985427 
L 365.339361 223.403485 
L 367.289238 223.403485 
L 367.614218 209.751115 
L 367.939197 212.481589 
L 368.264177 213.573779 
L 368.589156 223.403485 
L 368.914136 221.765201 
L 369.239115 223.403485 
L 369.564095 223.403485 
L 369.889075 217.942537 
L 370.214054 223.403485 
L 370.539034 223.403485 
L 370.864013 221.765201 
L 371.188993 196.098745 
L 371.513972 196.098745 
L 371.838952 214.665968 
L 372.163931 223.403485 
L 372.488911 223.403485 
L 372.81389 210.843305 
L 373.13887 215.212063 
L 373.463849 223.403485 
L 374.113808 198.829219 
L 374.438788 223.403485 
L 374.763767 223.403485 
L 375.088747 168.794005 
L 375.413726 223.403485 
L 375.738706 217.942537 
L 376.063686 223.403485 
L 376.388665 176.985427 
L 376.713645 148.588497 
L 377.038624 223.403485 
L 378.338542 223.403485 
L 378.663522 124.01423 
L 378.988501 217.942537 
L 379.313481 223.403485 
L 379.63846 187.907323 
L 379.96344 223.403485 
L 380.288419 223.403485 
L 380.938378 207.020641 
L 381.263358 204.290167 
L 381.588337 223.403485 
L 381.913317 187.907323 
L 382.238296 104.900912 
L 382.563276 213.573779 
L 382.888256 223.403485 
L 383.538215 223.403485 
L 383.863194 176.985427 
L 384.188174 220.673011 
L 384.513153 182.446375 
L 384.838133 223.403485 
L 385.163112 154.049445 
L 385.488092 176.985427 
L 385.813071 220.673011 
L 386.138051 223.403485 
L 386.46303 215.212063 
L 386.78801 220.673011 
L 387.112989 221.765201 
L 387.437969 223.403485 
L 387.762948 219.034727 
L 388.087928 223.403485 
L 388.412907 223.403485 
L 388.737887 176.985427 
L 389.062867 219.034727 
L 389.387846 223.403485 
L 389.712826 220.673011 
L 390.037805 223.403485 
L 390.362785 209.751115 
L 390.687764 223.403485 
L 391.012744 190.637797 
L 391.337723 223.403485 
L 391.662703 176.985427 
L 392.312662 223.403485 
L 392.637641 223.403485 
L 392.962621 209.751115 
L 393.2876 223.403485 
L 393.61258 201.559693 
L 393.937559 223.403485 
L 394.912498 223.403485 
L 395.237477 204.290167 
L 395.562457 223.403485 
L 395.887437 220.673011 
L 396.212416 187.907323 
L 396.537396 213.573779 
L 396.862375 223.403485 
L 397.187355 223.403485 
L 397.512334 193.368271 
L 397.837314 217.942537 
L 398.162293 197.190935 
L 398.487273 223.403485 
L 398.487273 223.403485 
" style="fill:none;stroke:#0000ff;stroke-linecap:square;stroke-width:1.5;"/>
   </g>
   <g id="line2d_13">
    <path clip-path="url(#p23be5b96be)" d="M 73.832727 283.473914 
L 74.157707 265.452786 
L 74.482686 265.452786 
L 74.807666 270.913734 
L 75.132645 236.509761 
L 75.457625 241.970709 
L 76.107584 220.126916 
L 76.432563 235.417571 
L 76.757543 232.687097 
L 77.082523 265.452786 
L 77.407502 264.360596 
L 77.732482 237.055856 
L 78.057461 250.162131 
L 78.382441 232.687097 
L 78.70742 238.148045 
L 79.0324 247.431657 
L 79.357379 238.148045 
L 79.682359 209.751115 
L 80.007338 240.878519 
L 80.332318 295.488 
L 80.657297 267.09107 
L 80.982277 262.176217 
L 81.307256 267.09107 
L 81.632236 201.559693 
L 81.957215 265.99888 
L 82.282195 243.608993 
L 82.607174 243.608993 
L 82.932154 204.290167 
L 83.257133 259.445743 
L 83.582113 262.176217 
L 83.907093 235.417571 
L 84.232072 257.261363 
L 84.557052 249.616036 
L 84.882031 247.431657 
L 85.207011 253.984795 
L 85.53199 231.594907 
L 85.85697 258.353553 
L 86.181949 223.403485 
L 86.506929 261.630122 
L 86.831908 243.608993 
L 87.156888 256.715269 
L 87.481867 182.446375 
L 87.806847 246.339467 
L 88.131826 251.254321 
L 88.456806 247.431657 
L 88.781785 245.793372 
L 89.106765 251.800415 
L 89.431744 251.800415 
L 89.756724 239.240235 
L 90.081704 251.800415 
L 90.406683 223.403485 
L 90.731663 251.800415 
L 91.056642 234.325381 
L 91.381622 253.984795 
L 91.706601 233.779287 
L 92.031581 223.403485 
L 92.35656 251.254321 
L 92.68154 228.318339 
L 93.006519 226.133959 
L 93.331499 229.956623 
L 93.656478 229.956623 
L 93.981458 228.864433 
L 94.306437 209.751115 
L 94.631417 221.765201 
L 94.956396 204.290167 
L 95.281376 238.148045 
L 95.606355 244.701183 
L 95.931335 247.431657 
L 96.256314 224.495675 
L 96.581294 212.481589 
L 96.906274 243.608993 
L 97.231253 229.956623 
L 97.556233 247.431657 
L 97.881212 219.034727 
L 98.206192 295.488 
L 98.856151 244.701183 
L 99.18113 251.254321 
L 99.50611 251.254321 
L 99.831089 267.09107 
L 100.156069 250.162131 
L 100.481048 256.715269 
L 100.806028 238.148045 
L 101.131007 250.162131 
L 101.455987 251.800415 
L 101.780966 232.687097 
L 102.105946 235.417571 
L 102.430925 249.069941 
L 102.755905 240.878519 
L 103.080885 256.715269 
L 103.405864 259.445743 
L 103.730844 226.133959 
L 104.055823 207.020641 
L 104.380803 255.623079 
L 104.705782 240.878519 
L 105.030762 232.687097 
L 105.355741 209.751115 
L 105.680721 209.751115 
L 106.0057 250.162131 
L 106.33068 235.417571 
L 106.655659 247.431657 
L 106.980639 229.956623 
L 107.305618 232.687097 
L 107.630598 239.240235 
L 107.955577 240.878519 
L 108.280557 238.148045 
L 108.605536 243.608993 
L 108.930516 253.4387 
L 109.255495 229.956623 
L 109.580475 251.800415 
L 109.905455 204.290167 
L 110.230434 236.509761 
L 110.555414 207.020641 
L 110.880393 247.977752 
L 111.205373 235.417571 
L 111.530352 252.892605 
L 111.855332 244.701183 
L 112.180311 252.34651 
L 112.505291 247.431657 
L 112.83027 247.431657 
L 113.15525 242.516804 
L 113.480229 215.212063 
L 113.805209 247.431657 
L 115.105127 247.431657 
L 115.430106 256.715269 
L 115.755086 239.78633 
L 116.080066 234.325381 
L 116.405045 245.247278 
L 116.730025 179.715901 
L 117.055004 247.977752 
L 117.379984 249.069941 
L 117.704963 256.715269 
L 118.029943 212.481589 
L 118.354922 201.559693 
L 118.679902 259.445743 
L 119.004881 240.332424 
L 119.329861 257.807458 
L 119.97982 207.020641 
L 120.304799 257.807458 
L 120.954758 232.687097 
L 121.279738 187.907323 
L 121.604717 251.254321 
L 122.254676 204.290167 
L 122.579656 226.133959 
L 122.904636 259.445743 
L 123.229615 244.701183 
L 123.554595 220.673011 
L 123.879574 250.708226 
L 124.204554 265.99888 
L 124.529533 240.878519 
L 124.854513 245.793372 
L 125.179492 253.984795 
L 125.504472 257.261363 
L 125.829451 251.254321 
L 126.154431 198.829219 
L 126.47941 257.261363 
L 126.80439 257.261363 
L 127.129369 243.608993 
L 127.454349 215.212063 
L 127.779328 219.034727 
L 128.429287 251.254321 
L 128.754267 253.984795 
L 129.079247 221.765201 
L 129.404226 241.970709 
L 129.729206 221.765201 
L 130.054185 223.403485 
L 130.379165 226.133959 
L 130.704144 232.687097 
L 131.029124 137.6666 
L 131.354103 212.481589 
L 132.004062 212.481589 
L 132.329042 204.290167 
L 132.654021 201.559693 
L 132.979001 258.353553 
L 133.30398 221.765201 
L 133.62896 238.148045 
L 133.953939 238.148045 
L 134.278919 237.055856 
L 134.603898 239.78633 
L 134.928878 235.417571 
L 135.253857 239.240235 
L 135.578837 220.673011 
L 135.903817 256.715269 
L 136.553776 215.212063 
L 136.878755 256.715269 
L 137.528714 207.020641 
L 137.853694 259.991837 
L 138.178673 243.608993 
L 138.503653 255.623079 
L 138.828632 263.268406 
L 139.153612 196.098745 
L 139.478591 235.417571 
L 139.803571 238.148045 
L 140.12855 237.055856 
L 140.45353 238.148045 
L 140.778509 127.836894 
L 142.728387 127.836894 
L 143.053366 209.751115 
L 145.653202 209.751115 
L 145.978182 246.339467 
L 146.303161 246.339467 
L 146.628141 209.751115 
L 146.95312 155.141634 
L 147.2781 155.141634 
L 147.603079 251.254321 
L 147.928059 245.247278 
L 148.253038 252.892605 
L 148.578018 237.055856 
L 148.902998 193.368271 
L 149.227977 240.878519 
L 149.552957 118.553282 
L 149.877936 240.878519 
L 150.202916 239.78633 
L 150.527895 238.148045 
L 150.852875 232.687097 
L 151.177854 196.098745 
L 151.502834 231.594907 
L 151.827813 232.687097 
L 152.152793 228.318339 
L 152.477772 217.396442 
L 152.802752 226.133959 
L 153.127731 239.78633 
L 153.452711 235.417571 
L 153.77769 243.608993 
L 154.10267 212.481589 
L 154.427649 240.878519 
L 154.752629 242.516804 
L 155.077609 201.559693 
L 155.402588 232.687097 
L 155.727568 229.956623 
L 156.052547 210.843305 
L 156.377527 221.765201 
L 156.702506 198.829219 
L 157.027486 228.864433 
L 157.352465 229.956623 
L 157.677445 212.481589 
L 158.002424 215.212063 
L 158.327404 226.133959 
L 158.652383 265.99888 
L 158.977363 261.084027 
L 159.302342 219.034727 
L 159.627322 234.325381 
L 159.952301 243.608993 
L 160.277281 243.608993 
L 160.60226 240.332424 
L 160.92724 215.212063 
L 161.252219 233.779287 
L 161.577199 240.878519 
L 161.902179 243.608993 
L 162.227158 251.800415 
L 162.552138 249.616036 
L 162.877117 240.332424 
L 163.202097 264.360596 
L 163.527076 226.133959 
L 163.852056 210.843305 
L 164.177035 226.133959 
L 164.502015 248.523847 
L 164.826994 255.623079 
L 165.151974 226.133959 
L 165.476953 227.226149 
L 165.801933 250.162131 
L 166.126912 239.78633 
L 166.451892 215.212063 
L 166.776871 240.878519 
L 167.101851 240.878519 
L 167.42683 234.325381 
L 168.07679 240.878519 
L 168.401769 240.878519 
L 169.051728 196.098745 
L 169.376708 232.687097 
L 169.701687 235.417571 
L 170.026667 252.892605 
L 170.351646 245.247278 
L 171.001605 245.247278 
L 171.326585 231.048813 
L 171.651564 236.509761 
L 171.976544 215.212063 
L 172.301523 217.942537 
L 172.626503 193.368271 
L 172.951482 190.637797 
L 173.276462 227.226149 
L 173.601441 234.325381 
L 173.926421 209.751115 
L 174.2514 245.793372 
L 174.57638 207.020641 
L 174.90136 234.325381 
L 175.226339 229.956623 
L 175.551319 241.424614 
L 175.876298 215.212063 
L 176.201278 239.78633 
L 176.526257 198.829219 
L 176.851237 239.240235 
L 177.176216 215.212063 
L 177.501196 215.212063 
L 177.826175 240.878519 
L 178.151155 227.226149 
L 178.476134 265.452786 
L 178.801114 217.942537 
L 179.126093 212.481589 
L 179.451073 236.509761 
L 179.776052 204.290167 
L 180.101032 237.055856 
L 180.426011 209.751115 
L 181.40095 209.751115 
L 181.72593 137.6666 
L 182.050909 209.751115 
L 182.375889 217.942537 
L 182.700868 190.637797 
L 183.025848 207.020641 
L 183.350827 198.829219 
L 183.675807 220.673011 
L 184.000786 221.765201 
L 184.325766 219.034727 
L 184.650745 190.637797 
L 184.975725 209.751115 
L 185.300704 239.240235 
L 185.625684 223.403485 
L 185.950663 228.864433 
L 186.275643 209.751115 
L 186.600622 223.403485 
L 186.925602 242.516804 
L 187.250581 238.148045 
L 187.575561 238.148045 
L 187.900541 129.475178 
L 188.22552 238.148045 
L 188.5505 237.055856 
L 188.875479 238.148045 
L 189.200459 234.325381 
L 189.525438 228.864433 
L 189.850418 220.673011 
L 190.175397 207.020641 
L 190.825356 207.020641 
L 191.150336 193.368271 
L 191.475315 207.020641 
L 191.800295 207.020641 
L 192.125274 193.368271 
L 192.450254 207.020641 
L 193.100213 207.020641 
L 193.425192 234.325381 
L 193.750172 235.417571 
L 194.075152 238.148045 
L 194.400131 239.240235 
L 194.725111 176.985427 
L 195.37507 223.403485 
L 195.700049 226.133959 
L 196.025029 240.878519 
L 196.350008 171.524479 
L 196.674988 196.098745 
L 196.999967 182.446375 
L 197.324947 233.779287 
L 197.649926 196.098745 
L 197.974906 215.212063 
L 198.299885 187.907323 
L 198.624865 207.020641 
L 198.949844 215.212063 
L 199.274824 212.481589 
L 199.599803 205.382357 
L 199.924783 215.212063 
L 200.249762 107.631386 
L 200.574742 113.092334 
L 200.899722 149.134591 
L 201.224701 229.956623 
L 201.549681 224.495675 
L 201.87466 224.495675 
L 202.19964 231.048813 
L 202.524619 204.290167 
L 202.849599 196.098745 
L 203.499558 201.559693 
L 203.824537 153.50335 
L 204.149517 212.481589 
L 204.474496 217.942537 
L 204.799476 228.864433 
L 205.124455 187.907323 
L 205.449435 207.020641 
L 206.099394 217.942537 
L 206.749353 193.368271 
L 207.074333 190.637797 
L 207.399312 236.509761 
L 207.724292 231.594907 
L 208.049271 259.445743 
L 208.69923 228.864433 
L 209.02421 228.864433 
L 209.349189 209.751115 
L 209.674169 228.864433 
L 210.649107 228.864433 
L 210.974087 217.942537 
L 211.299066 228.864433 
L 211.624046 226.133959 
L 211.949025 153.50335 
L 212.274005 213.573779 
L 212.598984 207.020641 
L 212.923964 231.048813 
L 213.248943 217.942537 
L 213.573923 193.368271 
L 213.898903 232.687097 
L 214.223882 193.368271 
L 214.548862 226.133959 
L 214.873841 207.020641 
L 215.198821 228.864433 
L 215.5238 223.403485 
L 215.84878 228.864433 
L 216.173759 226.133959 
L 216.498739 198.829219 
L 216.823718 215.212063 
L 217.148698 224.495675 
L 217.473677 217.942537 
L 217.798657 201.559693 
L 218.123636 213.573779 
L 218.448616 217.942537 
L 218.773595 217.942537 
L 219.098575 258.353553 
L 219.748534 228.864433 
L 220.073514 267.09107 
L 220.398493 251.800415 
L 220.723473 215.212063 
L 221.048452 220.673011 
L 221.373432 246.339467 
L 221.698411 229.956623 
L 222.023391 221.765201 
L 222.34837 196.098745 
L 222.67335 207.020641 
L 222.998329 257.807458 
L 223.323309 198.829219 
L 223.648288 185.176849 
L 223.973268 241.970709 
L 224.298247 240.878519 
L 224.623227 234.325381 
L 224.948206 174.254953 
L 225.273186 237.055856 
L 225.598165 237.055856 
L 225.923145 228.864433 
L 226.248124 228.864433 
L 226.573104 238.148045 
L 226.898084 216.304253 
L 227.223063 217.942537 
L 227.548043 223.403485 
L 227.873022 187.907323 
L 228.198002 190.637797 
L 228.522981 226.133959 
L 228.847961 196.098745 
L 229.17294 204.290167 
L 229.49792 196.098745 
L 229.822899 223.403485 
L 230.147879 231.594907 
L 230.472858 207.020641 
L 230.797838 201.559693 
L 231.122817 227.226149 
L 231.447797 193.368271 
L 231.772776 226.133959 
L 232.097756 226.133959 
L 232.422735 209.751115 
L 233.072695 204.290167 
L 233.397674 185.176849 
L 233.722654 176.985427 
L 234.047633 176.985427 
L 234.697592 216.304253 
L 235.022572 185.176849 
L 235.347551 190.637797 
L 235.99751 236.509761 
L 236.32249 224.495675 
L 236.647469 249.069941 
L 236.972449 231.594907 
L 237.297428 201.559693 
L 237.622408 217.942537 
L 237.947387 246.339467 
L 238.272367 228.864433 
L 238.597346 243.608993 
L 239.247305 204.290167 
L 239.572285 238.148045 
L 239.897265 228.864433 
L 240.222244 231.594907 
L 240.547224 187.907323 
L 240.872203 185.176849 
L 241.197183 229.956623 
L 241.522162 232.687097 
L 241.847142 239.78633 
L 242.172121 228.318339 
L 242.497101 209.751115 
L 242.82208 236.509761 
L 243.14706 227.226149 
L 243.472039 243.608993 
L 243.797019 201.559693 
L 244.121998 193.368271 
L 244.446978 204.290167 
L 244.771957 207.020641 
L 245.096937 160.602582 
L 245.421916 209.751115 
L 245.746896 196.098745 
L 246.071876 212.481589 
L 246.396855 201.559693 
L 246.721835 115.822808 
L 247.046814 201.559693 
L 247.371794 250.162131 
L 247.696773 234.325381 
L 248.021753 240.878519 
L 248.346732 190.637797 
L 248.996691 231.594907 
L 249.321671 201.559693 
L 249.64665 220.673011 
L 249.97163 151.318971 
L 250.296609 209.751115 
L 250.621589 229.956623 
L 250.946568 241.970709 
L 251.271548 234.325381 
L 251.596527 232.687097 
L 251.921507 240.878519 
L 252.571466 201.559693 
L 252.896446 241.970709 
L 253.221425 201.559693 
L 253.546405 176.985427 
L 253.871384 201.559693 
L 254.196364 209.751115 
L 254.521343 212.481589 
L 255.171302 185.176849 
L 255.496282 201.559693 
L 256.7962 201.559693 
L 257.121179 138.75879 
L 257.446159 201.559693 
L 257.771138 201.559693 
L 258.096118 242.516804 
L 258.421097 204.290167 
L 258.746077 196.098745 
L 259.071057 217.942537 
L 259.721016 217.942537 
L 260.045995 110.36186 
L 260.370975 215.212063 
L 260.695954 213.573779 
L 261.020934 231.594907 
L 261.345913 229.956623 
L 261.670893 224.495675 
L 261.995872 202.651883 
L 262.320852 217.942537 
L 262.645831 212.481589 
L 262.970811 209.751115 
L 263.29579 198.829219 
L 263.62077 231.594907 
L 263.945749 217.942537 
L 264.270729 198.829219 
L 264.595708 231.594907 
L 264.920688 221.765201 
L 265.570647 193.368271 
L 266.220606 229.956623 
L 266.545586 196.098745 
L 266.870565 219.034727 
L 267.195545 204.290167 
L 267.520524 171.524479 
L 267.845504 121.283756 
L 268.170483 227.226149 
L 268.495463 220.673011 
L 268.820442 179.715901 
L 269.145422 228.864433 
L 269.470401 229.956623 
L 269.795381 223.403485 
L 270.12036 223.403485 
L 270.44534 209.751115 
L 270.770319 223.403485 
L 271.420278 209.751115 
L 271.745258 179.715901 
L 272.070238 201.559693 
L 272.395217 215.212063 
L 272.720197 185.176849 
L 273.045176 137.6666 
L 273.695135 217.942537 
L 274.345094 198.829219 
L 274.670074 207.020641 
L 274.995053 187.907323 
L 275.320033 220.673011 
L 275.645012 215.212063 
L 275.969992 182.446375 
L 276.619951 215.212063 
L 276.94493 212.481589 
L 277.26991 231.594907 
L 277.594889 193.368271 
L 277.919869 212.481589 
L 278.244848 190.637797 
L 278.569828 134.390032 
L 278.894808 196.098745 
L 279.219787 196.098745 
L 279.544767 171.524479 
L 279.869746 212.481589 
L 280.194726 179.715901 
L 280.844685 244.701183 
L 281.169664 239.78633 
L 281.494644 227.226149 
L 281.819623 187.907323 
L 282.144603 187.907323 
L 282.469582 190.637797 
L 282.794562 236.509761 
L 283.119541 190.637797 
L 283.444521 204.290167 
L 283.7695 204.290167 
L 284.09448 215.212063 
L 284.419459 193.368271 
L 284.744439 201.559693 
L 285.069419 185.176849 
L 285.394398 190.637797 
L 285.719378 193.368271 
L 286.044357 234.325381 
L 286.369337 225.587865 
L 286.694316 198.829219 
L 287.344275 227.226149 
L 287.669255 102.170438 
L 287.994234 196.098745 
L 288.319214 154.59554 
L 288.644193 198.829219 
L 288.969173 182.446375 
L 289.294152 212.481589 
L 289.619132 215.212063 
L 289.944111 124.01423 
L 290.269091 190.637797 
L 290.59407 190.637797 
L 290.91905 176.985427 
L 291.244029 174.254953 
L 291.569009 190.637797 
L 293.193907 190.637797 
L 293.518886 220.673011 
L 293.843866 235.417571 
L 294.168845 179.715901 
L 294.493825 182.446375 
L 294.818804 227.226149 
L 295.143784 212.481589 
L 295.468763 190.637797 
L 295.793743 187.907323 
L 296.118722 217.942537 
L 296.443702 204.290167 
L 296.768681 224.495675 
L 297.41864 242.516804 
L 297.74362 219.034727 
L 298.0686 217.942537 
L 298.393579 217.942537 
L 298.718559 231.594907 
L 299.368518 201.559693 
L 299.693497 209.751115 
L 300.018477 179.715901 
L 300.343456 204.290167 
L 300.668436 145.311928 
L 300.993415 207.020641 
L 301.318395 201.559693 
L 301.643374 212.481589 
L 301.968354 187.907323 
L 302.618313 207.020641 
L 303.268272 190.637797 
L 303.593251 193.368271 
L 304.24321 193.368271 
L 304.56819 212.481589 
L 304.89317 176.985427 
L 305.218149 253.984795 
L 305.543129 231.594907 
L 305.868108 235.417571 
L 306.193088 223.403485 
L 306.518067 223.403485 
L 306.843047 204.290167 
L 307.168026 155.687729 
L 307.493006 193.368271 
L 308.792924 193.368271 
L 309.117903 182.446375 
L 309.442883 182.446375 
L 309.767862 193.368271 
L 310.092842 193.368271 
L 310.417821 115.822808 
L 310.742801 224.495675 
L 311.067781 126.198609 
L 311.39276 215.212063 
L 311.71774 137.6666 
L 312.042719 190.637797 
L 312.367699 215.212063 
L 312.692678 196.098745 
L 313.017658 201.559693 
L 313.342637 201.559693 
L 313.992596 220.673011 
L 314.317576 187.907323 
L 314.642555 221.765201 
L 314.967535 220.673011 
L 315.292514 207.020641 
L 315.617494 235.417571 
L 315.942473 201.559693 
L 316.267453 196.098745 
L 316.592432 102.170438 
L 316.917412 196.098745 
L 317.242391 190.637797 
L 317.567371 205.382357 
L 317.892351 207.020641 
L 318.21733 209.751115 
L 318.54231 215.212063 
L 318.867289 179.715901 
L 319.192269 198.829219 
L 319.517248 113.092334 
L 319.842228 212.481589 
L 320.492187 171.524479 
L 320.817166 171.524479 
L 321.142146 209.751115 
L 321.467125 187.907323 
L 321.792105 220.673011 
L 322.117084 204.290167 
L 322.442064 209.751115 
L 322.767043 190.637797 
L 323.092023 201.559693 
L 324.391941 201.559693 
L 324.716921 193.368271 
L 325.0419 93.979016 
L 325.36688 201.559693 
L 325.691859 201.559693 
L 326.016839 176.985427 
L 326.341818 231.594907 
L 326.666798 209.751115 
L 326.991777 207.020641 
L 327.316757 138.75879 
L 327.641736 196.098745 
L 327.966716 163.333056 
L 328.291695 204.290167 
L 328.616675 204.290167 
L 328.941654 207.020641 
L 329.266634 215.212063 
L 329.591613 208.112831 
L 329.916593 139.85098 
L 330.241572 217.942537 
L 330.891532 198.829219 
L 331.216511 207.020641 
L 331.541491 201.559693 
L 331.86647 204.290167 
L 332.19145 215.212063 
L 332.516429 198.829219 
L 332.841409 207.020641 
L 333.166388 127.836894 
L 333.491368 204.290167 
L 333.816347 217.942537 
L 334.141327 185.176849 
L 334.466306 185.176849 
L 334.791286 212.481589 
L 335.116265 204.290167 
L 335.441245 204.290167 
L 335.766224 176.985427 
L 336.091204 201.559693 
L 336.416183 210.843305 
L 336.741163 185.176849 
L 337.066143 207.020641 
L 337.391122 209.751115 
L 337.716102 209.751115 
L 338.041081 208.112831 
L 338.69104 196.098745 
L 339.01602 223.403485 
L 339.340999 193.368271 
L 339.665979 196.098745 
L 339.990958 204.290167 
L 340.315938 217.942537 
L 340.640917 207.020641 
L 341.290876 174.254953 
L 341.615856 196.098745 
L 341.940835 171.524479 
L 342.265815 217.942537 
L 342.590794 215.212063 
L 342.915774 215.212063 
L 343.240753 196.098745 
L 343.565733 148.042402 
L 343.890713 163.333056 
L 344.215692 132.205652 
L 344.540672 212.481589 
L 344.865651 198.829219 
L 345.190631 198.829219 
L 345.51561 125.10642 
L 345.84059 125.10642 
L 346.165569 171.524479 
L 346.490549 193.368271 
L 346.815528 196.098745 
L 347.140508 196.098745 
L 347.465487 179.715901 
L 347.790467 215.212063 
L 348.115446 201.559693 
L 348.440426 215.212063 
L 348.765405 209.751115 
L 349.090385 93.979016 
L 349.415364 196.098745 
L 349.740344 198.829219 
L 350.065324 204.290167 
L 350.390303 231.594907 
L 350.715283 179.715901 
L 351.040262 204.290167 
L 351.365242 198.829219 
L 351.690221 182.446375 
L 352.015201 190.637797 
L 352.34018 209.751115 
L 352.66516 207.020641 
L 352.990139 190.637797 
L 353.315119 204.290167 
L 353.640098 124.01423 
L 353.965078 212.481589 
L 354.290057 212.481589 
L 354.615037 209.751115 
L 354.940016 212.481589 
L 355.264996 204.290167 
L 355.589975 176.985427 
L 355.914955 171.524479 
L 356.239934 210.843305 
L 356.564914 204.290167 
L 356.889894 209.751115 
L 357.214873 190.637797 
L 357.539853 207.020641 
L 357.864832 201.559693 
L 358.189812 223.403485 
L 358.514791 198.829219 
L 358.839771 212.481589 
L 359.16475 198.829219 
L 359.48973 118.553282 
L 359.814709 201.559693 
L 360.464668 201.559693 
L 360.789648 63.943801 
L 361.114627 187.907323 
L 361.764586 217.942537 
L 362.089566 223.403485 
L 362.414545 171.524479 
L 362.739525 160.602582 
L 363.064505 215.212063 
L 363.389484 198.829219 
L 363.714464 204.290167 
L 364.039443 185.176849 
L 364.364423 193.368271 
L 364.689402 160.602582 
L 365.014382 148.042402 
L 365.339361 96.70949 
L 365.664341 217.942537 
L 365.98932 204.290167 
L 366.3143 221.765201 
L 366.964259 187.907323 
L 367.289238 193.368271 
L 367.614218 171.524479 
L 367.939197 215.212063 
L 368.264177 207.020641 
L 368.589156 217.942537 
L 368.914136 207.020641 
L 369.239115 201.559693 
L 369.564095 217.942537 
L 369.889075 104.900912 
L 370.214054 212.481589 
L 370.539034 187.907323 
L 370.864013 217.942537 
L 371.188993 187.907323 
L 371.513972 179.715901 
L 371.838952 201.559693 
L 372.163931 212.481589 
L 372.488911 215.212063 
L 372.81389 179.715901 
L 373.13887 226.133959 
L 373.463849 209.751115 
L 373.788829 227.226149 
L 374.438788 196.098745 
L 374.763767 207.020641 
L 375.088747 228.864433 
L 375.413726 204.290167 
L 375.738706 228.864433 
L 376.063686 228.864433 
L 376.388665 207.020641 
L 376.713645 127.836894 
L 377.038624 215.212063 
L 377.363604 125.10642 
L 377.688583 154.59554 
L 378.013563 209.751115 
L 378.338542 201.559693 
L 378.663522 212.481589 
L 378.988501 171.524479 
L 379.313481 223.403485 
L 379.63846 217.942537 
L 379.96344 217.942537 
L 380.288419 212.481589 
L 380.613399 196.098745 
L 380.938378 193.368271 
L 381.263358 207.020641 
L 381.588337 104.900912 
L 381.913317 204.290167 
L 382.238296 182.446375 
L 382.563276 204.290167 
L 382.888256 196.098745 
L 383.213235 209.751115 
L 383.538215 217.942537 
L 383.863194 209.751115 
L 384.188174 122.375946 
L 384.513153 187.907323 
L 384.838133 198.829219 
L 385.163112 179.715901 
L 385.488092 201.559693 
L 385.813071 198.829219 
L 386.46303 204.290167 
L 386.78801 227.226149 
L 387.112989 201.559693 
L 387.437969 144.219738 
L 387.762948 201.559693 
L 388.087928 209.751115 
L 388.412907 77.596172 
L 388.737887 196.098745 
L 389.062867 229.956623 
L 389.387846 220.673011 
L 389.712826 201.559693 
L 390.037805 217.942537 
L 390.362785 212.481589 
L 390.687764 209.751115 
L 391.012744 201.559693 
L 391.337723 121.283756 
L 391.662703 209.751115 
L 391.987682 179.715901 
L 392.637641 212.481589 
L 392.962621 182.446375 
L 393.2876 223.403485 
L 393.61258 130.567368 
L 393.937559 190.637797 
L 394.262539 126.744704 
L 394.587518 187.907323 
L 394.912498 198.829219 
L 395.237477 204.290167 
L 395.562457 217.942537 
L 395.887437 187.907323 
L 396.212416 217.942537 
L 396.862375 185.176849 
L 397.187355 116.914998 
L 397.512334 201.559693 
L 397.837314 193.368271 
L 398.162293 140.397074 
L 398.487273 209.751115 
L 398.487273 209.751115 
" style="fill:none;stroke:#ff0000;stroke-linecap:square;stroke-width:1.5;"/>
   </g>
   <g id="patch_3">
    <path d="M 57.6 307.584 
L 57.6 41.472 
" style="fill:none;stroke:#000000;stroke-linecap:square;stroke-linejoin:miter;stroke-width:0.8;"/>
   </g>
   <g id="patch_4">
    <path d="M 414.72 307.584 
L 414.72 41.472 
" style="fill:none;stroke:#000000;stroke-linecap:square;stroke-linejoin:miter;stroke-width:0.8;"/>
   </g>
   <g id="patch_5">
    <path d="M 57.6 307.584 
L 414.72 307.584 
" style="fill:none;stroke:#000000;stroke-linecap:square;stroke-linejoin:miter;stroke-width:0.8;"/>
   </g>
   <g id="patch_6">
    <path d="M 57.6 41.472 
L 414.72 41.472 
" style="fill:none;stroke:#000000;stroke-linecap:square;stroke-linejoin:miter;stroke-width:0.8;"/>
   </g>
   <g id="legend_1">
    <g id="patch_7">
     <path d="M 64.6 78.82825 
L 143.184375 78.82825 
Q 145.184375 78.82825 145.184375 76.82825 
L 145.184375 48.472 
Q 145.184375 46.472 143.184375 46.472 
L 64.6 46.472 
Q 62.6 46.472 62.6 48.472 
L 62.6 76.82825 
Q 62.6 78.82825 64.6 78.82825 
z
" style="fill:#ffffff;opacity:0.8;stroke:#cccccc;stroke-linejoin:miter;"/>
    </g>
    <g id="line2d_14">
     <path d="M 66.6 54.570437 
L 86.6 54.570437 
" style="fill:none;stroke:#0000ff;stroke-linecap:square;stroke-width:1.5;"/>
    </g>
    <g id="line2d_15"/>
    <g id="text_12">
     <!-- Base GA -->
     <defs>
      <path d="M 19.671875 34.8125 
L 19.671875 8.109375 
L 35.5 8.109375 
Q 43.453125 8.109375 47.28125 11.40625 
Q 51.125 14.703125 51.125 21.484375 
Q 51.125 28.328125 47.28125 31.5625 
Q 43.453125 34.8125 35.5 34.8125 
z
M 19.671875 64.796875 
L 19.671875 42.828125 
L 34.28125 42.828125 
Q 41.5 42.828125 45.03125 45.53125 
Q 48.578125 48.25 48.578125 53.8125 
Q 48.578125 59.328125 45.03125 62.0625 
Q 41.5 64.796875 34.28125 64.796875 
z
M 9.8125 72.90625 
L 35.015625 72.90625 
Q 46.296875 72.90625 52.390625 68.21875 
Q 58.5 63.53125 58.5 54.890625 
Q 58.5 48.1875 55.375 44.234375 
Q 52.25 40.28125 46.1875 39.3125 
Q 53.46875 37.75 57.5 32.78125 
Q 61.53125 27.828125 61.53125 20.40625 
Q 61.53125 10.640625 54.890625 5.3125 
Q 48.25 0 35.984375 0 
L 9.8125 0 
z
" id="DejaVuSans-42"/>
      <path d="M 34.28125 27.484375 
Q 23.390625 27.484375 19.1875 25 
Q 14.984375 22.515625 14.984375 16.5 
Q 14.984375 11.71875 18.140625 8.90625 
Q 21.296875 6.109375 26.703125 6.109375 
Q 34.1875 6.109375 38.703125 11.40625 
Q 43.21875 16.703125 43.21875 25.484375 
L 43.21875 27.484375 
z
M 52.203125 31.203125 
L 52.203125 0 
L 43.21875 0 
L 43.21875 8.296875 
Q 40.140625 3.328125 35.546875 0.953125 
Q 30.953125 -1.421875 24.3125 -1.421875 
Q 15.921875 -1.421875 10.953125 3.296875 
Q 6 8.015625 6 15.921875 
Q 6 25.140625 12.171875 29.828125 
Q 18.359375 34.515625 30.609375 34.515625 
L 43.21875 34.515625 
L 43.21875 35.40625 
Q 43.21875 41.609375 39.140625 45 
Q 35.0625 48.390625 27.6875 48.390625 
Q 23 48.390625 18.546875 47.265625 
Q 14.109375 46.140625 10.015625 43.890625 
L 10.015625 52.203125 
Q 14.9375 54.109375 19.578125 55.046875 
Q 24.21875 56 28.609375 56 
Q 40.484375 56 46.34375 49.84375 
Q 52.203125 43.703125 52.203125 31.203125 
z
" id="DejaVuSans-61"/>
      <path d="M 44.28125 53.078125 
L 44.28125 44.578125 
Q 40.484375 46.53125 36.375 47.5 
Q 32.28125 48.484375 27.875 48.484375 
Q 21.1875 48.484375 17.84375 46.4375 
Q 14.5 44.390625 14.5 40.28125 
Q 14.5 37.15625 16.890625 35.375 
Q 19.28125 33.59375 26.515625 31.984375 
L 29.59375 31.296875 
Q 39.15625 29.25 43.1875 25.515625 
Q 47.21875 21.78125 47.21875 15.09375 
Q 47.21875 7.46875 41.1875 3.015625 
Q 35.15625 -1.421875 24.609375 -1.421875 
Q 20.21875 -1.421875 15.453125 -0.5625 
Q 10.6875 0.296875 5.421875 2 
L 5.421875 11.28125 
Q 10.40625 8.6875 15.234375 7.390625 
Q 20.0625 6.109375 24.8125 6.109375 
Q 31.15625 6.109375 34.5625 8.28125 
Q 37.984375 10.453125 37.984375 14.40625 
Q 37.984375 18.0625 35.515625 20.015625 
Q 33.0625 21.96875 24.703125 23.78125 
L 21.578125 24.515625 
Q 13.234375 26.265625 9.515625 29.90625 
Q 5.8125 33.546875 5.8125 39.890625 
Q 5.8125 47.609375 11.28125 51.796875 
Q 16.75 56 26.8125 56 
Q 31.78125 56 36.171875 55.265625 
Q 40.578125 54.546875 44.28125 53.078125 
z
" id="DejaVuSans-73"/>
      <path d="M 56.203125 29.59375 
L 56.203125 25.203125 
L 14.890625 25.203125 
Q 15.484375 15.921875 20.484375 11.0625 
Q 25.484375 6.203125 34.421875 6.203125 
Q 39.59375 6.203125 44.453125 7.46875 
Q 49.3125 8.734375 54.109375 11.28125 
L 54.109375 2.78125 
Q 49.265625 0.734375 44.1875 -0.34375 
Q 39.109375 -1.421875 33.890625 -1.421875 
Q 20.796875 -1.421875 13.15625 6.1875 
Q 5.515625 13.8125 5.515625 26.8125 
Q 5.515625 40.234375 12.765625 48.109375 
Q 20.015625 56 32.328125 56 
Q 43.359375 56 49.78125 48.890625 
Q 56.203125 41.796875 56.203125 29.59375 
z
M 47.21875 32.234375 
Q 47.125 39.59375 43.09375 43.984375 
Q 39.0625 48.390625 32.421875 48.390625 
Q 24.90625 48.390625 20.390625 44.140625 
Q 15.875 39.890625 15.1875 32.171875 
z
" id="DejaVuSans-65"/>
      <path id="DejaVuSans-20"/>
      <path d="M 59.515625 10.40625 
L 59.515625 29.984375 
L 43.40625 29.984375 
L 43.40625 38.09375 
L 69.28125 38.09375 
L 69.28125 6.78125 
Q 63.578125 2.734375 56.6875 0.65625 
Q 49.8125 -1.421875 42 -1.421875 
Q 24.90625 -1.421875 15.25 8.5625 
Q 5.609375 18.5625 5.609375 36.375 
Q 5.609375 54.25 15.25 64.234375 
Q 24.90625 74.21875 42 74.21875 
Q 49.125 74.21875 55.546875 72.453125 
Q 61.96875 70.703125 67.390625 67.28125 
L 67.390625 56.78125 
Q 61.921875 61.421875 55.765625 63.765625 
Q 49.609375 66.109375 42.828125 66.109375 
Q 29.4375 66.109375 22.71875 58.640625 
Q 16.015625 51.171875 16.015625 36.375 
Q 16.015625 21.625 22.71875 14.15625 
Q 29.4375 6.6875 42.828125 6.6875 
Q 48.046875 6.6875 52.140625 7.59375 
Q 56.25 8.5 59.515625 10.40625 
z
" id="DejaVuSans-47"/>
      <path d="M 34.1875 63.1875 
L 20.796875 26.90625 
L 47.609375 26.90625 
z
M 28.609375 72.90625 
L 39.796875 72.90625 
L 67.578125 0 
L 57.328125 0 
L 50.6875 18.703125 
L 17.828125 18.703125 
L 11.1875 0 
L 0.78125 0 
z
" id="DejaVuSans-41"/>
     </defs>
     <g transform="translate(94.6 58.070437)scale(0.1 -0.1)">
      <use xlink:href="#DejaVuSans-42"/>
      <use x="68.603516" xlink:href="#DejaVuSans-61"/>
      <use x="129.882812" xlink:href="#DejaVuSans-73"/>
      <use x="181.982422" xlink:href="#DejaVuSans-65"/>
      <use x="243.505859" xlink:href="#DejaVuSans-20"/>
      <use x="275.292969" xlink:href="#DejaVuSans-47"/>
      <use x="352.783203" xlink:href="#DejaVuSans-41"/>
     </g>
    </g>
    <g id="line2d_16">
     <path d="M 66.6 69.248562 
L 86.6 69.248562 
" style="fill:none;stroke:#ff0000;stroke-linecap:square;stroke-width:1.5;"/>
    </g>
    <g id="line2d_17"/>
    <g id="text_13">
     <!-- Method II -->
     <defs>
      <path d="M 9.8125 72.90625 
L 24.515625 72.90625 
L 43.109375 23.296875 
L 61.8125 72.90625 
L 76.515625 72.90625 
L 76.515625 0 
L 66.890625 0 
L 66.890625 64.015625 
L 48.09375 14.015625 
L 38.1875 14.015625 
L 19.390625 64.015625 
L 19.390625 0 
L 9.8125 0 
z
" id="DejaVuSans-4d"/>
      <path d="M 18.3125 70.21875 
L 18.3125 54.6875 
L 36.8125 54.6875 
L 36.8125 47.703125 
L 18.3125 47.703125 
L 18.3125 18.015625 
Q 18.3125 11.328125 20.140625 9.421875 
Q 21.96875 7.515625 27.59375 7.515625 
L 36.8125 7.515625 
L 36.8125 0 
L 27.59375 0 
Q 17.1875 0 13.234375 3.875 
Q 9.28125 7.765625 9.28125 18.015625 
L 9.28125 47.703125 
L 2.6875 47.703125 
L 2.6875 54.6875 
L 9.28125 54.6875 
L 9.28125 70.21875 
z
" id="DejaVuSans-74"/>
      <path d="M 54.890625 33.015625 
L 54.890625 0 
L 45.90625 0 
L 45.90625 32.71875 
Q 45.90625 40.484375 42.875 44.328125 
Q 39.84375 48.1875 33.796875 48.1875 
Q 26.515625 48.1875 22.3125 43.546875 
Q 18.109375 38.921875 18.109375 30.90625 
L 18.109375 0 
L 9.078125 0 
L 9.078125 75.984375 
L 18.109375 75.984375 
L 18.109375 46.1875 
Q 21.34375 51.125 25.703125 53.5625 
Q 30.078125 56 35.796875 56 
Q 45.21875 56 50.046875 50.171875 
Q 54.890625 44.34375 54.890625 33.015625 
z
" id="DejaVuSans-68"/>
      <path d="M 30.609375 48.390625 
Q 23.390625 48.390625 19.1875 42.75 
Q 14.984375 37.109375 14.984375 27.296875 
Q 14.984375 17.484375 19.15625 11.84375 
Q 23.34375 6.203125 30.609375 6.203125 
Q 37.796875 6.203125 41.984375 11.859375 
Q 46.1875 17.53125 46.1875 27.296875 
Q 46.1875 37.015625 41.984375 42.703125 
Q 37.796875 48.390625 30.609375 48.390625 
z
M 30.609375 56 
Q 42.328125 56 49.015625 48.375 
Q 55.71875 40.765625 55.71875 27.296875 
Q 55.71875 13.875 49.015625 6.21875 
Q 42.328125 -1.421875 30.609375 -1.421875 
Q 18.84375 -1.421875 12.171875 6.21875 
Q 5.515625 13.875 5.515625 27.296875 
Q 5.515625 40.765625 12.171875 48.375 
Q 18.84375 56 30.609375 56 
z
" id="DejaVuSans-6f"/>
      <path d="M 45.40625 46.390625 
L 45.40625 75.984375 
L 54.390625 75.984375 
L 54.390625 0 
L 45.40625 0 
L 45.40625 8.203125 
Q 42.578125 3.328125 38.25 0.953125 
Q 33.9375 -1.421875 27.875 -1.421875 
Q 17.96875 -1.421875 11.734375 6.484375 
Q 5.515625 14.40625 5.515625 27.296875 
Q 5.515625 40.1875 11.734375 48.09375 
Q 17.96875 56 27.875 56 
Q 33.9375 56 38.25 53.625 
Q 42.578125 51.265625 45.40625 46.390625 
z
M 14.796875 27.296875 
Q 14.796875 17.390625 18.875 11.75 
Q 22.953125 6.109375 30.078125 6.109375 
Q 37.203125 6.109375 41.296875 11.75 
Q 45.40625 17.390625 45.40625 27.296875 
Q 45.40625 37.203125 41.296875 42.84375 
Q 37.203125 48.484375 30.078125 48.484375 
Q 22.953125 48.484375 18.875 42.84375 
Q 14.796875 37.203125 14.796875 27.296875 
z
" id="DejaVuSans-64"/>
      <path d="M 9.8125 72.90625 
L 19.671875 72.90625 
L 19.671875 0 
L 9.8125 0 
z
" id="DejaVuSans-49"/>
     </defs>
     <g transform="translate(94.6 72.748562)scale(0.1 -0.1)">
      <use xlink:href="#DejaVuSans-4d"/>
      <use x="86.279297" xlink:href="#DejaVuSans-65"/>
      <use x="147.802734" xlink:href="#DejaVuSans-74"/>
      <use x="187.011719" xlink:href="#DejaVuSans-68"/>
      <use x="250.390625" xlink:href="#DejaVuSans-6f"/>
      <use x="311.572266" xlink:href="#DejaVuSans-64"/>
      <use x="375.048828" xlink:href="#DejaVuSans-20"/>
      <use x="406.835938" xlink:href="#DejaVuSans-49"/>
      <use x="436.328125" xlink:href="#DejaVuSans-49"/>
     </g>
    </g>
   </g>
  </g>
 </g>
 <defs>
  <clipPath id="p23be5b96be">
   <rect height="266.112" width="357.12" x="57.6" y="41.472"/>
  </clipPath>
 </defs>
</svg>
